<svg xmlns="http://www.w3.org/2000/svg" width="102" height="35" viewBox="0 0 102 35" fill="none"><path d="M69.2967 16.6205V18.5679H68.0761V19.845H69.2967V24.1842C69.2967 25.6659 69.967 26.2586 71.6533 26.2586C71.9496 26.2586 72.2318 26.2233 72.4788 26.1809V24.918C72.2671 24.9391 72.1331 24.9533 71.9002 24.9533C71.1453 24.9533 70.8137 24.6005 70.8137 23.7961V19.845H72.4788V18.5679H70.8137V16.6205H69.2967Z" fill="#ADB3B7"></path><path d="M76.7746 26.3644C79.0183 26.3644 80.3941 24.8615 80.3941 22.3709C80.3941 19.8943 79.0112 18.3844 76.7746 18.3844C74.5309 18.3844 73.1479 19.8943 73.1479 22.3709C73.1479 24.8615 74.5238 26.3644 76.7746 26.3644ZM76.7746 25.0168C75.4552 25.0168 74.7143 24.0501 74.7143 22.3709C74.7143 20.7057 75.4552 19.7321 76.7746 19.7321C78.0869 19.7321 78.8348 20.7057 78.8348 22.3709C78.8348 24.0431 78.0869 25.0168 76.7746 25.0168Z" fill="#ADB3B7"></path><path d="M81.5713 26.2162H83.0882V21.6794C83.0882 20.5999 83.8997 19.8732 85.0497 19.8732C85.3178 19.8732 85.7694 19.9226 85.8964 19.9649V18.4691C85.7341 18.4268 85.4448 18.4056 85.2191 18.4056C84.2172 18.4056 83.3634 18.9559 83.1447 19.7109H83.0318V18.5326H81.5713V26.2162Z" fill="#ADB3B7"></path><path d="M89.663 19.6756C90.7849 19.6756 91.5186 20.4588 91.5539 21.6653H87.6733C87.758 20.4659 88.5411 19.6756 89.663 19.6756ZM91.5469 24.1419C91.2646 24.7416 90.6367 25.0732 89.7194 25.0732C88.5059 25.0732 87.7227 24.2195 87.6733 22.8718V22.7872H93.0991V22.258C93.0991 19.845 91.8079 18.3844 89.6701 18.3844C87.504 18.3844 86.1281 19.9437 86.1281 22.3991C86.1281 24.8545 87.4757 26.3644 89.6771 26.3644C91.434 26.3644 92.6617 25.5177 93.0074 24.1419H91.5469Z" fill="#ADB3B7"></path><path d="M59.3486 23.3788C59.4656 25.2655 61.0379 26.4722 63.3781 26.4722C65.8791 26.4722 67.4441 25.207 67.4441 23.1886C67.4441 21.6017 66.5519 20.7242 64.3873 20.2196L63.2245 19.9344C61.8497 19.6126 61.2939 19.1811 61.2939 18.4279C61.2939 17.4772 62.1568 16.8556 63.4512 16.8556C64.6798 16.8556 65.5281 17.4626 65.6817 18.4352H67.2759C67.1809 16.6581 65.6159 15.4076 63.4732 15.4076C61.1696 15.4076 59.6338 16.6581 59.6338 18.5376C59.6338 20.0879 60.5041 21.0094 62.4128 21.4555L63.773 21.7845C65.1698 22.1136 65.7841 22.5963 65.7841 23.4007C65.7841 24.3368 64.8188 25.0169 63.5024 25.0169C62.091 25.0169 61.1111 24.3807 60.9721 23.3788H59.3486Z" fill="#ADB3B7"></path><path d="M43.6344 18.4056C42.5902 18.4056 41.687 18.9277 41.2214 19.8026H41.1085V18.5326H39.648V28.7704H41.1649V25.052H41.2849C41.687 25.8634 42.5549 26.3432 43.6485 26.3432C45.5888 26.3432 46.8236 24.8121 46.8236 22.3709C46.8236 19.9296 45.5888 18.4056 43.6344 18.4056ZM43.204 24.9815C41.934 24.9815 41.1367 23.9796 41.1367 22.3779C41.1367 20.7692 41.934 19.7673 43.2111 19.7673C44.4952 19.7673 45.2643 20.7481 45.2643 22.3709C45.2643 24.0007 44.4952 24.9815 43.204 24.9815Z" fill="#ADB3B7"></path><path d="M52.1317 18.4056C51.0874 18.4056 50.1843 18.9277 49.7186 19.8026H49.6058V18.5326H48.1452V28.7704H49.6622V25.052H49.7821C50.1843 25.8634 51.0522 26.3432 52.1458 26.3432C54.0861 26.3432 55.3208 24.8121 55.3208 22.3709C55.3208 19.9296 54.0861 18.4056 52.1317 18.4056ZM51.7013 24.9815C50.4313 24.9815 49.634 23.9796 49.634 22.3779C49.634 20.7692 50.4313 19.7673 51.7083 19.7673C52.9925 19.7673 53.7615 20.7481 53.7615 22.3709C53.7615 24.0007 52.9925 24.9815 51.7013 24.9815Z" fill="#ADB3B7"></path><path d="M36.9263 26.2162H38.6667L34.8567 15.6636H33.0942L29.2842 26.2162H30.9662L31.9388 23.4153H35.9609L36.9263 26.2162ZM33.8914 17.5796H34.0157L35.5441 22.0405H32.3556L33.8914 17.5796Z" fill="#ADB3B7"></path><path d="M30.3037 7.70403V12.7947H32.1417C33.6587 12.7947 34.5371 11.8598 34.5371 10.2335C34.5371 8.63185 33.6516 7.70403 32.1417 7.70403H30.3037ZM31.0939 8.42371H32.0535C33.1083 8.42371 33.7328 9.09399 33.7328 10.2441C33.7328 11.4118 33.1189 12.075 32.0535 12.075H31.0939V8.42371Z" fill="#ADB3B7"></path><path d="M37.2274 12.8688C38.3493 12.8688 39.0372 12.1173 39.0372 10.872C39.0372 9.63375 38.3458 8.8788 37.2274 8.8788C36.1056 8.8788 35.4141 9.63375 35.4141 10.872C35.4141 12.1173 36.1021 12.8688 37.2274 12.8688ZM37.2274 12.195C36.5677 12.195 36.1973 11.7116 36.1973 10.872C36.1973 10.0395 36.5677 9.55261 37.2274 9.55261C37.8836 9.55261 38.2576 10.0395 38.2576 10.872C38.2576 11.7081 37.8836 12.195 37.2274 12.195Z" fill="#ADB3B7"></path><path d="M44.8955 8.95288H44.137L43.4526 11.8845H43.3927L42.6024 8.95288H41.8757L41.0855 11.8845H41.029L40.3411 8.95288H39.572L40.6304 12.7947H41.41L42.2003 9.96537H42.2602L43.054 12.7947H43.8407L44.8955 8.95288Z" fill="#ADB3B7"></path><path d="M45.769 12.7947H46.5275V10.5475C46.5275 9.94773 46.8838 9.57378 47.4447 9.57378C48.0057 9.57378 48.2738 9.8807 48.2738 10.4981V12.7947H49.0323V10.3076C49.0323 9.39386 48.5595 8.8788 47.7023 8.8788C47.1237 8.8788 46.7427 9.13633 46.5557 9.5632H46.4993V8.95288H45.769V12.7947Z" fill="#ADB3B7"></path><path d="M50.2268 12.7947H50.9853V7.45355H50.2268V12.7947Z" fill="#ADB3B7"></path><path d="M53.8379 12.8688C54.9597 12.8688 55.6477 12.1173 55.6477 10.872C55.6477 9.63375 54.9562 8.8788 53.8379 8.8788C52.716 8.8788 52.0246 9.63375 52.0246 10.872C52.0246 12.1173 52.7125 12.8688 53.8379 12.8688ZM53.8379 12.195C53.1782 12.195 52.8078 11.7116 52.8078 10.872C52.8078 10.0395 53.1782 9.55261 53.8379 9.55261C54.4941 9.55261 54.868 10.0395 54.868 10.872C54.868 11.7081 54.4941 12.195 53.8379 12.195Z" fill="#ADB3B7"></path><path d="M57.9076 12.2197C57.4948 12.2197 57.195 12.0186 57.195 11.6728C57.195 11.3342 57.4349 11.1542 57.964 11.119L58.9024 11.059V11.38C58.9024 11.8563 58.4791 12.2197 57.9076 12.2197ZM57.7136 12.8582C58.218 12.8582 58.6378 12.6395 58.8672 12.2549H58.9271V12.7947H59.6574V10.17C59.6574 9.35858 59.1141 8.8788 58.151 8.8788C57.2796 8.8788 56.6587 9.30214 56.5811 9.96184H57.3149C57.3996 9.6902 57.6924 9.53497 58.1157 9.53497C58.6343 9.53497 58.9024 9.76428 58.9024 10.17V10.5016L57.8617 10.5616C56.948 10.618 56.433 11.0167 56.433 11.7081C56.433 12.4102 56.9727 12.8582 57.7136 12.8582Z" fill="#ADB3B7"></path><path d="M62.2313 12.8582C62.7605 12.8582 63.2085 12.6077 63.4378 12.1879H63.4978V12.7947H64.2245V7.45355H63.466V9.5632H63.4096C63.2015 9.13986 62.7569 8.88938 62.2313 8.88938C61.2611 8.88938 60.6367 9.65845 60.6367 10.872C60.6367 12.0891 61.2541 12.8582 62.2313 12.8582ZM62.4465 9.57025C63.0815 9.57025 63.4801 10.0747 63.4801 10.8755C63.4801 11.6799 63.085 12.1773 62.4465 12.1773C61.8044 12.1773 61.4199 11.687 61.4199 10.872C61.4199 10.0641 61.808 9.57025 62.4465 9.57025Z" fill="#ADB3B7"></path><path d="M69.143 12.8688C70.2649 12.8688 70.9528 12.1173 70.9528 10.872C70.9528 9.63375 70.2613 8.8788 69.143 8.8788C68.0212 8.8788 67.3297 9.63375 67.3297 10.872C67.3297 12.1173 68.0176 12.8688 69.143 12.8688ZM69.143 12.195C68.4833 12.195 68.1129 11.7116 68.1129 10.872C68.1129 10.0395 68.4833 9.55261 69.143 9.55261C69.7992 9.55261 70.1732 10.0395 70.1732 10.872C70.1732 11.7081 69.7992 12.195 69.143 12.195Z" fill="#ADB3B7"></path><path d="M71.9568 12.7947H72.7153V10.5475C72.7153 9.94773 73.0716 9.57378 73.6325 9.57378C74.1935 9.57378 74.4616 9.8807 74.4616 10.4981V12.7947H75.2201V10.3076C75.2201 9.39386 74.7473 8.8788 73.8901 8.8788C73.3115 8.8788 72.9305 9.13633 72.7435 9.5632H72.6871V8.95288H71.9568V12.7947Z" fill="#ADB3B7"></path><path d="M78.7133 7.99684V8.97052H78.103V9.60906H78.7133V11.7787C78.7133 12.5195 79.0485 12.8159 79.8916 12.8159C80.0398 12.8159 80.1809 12.7982 80.3044 12.7771V12.1456C80.1985 12.1562 80.1315 12.1632 80.0151 12.1632C79.6376 12.1632 79.4718 11.9868 79.4718 11.5846V9.60906H80.3044V8.97052H79.4718V7.99684H78.7133Z" fill="#ADB3B7"></path><path d="M81.3225 12.7947H82.081V10.551C82.081 9.9689 82.4267 9.57731 83.0476 9.57731C83.5839 9.57731 83.8696 9.88776 83.8696 10.5016V12.7947H84.6281V10.3146C84.6281 9.40092 84.1236 8.88232 83.3052 8.88232C82.7266 8.88232 82.3209 9.13986 82.1339 9.57025H82.0739V7.45355H81.3225V12.7947Z" fill="#ADB3B7"></path><path d="M87.3643 9.52439C87.9252 9.52439 88.2921 9.91598 88.3097 10.5192H86.3694C86.4118 9.91951 86.8033 9.52439 87.3643 9.52439ZM88.3062 11.7575C88.1651 12.0574 87.8511 12.2232 87.3925 12.2232C86.7857 12.2232 86.3941 11.7963 86.3694 11.1225V11.0802H89.0823V10.8156C89.0823 9.60906 88.4367 8.8788 87.3678 8.8788C86.2848 8.8788 85.5968 9.65845 85.5968 10.8861C85.5968 12.1138 86.2706 12.8688 87.3713 12.8688C88.2498 12.8688 88.8636 12.4454 89.0365 11.7575H88.3062Z" fill="#ADB3B7"></path><path d="M21.0538 17.5554C21.0722 16.1266 21.8396 14.7746 23.0569 14.0262C22.2889 12.9294 21.0026 12.234 19.6644 12.1922C18.237 12.0423 16.8533 13.0463 16.1259 13.0463C15.3845 13.0463 14.2646 12.207 13.0587 12.2318C11.4868 12.2826 10.0215 13.1763 9.25671 14.5505C7.61281 17.3967 8.83901 21.5796 10.4137 23.8802C11.2016 25.0067 12.1224 26.2651 13.3272 26.2205C14.5062 26.1716 14.9465 25.4687 16.3697 25.4687C17.7796 25.4687 18.1928 26.2205 19.4221 26.1921C20.6872 26.1716 21.4843 25.0606 22.2445 23.9234C22.8106 23.1207 23.2462 22.2335 23.5351 21.2947C22.0484 20.6659 21.0555 19.1697 21.0538 17.5554Z" fill="#ADB3B7"></path><path d="M18.7319 10.6792C19.4217 9.85108 19.7615 8.78673 19.6792 7.71213C18.6254 7.82282 17.6519 8.32649 16.9528 9.1228C16.2691 9.90083 15.9134 10.9465 15.9806 11.98C17.0349 11.9908 18.0713 11.5008 18.7319 10.6792Z" fill="#ADB3B7"></path><rect x="0.425" y="0.724744" width="101.15" height="33.15" rx="5.525" stroke="#ADB3B7" stroke-width="0.85"></rect></svg>