<?xml version="1.0" encoding="UTF-8"?> <svg xmlns="http://www.w3.org/2000/svg" id="BTC" width="240" height="240" viewBox="0 0 240 240"><circle id="Ellipse_8" data-name="Ellipse 8" cx="120" cy="120" r="120" fill="#eef2f7"></circle><g id="BTC-1" transform="translate(10 10)"><g id="Path_779" data-name="Path 779" fill="#eef2f7"><path d="M 110 218 C 102.671028137207 218 95.34726715087891 217.2617645263672 88.23211669921875 215.8058013916016 C 81.29882049560547 214.3870239257812 74.47902679443359 212.2700653076172 67.96215057373047 209.5136413574219 C 61.56311798095703 206.8070831298828 55.39111709594727 203.45703125 49.61755752563477 199.5564727783203 C 43.89835357666016 195.6926422119141 38.52017593383789 191.2552642822266 33.63246917724609 186.3675231933594 C 28.74473571777344 181.4798278808594 24.30735206604004 176.1016540527344 20.44352912902832 170.3824462890625 C 16.54297065734863 164.60888671875 13.19291210174561 158.4368896484375 10.48635292053223 152.0378570556641 C 7.729941368103027 145.5209655761719 5.612970352172852 138.701171875 4.194205760955811 131.7678833007812 C 2.738235235214233 124.6527328491211 2 117.328971862793 2 110 C 2 102.671028137207 2.738235235214233 95.34726715087891 4.194205760955811 88.23211669921875 C 5.612970352172852 81.29882049560547 7.729941368103027 74.47902679443359 10.48635292053223 67.96215057373047 C 13.19291210174561 61.56311798095703 16.54297065734863 55.39111709594727 20.44352912902832 49.61755752563477 C 24.30735206604004 43.89835357666016 28.74473571777344 38.52017593383789 33.63246917724609 33.63246917724609 C 38.52017593383789 28.74473571777344 43.89835357666016 24.30735206604004 49.61755752563477 20.44352912902832 C 55.39111709594727 16.54297065734863 61.56311798095703 13.19291210174561 67.96215057373047 10.48635292053223 C 74.47902679443359 7.729941368103027 81.29882049560547 5.612970352172852 88.23211669921875 4.194205760955811 C 95.34726715087891 2.738235235214233 102.671028137207 2 110 2 C 117.328971862793 2 124.6527328491211 2.738235235214233 131.7678833007812 4.194205760955811 C 138.701171875 5.612970352172852 145.5209655761719 7.729941368103027 152.0378570556641 10.48635292053223 C 158.4368896484375 13.19291210174561 164.60888671875 16.54297065734863 170.3824462890625 20.44352912902832 C 176.1016540527344 24.30735206604004 181.4798278808594 28.74473571777344 186.3675231933594 33.63246917724609 C 191.2552642822266 38.52017593383789 195.6926422119141 43.89835357666016 199.5564727783203 49.61755752563477 C 203.45703125 55.39111709594727 206.8070831298828 61.56311798095703 209.5136413574219 67.96215057373047 C 212.2700653076172 74.47902679443359 214.3870239257812 81.29882049560547 215.8058013916016 88.23211669921875 C 217.2617645263672 95.34726715087891 218 102.671028137207 218 110 C 218 117.328971862793 217.2617645263672 124.6527328491211 215.8058013916016 131.7678833007812 C 214.3870239257812 138.701171875 212.2700653076172 145.5209655761719 209.5136413574219 152.0378570556641 C 206.8070831298828 158.4368896484375 203.45703125 164.60888671875 199.5564727783203 170.3824462890625 C 195.6926422119141 176.1016540527344 191.2552642822266 181.4798278808594 186.3675231933594 186.3675231933594 C 181.4798278808594 191.2552642822266 176.1016540527344 195.6926422119141 170.3824462890625 199.5564727783203 C 164.60888671875 203.45703125 158.4368896484375 206.8070831298828 152.0378570556641 209.5136413574219 C 145.5209655761719 212.2700653076172 138.701171875 214.3870239257812 131.7678833007812 215.8058013916016 C 124.6527328491211 217.2617645263672 117.328971862793 218 110 218 Z" stroke="none"></path><path d="M 110 4 C 102.8054351806641 4 95.61656188964844 4.724563598632812 88.633056640625 6.153594970703125 C 81.82913208007812 7.545913696289062 75.13653564453125 9.623382568359375 68.74125671386719 12.328369140625 C 62.461181640625 14.984619140625 56.40371704101562 18.27253723144531 50.7371826171875 22.10078430175781 C 45.12344360351562 25.89334106445312 39.84440612792969 30.24896240234375 35.04669189453125 35.04669189453125 C 30.24896240234375 39.84440612792969 25.89334106445312 45.12344360351562 22.10078430175781 50.7371826171875 C 18.27253723144531 56.40371704101562 14.984619140625 62.461181640625 12.328369140625 68.74125671386719 C 9.623382568359375 75.13653564453125 7.545913696289062 81.82913208007812 6.153594970703125 88.633056640625 C 4.724563598632812 95.61656188964844 4 102.8054351806641 4 110 C 4 117.1945648193359 4.724563598632812 124.3834381103516 6.153594970703125 131.366943359375 C 7.545913696289062 138.1708679199219 9.623382568359375 144.8634643554688 12.328369140625 151.2587585449219 C 14.984619140625 157.538818359375 18.27253723144531 163.5962829589844 22.10078430175781 169.2628173828125 C 25.89334106445312 174.8765563964844 30.24896240234375 180.1555938720703 35.04669189453125 184.9533081054688 C 39.84440612792969 189.7510375976562 45.12344360351562 194.1066589355469 50.7371826171875 197.8992156982422 C 56.40371704101562 201.7274627685547 62.461181640625 205.015380859375 68.74125671386719 207.671630859375 C 75.13653564453125 210.3766174316406 81.82913208007812 212.4541015625 88.633056640625 213.8464050292969 C 95.61656188964844 215.2754364013672 102.8054351806641 216 110 216 C 117.1945648193359 216 124.3834381103516 215.2754364013672 131.366943359375 213.8464050292969 C 138.1708679199219 212.4541015625 144.8634643554688 210.3766174316406 151.2587585449219 207.671630859375 C 157.538818359375 205.015380859375 163.5962829589844 201.7274627685547 169.2628173828125 197.8992156982422 C 174.8765563964844 194.1066589355469 180.1555938720703 189.7510375976562 184.9533081054688 184.9533081054688 C 189.7510375976562 180.1555938720703 194.1066589355469 174.8765563964844 197.8992156982422 169.2628173828125 C 201.7274627685547 163.5962829589844 205.015380859375 157.538818359375 207.671630859375 151.2587585449219 C 210.3766174316406 144.8634643554688 212.4541015625 138.1708679199219 213.8464050292969 131.366943359375 C 215.2754364013672 124.3834381103516 216 117.1945648193359 216 110 C 216 102.8054351806641 215.2754364013672 95.61656188964844 213.8464050292969 88.633056640625 C 212.4541015625 81.82913208007812 210.3766174316406 75.13653564453125 207.671630859375 68.74125671386719 C 205.015380859375 62.461181640625 201.7274627685547 56.40371704101562 197.8992156982422 50.7371826171875 C 194.1066589355469 45.12344360351562 189.7510375976562 39.84440612792969 184.9533081054688 35.04669189453125 C 180.1555938720703 30.24896240234375 174.8765563964844 25.89334106445312 169.2628173828125 22.10078430175781 C 163.5962829589844 18.27253723144531 157.538818359375 14.984619140625 151.2587585449219 12.328369140625 C 144.8634643554688 9.623382568359375 138.1708679199219 7.545913696289062 131.366943359375 6.153594970703125 C 124.3834381103516 4.724563598632812 117.1945648193359 4 110 4 M 110 0 C 170.7513122558594 0 220 49.24868774414062 220 110 C 220 170.7513122558594 170.7513122558594 220 110 220 C 49.24868774414062 220 0 170.7513122558594 0 110 C 0 49.24868774414062 49.24868774414062 0 110 0 Z" stroke="none" fill="#d9790e"></path></g><g id="Ellipse_12" data-name="Ellipse 12" transform="translate(3 3)" fill="none" stroke="#be6811" stroke-width="2.5"><circle cx="107" cy="107" r="107" stroke="none"></circle><circle cx="107" cy="107" r="105.75" fill="none"></circle></g><g id="Layer_x0020_1" transform="translate(5 4.999)"><g id="_1421344023328" transform="translate(0 0.001)"><path id="Path_796" data-name="Path 796" d="M206.835,130.4A104.963,104.963,0,1,1,130.374,3.143,104.972,104.972,0,0,1,206.835,130.4h0Z" transform="translate(0 -0.001)" fill="#f7931a"></path><path id="Path_797" data-name="Path 797" d="M1095.668,766.21c2.09-13.973-8.548-21.484-23.1-26.495l4.719-18.928-11.522-2.871-4.594,18.43c-3.029-.755-6.14-1.467-9.231-2.173l4.627-18.551-11.515-2.871-4.722,18.922c-2.507-.571-4.969-1.135-7.357-1.729l.013-.06-15.889-3.968-3.065,12.306s8.548,1.96,8.368,2.08c4.666,1.164,5.51,4.253,5.369,6.7l-5.375,21.563a9.386,9.386,0,0,1,1.2.384c-.384-.1-.793-.2-1.218-.3l-7.535,30.207a4.192,4.192,0,0,1-5.28,2.737c.115.167-8.374-2.09-8.374-2.09l-5.72,13.189,14.994,3.738c2.789.7,5.523,1.431,8.215,2.12l-4.768,19.145,11.509,2.871,4.722-18.942c3.144.854,6.2,1.641,9.182,2.383l-4.706,18.853,11.523,2.871,4.767-19.109c19.647,3.718,34.421,2.219,40.639-15.552,5.011-14.308-.25-22.561-10.586-27.942,7.529-1.736,13.2-6.688,14.711-16.917l0,0Zm-26.325,36.915c-3.561,14.308-27.651,6.573-35.461,4.634l6.327-25.364c7.81,1.95,32.856,5.808,29.135,20.73ZM1072.906,766c-3.248,13.015-23.3,6.4-29.8,4.781l5.736-23c6.5,1.621,27.45,4.647,24.068,18.222Z" transform="translate(-944.379 -676.17)" fill="#fff"></path></g></g></g></svg> 