<svg xmlns="http://www.w3.org/2000/svg" xmlns:xlink="http://www.w3.org/1999/xlink" id="Component_59_1" data-name="Component 59 &#x2013; 1" width="240" height="240" viewBox="0 0 240 240"><defs><linearGradient id="linear-gradient" y1="0.045" x2="0.924" y2="0.748" gradientUnits="objectBoundingBox"><stop offset="0" stop-color="#00adef"></stop><stop offset="1" stop-color="#0084ff"></stop></linearGradient></defs><circle id="Ellipse_8" data-name="Ellipse 8" cx="120" cy="120" r="120" fill="#eef2f7"></circle><g id="Path_779" data-name="Path 779" transform="translate(10 10)" fill="url(#linear-gradient)"><path d="M 110 218 C 102.671028137207 218 95.34726715087891 217.2617645263672 88.23211669921875 215.8058013916016 C 81.29882049560547 214.3870239257812 74.47902679443359 212.2700653076172 67.96215057373047 209.5136413574219 C 61.56311798095703 206.8070831298828 55.39111709594727 203.45703125 49.61755752563477 199.5564727783203 C 43.89835357666016 195.6926422119141 38.52017593383789 191.2552642822266 33.63246917724609 186.3675231933594 C 28.74473571777344 181.4798278808594 24.30735206604004 176.1016540527344 20.44352912902832 170.3824462890625 C 16.54297065734863 164.60888671875 13.19291210174561 158.4368896484375 10.48635292053223 152.0378570556641 C 7.729941368103027 145.5209655761719 5.612970352172852 138.701171875 4.194205760955811 131.7678833007812 C 2.738235235214233 124.6527328491211 2 117.328971862793 2 110 C 2 102.671028137207 2.738235235214233 95.34726715087891 4.194205760955811 88.23211669921875 C 5.612970352172852 81.29882049560547 7.729941368103027 74.47902679443359 10.48635292053223 67.96215057373047 C 13.19291210174561 61.56311798095703 16.54297065734863 55.39111709594727 20.44352912902832 49.61755752563477 C 24.30735206604004 43.89835357666016 28.74473571777344 38.52017593383789 33.63246917724609 33.63246917724609 C 38.52017593383789 28.74473571777344 43.89835357666016 24.30735206604004 49.61755752563477 20.44352912902832 C 55.39111709594727 16.54297065734863 61.56311798095703 13.19291210174561 67.96215057373047 10.48635292053223 C 74.47902679443359 7.729941368103027 81.29882049560547 5.612970352172852 88.23211669921875 4.194205760955811 C 95.34726715087891 2.738235235214233 102.671028137207 2 110 2 C 117.328971862793 2 124.6527328491211 2.738235235214233 131.7678833007812 4.194205760955811 C 138.701171875 5.612970352172852 145.5209655761719 7.729941368103027 152.0378570556641 10.48635292053223 C 158.4368896484375 13.19291210174561 164.60888671875 16.54297065734863 170.3824462890625 20.44352912902832 C 176.1016540527344 24.30735206604004 181.4798278808594 28.74473571777344 186.3675231933594 33.63246917724609 C 191.2552642822266 38.52017593383789 195.6926422119141 43.89835357666016 199.5564727783203 49.61755752563477 C 203.45703125 55.39111709594727 206.8070831298828 61.56311798095703 209.5136413574219 67.96215057373047 C 212.2700653076172 74.47902679443359 214.3870239257812 81.29882049560547 215.8058013916016 88.23211669921875 C 217.2617645263672 95.34726715087891 218 102.671028137207 218 110 C 218 117.328971862793 217.2617645263672 124.6527328491211 215.8058013916016 131.7678833007812 C 214.3870239257812 138.701171875 212.2700653076172 145.5209655761719 209.5136413574219 152.0378570556641 C 206.8070831298828 158.4368896484375 203.45703125 164.60888671875 199.5564727783203 170.3824462890625 C 195.6926422119141 176.1016540527344 191.2552642822266 181.4798278808594 186.3675231933594 186.3675231933594 C 181.4798278808594 191.2552642822266 176.1016540527344 195.6926422119141 170.3824462890625 199.5564727783203 C 164.60888671875 203.45703125 158.4368896484375 206.8070831298828 152.0378570556641 209.5136413574219 C 145.5209655761719 212.2700653076172 138.701171875 214.3870239257812 131.7678833007812 215.8058013916016 C 124.6527328491211 217.2617645263672 117.328971862793 218 110 218 Z" stroke="none"></path><path d="M 110 4 C 102.8054351806641 4 95.61656188964844 4.724563598632812 88.633056640625 6.153594970703125 C 81.82913208007812 7.545913696289062 75.13653564453125 9.623382568359375 68.74125671386719 12.328369140625 C 62.461181640625 14.984619140625 56.40371704101562 18.27253723144531 50.7371826171875 22.10078430175781 C 45.12344360351562 25.89334106445312 39.84440612792969 30.24896240234375 35.04669189453125 35.04669189453125 C 30.24896240234375 39.84440612792969 25.89334106445312 45.12344360351562 22.10078430175781 50.7371826171875 C 18.27253723144531 56.40371704101562 14.984619140625 62.461181640625 12.328369140625 68.74125671386719 C 9.623382568359375 75.13653564453125 7.545913696289062 81.82913208007812 6.153594970703125 88.633056640625 C 4.724563598632812 95.61656188964844 4 102.8054351806641 4 110 C 4 117.1945648193359 4.724563598632812 124.3834381103516 6.153594970703125 131.366943359375 C 7.545913696289062 138.1708679199219 9.623382568359375 144.8634643554688 12.328369140625 151.2587585449219 C 14.984619140625 157.538818359375 18.27253723144531 163.5962829589844 22.10078430175781 169.2628173828125 C 25.89334106445312 174.8765563964844 30.24896240234375 180.1555938720703 35.04669189453125 184.9533081054688 C 39.84440612792969 189.7510375976562 45.12344360351562 194.1066589355469 50.7371826171875 197.8992156982422 C 56.40371704101562 201.7274627685547 62.461181640625 205.015380859375 68.74125671386719 207.671630859375 C 75.13653564453125 210.3766174316406 81.82913208007812 212.4541015625 88.633056640625 213.8464050292969 C 95.61656188964844 215.2754364013672 102.8054351806641 216 110 216 C 117.1945648193359 216 124.3834381103516 215.2754364013672 131.366943359375 213.8464050292969 C 138.1708679199219 212.4541015625 144.8634643554688 210.3766174316406 151.2587585449219 207.671630859375 C 157.538818359375 205.015380859375 163.5962829589844 201.7274627685547 169.2628173828125 197.8992156982422 C 174.8765563964844 194.1066589355469 180.1555938720703 189.7510375976562 184.9533081054688 184.9533081054688 C 189.7510375976562 180.1555938720703 194.1066589355469 174.8765563964844 197.8992156982422 169.2628173828125 C 201.7274627685547 163.5962829589844 205.015380859375 157.538818359375 207.671630859375 151.2587585449219 C 210.3766174316406 144.8634643554688 212.4541015625 138.1708679199219 213.8464050292969 131.366943359375 C 215.2754364013672 124.3834381103516 216 117.1945648193359 216 110 C 216 102.8054351806641 215.2754364013672 95.61656188964844 213.8464050292969 88.633056640625 C 212.4541015625 81.82913208007812 210.3766174316406 75.13653564453125 207.671630859375 68.74125671386719 C 205.015380859375 62.461181640625 201.7274627685547 56.40371704101562 197.8992156982422 50.7371826171875 C 194.1066589355469 45.12344360351562 189.7510375976562 39.84440612792969 184.9533081054688 35.04669189453125 C 180.1555938720703 30.24896240234375 174.8765563964844 25.89334106445312 169.2628173828125 22.10078430175781 C 163.5962829589844 18.27253723144531 157.538818359375 14.984619140625 151.2587585449219 12.328369140625 C 144.8634643554688 9.623382568359375 138.1708679199219 7.545913696289062 131.366943359375 6.153594970703125 C 124.3834381103516 4.724563598632812 117.1945648193359 4 110 4 M 110 0 C 170.7513122558594 0 220 49.24868774414062 220 110 C 220 170.7513122558594 170.7513122558594 220 110 220 C 49.24868774414062 220 0 170.7513122558594 0 110 C 0 49.24868774414062 49.24868774414062 0 110 0 Z" stroke="none" fill="#0d77fc"></path></g><g id="Path_783" data-name="Path 783" transform="translate(13 13)" fill="none"><path d="M107,0A107,107,0,1,1,0,107,107,107,0,0,1,107,0Z" stroke="none"></path><path d="M 107 2.5 C 99.90818023681641 2.5 92.821533203125 3.214324951171875 85.93693542480469 4.623123168945312 C 79.22862243652344 5.995819091796875 72.63008117675781 8.044113159179688 66.32464599609375 10.71109008789062 C 60.13314819335938 13.32987976074219 54.16123962402344 16.57135009765625 48.57479858398438 20.34547424316406 C 43.04078674316406 24.08418273925781 37.8367919921875 28.37788391113281 33.10734558105469 33.10734558105469 C 28.37788391113281 37.8367919921875 24.08418273925781 43.04078674316406 20.34547424316406 48.57479858398438 C 16.57135009765625 54.16123962402344 13.32987976074219 60.13314819335938 10.71109008789062 66.32464599609375 C 8.044113159179688 72.63008117675781 5.995819091796875 79.22862243652344 4.623123168945312 85.93693542480469 C 3.214324951171875 92.821533203125 2.5 99.90818023681641 2.5 107 C 2.5 114.0918197631836 3.214324951171875 121.178466796875 4.623123168945312 128.0630493164062 C 5.995819091796875 134.7713928222656 8.044113159179688 141.3699035644531 10.71109008789062 147.6753540039062 C 13.32987976074219 153.8668518066406 16.57135009765625 159.8387603759766 20.34547424316406 165.4252014160156 C 24.08418273925781 170.9591979980469 28.37788391113281 176.1632080078125 33.10734558105469 180.8926391601562 C 37.8367919921875 185.6221160888672 43.04078674316406 189.9158172607422 48.57479858398438 193.6545257568359 C 54.16123962402344 197.4286499023438 60.13314819335938 200.6701202392578 66.32464599609375 203.2889099121094 C 72.63008117675781 205.9558868408203 79.22862243652344 208.0041809082031 85.93693542480469 209.3768768310547 C 92.821533203125 210.7856750488281 99.90818023681641 211.5 107 211.5 C 114.0918197631836 211.5 121.178466796875 210.7856750488281 128.0630493164062 209.3768768310547 C 134.7713928222656 208.0041809082031 141.3699035644531 205.9558868408203 147.6753540039062 203.2889099121094 C 153.8668518066406 200.6701202392578 159.8387603759766 197.4286499023438 165.4252014160156 193.6545257568359 C 170.9591979980469 189.9158172607422 176.1632080078125 185.6221160888672 180.8926391601562 180.8926391601562 C 185.6221160888672 176.1632080078125 189.9158172607422 170.9591979980469 193.6545257568359 165.4252014160156 C 197.4286499023438 159.8387603759766 200.6701202392578 153.8668518066406 203.2889099121094 147.6753540039062 C 205.9558868408203 141.3699035644531 208.0041809082031 134.7713928222656 209.3768768310547 128.0630493164062 C 210.7856750488281 121.178466796875 211.5 114.0918197631836 211.5 107 C 211.5 99.90818023681641 210.7856750488281 92.821533203125 209.3768768310547 85.93693542480469 C 208.0041809082031 79.22862243652344 205.9558868408203 72.63008117675781 203.2889099121094 66.32464599609375 C 200.6701202392578 60.13314819335938 197.4286499023438 54.16123962402344 193.6545257568359 48.57479858398438 C 189.9158172607422 43.04078674316406 185.6221160888672 37.8367919921875 180.8926391601562 33.10734558105469 C 176.1632080078125 28.37788391113281 170.9591979980469 24.08418273925781 165.4252014160156 20.34547424316406 C 159.8387603759766 16.57135009765625 153.8668518066406 13.32987976074219 147.6753540039062 10.71109008789062 C 141.3699035644531 8.044113159179688 134.7713928222656 5.995819091796875 128.0630493164062 4.623123168945312 C 121.178466796875 3.214324951171875 114.0918197631836 2.5 107 2.5 M 107 0 C 166.0944671630859 0 214 47.90553283691406 214 107 C 214 166.0944671630859 166.0944671630859 214 107 214 C 47.90553283691406 214 0 166.0944671630859 0 107 C 0 47.90553283691406 47.90553283691406 0 107 0 Z" stroke="none" fill="#116dd8"></path></g><path id="Path_787" data-name="Path 787" d="M24.6,12.1,13.9,22.8V65.211l10.7,10.7H67.015v21.4H46.007v-10.7H13.9v21.4l10.7,10.7H88.419l10.7-10.7V65.211l-10.7-10.7H46.007V33.1h21.4v10.7H99.518V22.4l-10.7-10.7H24.6Z" transform="translate(63.1 54.3)" fill="#fff"></path></svg>