<svg xmlns="http://www.w3.org/2000/svg" xmlns:xlink="http://www.w3.org/1999/xlink" id="Component_57_8" data-name="Component 57 &#x2013; 8" width="240" height="240" viewBox="0 0 240 240"><defs><clipPath id="clip-path"><rect id="Rectangle_334" data-name="Rectangle 334" width="164.441" height="168.362" fill="none"></rect></clipPath></defs><circle id="Ellipse_8" data-name="Ellipse 8" cx="120" cy="120" r="120" fill="#eef2f7"></circle><g id="Path_779" data-name="Path 779" transform="translate(10 10)" fill="#f00500"><path d="M 110 218 C 102.671028137207 218 95.34726715087891 217.2617645263672 88.23211669921875 215.8058013916016 C 81.29882049560547 214.3870239257812 74.47902679443359 212.2700653076172 67.96215057373047 209.5136413574219 C 61.56311798095703 206.8070831298828 55.39111709594727 203.45703125 49.61755752563477 199.5564727783203 C 43.89835357666016 195.6926422119141 38.52017593383789 191.2552642822266 33.63246917724609 186.3675231933594 C 28.74473571777344 181.4798278808594 24.30735206604004 176.1016540527344 20.44352912902832 170.3824462890625 C 16.54297065734863 164.60888671875 13.19291210174561 158.4368896484375 10.48635292053223 152.0378570556641 C 7.729941368103027 145.5209655761719 5.612970352172852 138.701171875 4.194205760955811 131.7678833007812 C 2.738235235214233 124.6527328491211 2 117.328971862793 2 110 C 2 102.671028137207 2.738235235214233 95.34726715087891 4.194205760955811 88.23211669921875 C 5.612970352172852 81.29882049560547 7.729941368103027 74.47902679443359 10.48635292053223 67.96215057373047 C 13.19291210174561 61.56311798095703 16.54297065734863 55.39111709594727 20.44352912902832 49.61755752563477 C 24.30735206604004 43.89835357666016 28.74473571777344 38.52017593383789 33.63246917724609 33.63246917724609 C 38.52017593383789 28.74473571777344 43.89835357666016 24.30735206604004 49.61755752563477 20.44352912902832 C 55.39111709594727 16.54297065734863 61.56311798095703 13.19291210174561 67.96215057373047 10.48635292053223 C 74.47902679443359 7.729941368103027 81.29882049560547 5.612970352172852 88.23211669921875 4.194205760955811 C 95.34726715087891 2.738235235214233 102.671028137207 2 110 2 C 117.328971862793 2 124.6527328491211 2.738235235214233 131.7678833007812 4.194205760955811 C 138.701171875 5.612970352172852 145.5209655761719 7.729941368103027 152.0378570556641 10.48635292053223 C 158.4368896484375 13.19291210174561 164.60888671875 16.54297065734863 170.3824462890625 20.44352912902832 C 176.1016540527344 24.30735206604004 181.4798278808594 28.74473571777344 186.3675231933594 33.63246917724609 C 191.2552642822266 38.52017593383789 195.6926422119141 43.89835357666016 199.5564727783203 49.61755752563477 C 203.45703125 55.39111709594727 206.8070831298828 61.56311798095703 209.5136413574219 67.96215057373047 C 212.2700653076172 74.47902679443359 214.3870239257812 81.29882049560547 215.8058013916016 88.23211669921875 C 217.2617645263672 95.34726715087891 218 102.671028137207 218 110 C 218 117.328971862793 217.2617645263672 124.6527328491211 215.8058013916016 131.7678833007812 C 214.3870239257812 138.701171875 212.2700653076172 145.5209655761719 209.5136413574219 152.0378570556641 C 206.8070831298828 158.4368896484375 203.45703125 164.60888671875 199.5564727783203 170.3824462890625 C 195.6926422119141 176.1016540527344 191.2552642822266 181.4798278808594 186.3675231933594 186.3675231933594 C 181.4798278808594 191.2552642822266 176.1016540527344 195.6926422119141 170.3824462890625 199.5564727783203 C 164.60888671875 203.45703125 158.4368896484375 206.8070831298828 152.0378570556641 209.5136413574219 C 145.5209655761719 212.2700653076172 138.701171875 214.3870239257812 131.7678833007812 215.8058013916016 C 124.6527328491211 217.2617645263672 117.328971862793 218 110 218 Z" stroke="none"></path><path d="M 110 4 C 102.8054351806641 4 95.61656188964844 4.724563598632812 88.633056640625 6.153594970703125 C 81.82913208007812 7.545913696289062 75.13653564453125 9.623382568359375 68.74125671386719 12.328369140625 C 62.461181640625 14.984619140625 56.40371704101562 18.27253723144531 50.7371826171875 22.10078430175781 C 45.12344360351562 25.89334106445312 39.84440612792969 30.24896240234375 35.04669189453125 35.04669189453125 C 30.24896240234375 39.84440612792969 25.89334106445312 45.12344360351562 22.10078430175781 50.7371826171875 C 18.27253723144531 56.40371704101562 14.984619140625 62.461181640625 12.328369140625 68.74125671386719 C 9.623382568359375 75.13653564453125 7.545913696289062 81.82913208007812 6.153594970703125 88.633056640625 C 4.724563598632812 95.61656188964844 4 102.8054351806641 4 110 C 4 117.1945648193359 4.724563598632812 124.3834381103516 6.153594970703125 131.366943359375 C 7.545913696289062 138.1708679199219 9.623382568359375 144.8634643554688 12.328369140625 151.2587585449219 C 14.984619140625 157.538818359375 18.27253723144531 163.5962829589844 22.10078430175781 169.2628173828125 C 25.89334106445312 174.8765563964844 30.24896240234375 180.1555938720703 35.04669189453125 184.9533081054688 C 39.84440612792969 189.7510375976562 45.12344360351562 194.1066589355469 50.7371826171875 197.8992156982422 C 56.40371704101562 201.7274627685547 62.461181640625 205.015380859375 68.74125671386719 207.671630859375 C 75.13653564453125 210.3766174316406 81.82913208007812 212.4541015625 88.633056640625 213.8464050292969 C 95.61656188964844 215.2754364013672 102.8054351806641 216 110 216 C 117.1945648193359 216 124.3834381103516 215.2754364013672 131.366943359375 213.8464050292969 C 138.1708679199219 212.4541015625 144.8634643554688 210.3766174316406 151.2587585449219 207.671630859375 C 157.538818359375 205.015380859375 163.5962829589844 201.7274627685547 169.2628173828125 197.8992156982422 C 174.8765563964844 194.1066589355469 180.1555938720703 189.7510375976562 184.9533081054688 184.9533081054688 C 189.7510375976562 180.1555938720703 194.1066589355469 174.8765563964844 197.8992156982422 169.2628173828125 C 201.7274627685547 163.5962829589844 205.015380859375 157.538818359375 207.671630859375 151.2587585449219 C 210.3766174316406 144.8634643554688 212.4541015625 138.1708679199219 213.8464050292969 131.366943359375 C 215.2754364013672 124.3834381103516 216 117.1945648193359 216 110 C 216 102.8054351806641 215.2754364013672 95.61656188964844 213.8464050292969 88.633056640625 C 212.4541015625 81.82913208007812 210.3766174316406 75.13653564453125 207.671630859375 68.74125671386719 C 205.015380859375 62.461181640625 201.7274627685547 56.40371704101562 197.8992156982422 50.7371826171875 C 194.1066589355469 45.12344360351562 189.7510375976562 39.84440612792969 184.9533081054688 35.04669189453125 C 180.1555938720703 30.24896240234375 174.8765563964844 25.89334106445312 169.2628173828125 22.10078430175781 C 163.5962829589844 18.27253723144531 157.538818359375 14.984619140625 151.2587585449219 12.328369140625 C 144.8634643554688 9.623382568359375 138.1708679199219 7.545913696289062 131.366943359375 6.153594970703125 C 124.3834381103516 4.724563598632812 117.1945648193359 4 110 4 M 110 0 C 170.7513122558594 0 220 49.24868774414062 220 110 C 220 170.7513122558594 170.7513122558594 220 110 220 C 49.24868774414062 220 0 170.7513122558594 0 110 C 0 49.24868774414062 49.24868774414062 0 110 0 Z" stroke="none" fill="#d00a05"></path></g><g id="Group_661" data-name="Group 661" transform="translate(37.779 51)"><g id="Group_660" data-name="Group 660" clip-path="url(#clip-path)"><path id="Path_763" data-name="Path 763" d="M247.877,30.546a106.875,106.875,0,0,0-11.686,14.033l-1.1-.363a79.146,79.146,0,0,0-19.579-3.839c-2-.156-9.457-.156-11.891,0a68.433,68.433,0,0,0-19.4,3.865c-.256.1-.487.182-.718.259A105.212,105.212,0,0,0,171.43,30.572a82.993,82.993,0,0,1,68.426-3.657c2.383.908,4.716,1.971,7,3.113Z" transform="translate(-127.497 -15.725)" fill="#f00500"></path><path id="Path_764" data-name="Path 764" d="M160.052,226.031A81.255,81.255,0,0,1,145.7,251.5a89.722,89.722,0,0,1-11.225,11.128,82.424,82.424,0,0,1-32.368,16.16,83.836,83.836,0,0,1-39.774,0,82.253,82.253,0,0,1-32.368-16.16A89.722,89.722,0,0,1,18.741,251.5,80.814,80.814,0,0,1,4.39,173.478a85.237,85.237,0,0,1,6.535-14.267c1.2-2.075,2.691-4.41,3.408-5.369,2.46,10.713,5.484,20.129,6.612,23.527a5.879,5.879,0,0,1-.282.571,94.941,94.941,0,0,0-9.969,36.6c0,.156-.026.337-.026.493a22.854,22.854,0,0,0,.513,7.911c1.922,7.393,7.842,15.538,17.119,23.527,15.2,13.073,35.8,22.515,51.409,23.6,16.274,1.115,40.287-8.508,56.278-22.567a80.89,80.89,0,0,0,7.073-7.185,39.327,39.327,0,0,0,3.767-5.084c-.051,0,0-.052.1-.1.077-.052.154-.13.1-.182-.026-.026.026-.1.1-.13s.128-.078.1-.13,0-.1.1-.13a.116.116,0,0,0,.077-.156c-.026-.052,0-.1.051-.1s.1-.078.1-.13.051-.13.1-.13a.111.111,0,0,0,.1-.1,2.723,2.723,0,0,1,.333-.6c.384-.6,1.922-3.372,2.127-3.839a36.1,36.1,0,0,0,2.819-9.312,26.812,26.812,0,0,0,.231-4.669c-.026-.1-.026-.285-.051-.571-.051-.519-.077-1.3-.128-2.075-.051-1.167-.154-2.8-.231-3.606a76.756,76.756,0,0,0-9.713-31.594,9.033,9.033,0,0,1-.564-1.089,1.535,1.535,0,0,1-.1-.208c.794-2.412,4.049-12.5,6.638-24.046l.051.052.384.519c.666.908,2.435,3.606,3.229,4.9a80.472,80.472,0,0,1,7.253,68.22" transform="translate(0 -112.822)" fill="#f00500"></path><path id="Path_765" data-name="Path 765" d="M413.741,291.876a8.689,8.689,0,0,1-2.486,2.568c-3.537,2.62-9.867,5.058-16.3,6.225-3.665.674-7.329.778-8.431.233-.718-.363-.82-.648-.564-1.582.538-1.945,2.281-4.072,5-6.07,1.384-1.012,7-4.462,9.61-5.914,4.305-2.386,7.791-3.813,10.149-4.15a5.149,5.149,0,0,1,1.922,0c.461.182.974,1.556,1.179,3.216a42.849,42.849,0,0,1-.077,5.473" transform="translate(-286.953 -209.665)"></path><path id="Path_766" data-name="Path 766" d="M176.647,301.231a2.77,2.77,0,0,1-1.794.778,28.633,28.633,0,0,1-5.049-.13,52.573,52.573,0,0,1-15.4-4.487,19.385,19.385,0,0,1-5.3-3.606l-.718-.752-.077-.986a27.437,27.437,0,0,1,.1-5.369,7.1,7.1,0,0,1,.794-2.283c.205-.259.205-.259,1.128-.259a10.973,10.973,0,0,1,3.613.674c3.152.986,7.842,3.372,13.557,6.848,4.715,2.853,6.484,4.254,7.842,6.174.923,1.193,1.538,2.879,1.307,3.4" transform="translate(-110.238 -210.434)"></path><path id="Path_767" data-name="Path 767" d="M292.146,419.694c0,.078-.308,1.323-.692,2.8s-.692,2.672-.692,2.724a4.335,4.335,0,0,1-.82.026h-.82l-1.128,2.7c-.615,1.479-1.179,2.853-1.256,3.061l-.154.363-.538-.882-.538-.882v-7.185l-.205.052c-.436.1-3.537.519-4.895.649a69.018,69.018,0,0,1-16.837-.363,17.006,17.006,0,0,0-1.691-.208c-.026.026,0,1.686.051,3.735l.077,3.683-.436.674c-.231.363-.461.674-.461.7-.077.078-.333-.337-.923-1.53a17.666,17.666,0,0,1-1.435-3.943l-.179-.752-.794.052-.794.078-.205-.96c-.1-.519-.231-1.323-.282-1.764l-.077-.83-.666-.6c-.384-.337-.769-.674-.846-.726a.572.572,0,0,1-.179-.441v-.311l3.2.026,3.2.026.1.337.1.337,1.1.052c.615.026,2.563.078,4.305.13l3.2.078.82-1.3.846-1.3h1.076l-.026-2.7-.026-2.7-1.41-.623c-4.536-2.023-7.2-4.332-8.2-7.133-.205-.571-.205-.778-.256-3.372-.026-2.568-.026-2.8.154-3.372a3.748,3.748,0,0,1,2.64-2.646c.436-.13,1.589-.13,7.637-.13l7.125.026.794.389a4.465,4.465,0,0,1,1.922,1.53,4.322,4.322,0,0,1,.794,3.061,23.111,23.111,0,0,1-.384,4.98,10.808,10.808,0,0,1-1.486,2.983,13.654,13.654,0,0,1-5.741,4.072l-.615.233.026,2.724.026,2.724.564.052.564.052.769,1.167.743,1.167h3.434c1.9,0,3.562.026,3.716.052.256.052.308.026.564-.415l.308-.467h2.947c2.2-.1,2.87-.052,2.87.026" transform="translate(-189.449 -292.789)"></path><path id="Path_768" data-name="Path 768" d="M311.413,511.642c-.487.285-.82.415-.9.363-.077-.026-.436-.337-.82-.623l-.692-.571-.718.778c-1.563,1.712-1.615,1.79-2.076,1.816-.718.078-.871-.052-1.743-1.375-.461-.674-.82-1.245-.82-1.245s-.333-.052-.718-.078l-.718-.078-.333.7-.333.7-.589-.182a12.379,12.379,0,0,1-1.358-.545l-.769-.389v-1.479l6.817.026,6.817.026.026.7c.026.83.051.8-1.076,1.453" transform="translate(-222.247 -377.293)"></path><path id="Path_769" data-name="Path 769" d="M183.918,360.462c-.026-.1-.026-.285-.051-.571a54.029,54.029,0,0,0-40,12.529s-5.254-24.383-29.856-24.383S80.28,372.42,80.28,372.42c-13.788-15.019-32.24-13.929-38.9-12.944,0,.156-.026.337-.026.493a22.854,22.854,0,0,0,.513,7.911c1.922,7.393,7.842,15.538,17.119,23.527,15.2,13.073,35.8,22.515,51.409,23.6,16.274,1.115,40.287-8.508,56.278-22.567a80.892,80.892,0,0,0,7.073-7.185,39.326,39.326,0,0,0,3.767-5.084c-.051,0,0-.052.1-.1.077-.052.154-.13.1-.182-.026-.026.026-.1.1-.13s.128-.078.1-.13,0-.1.1-.13a.116.116,0,0,0,.077-.156c-.026-.052,0-.1.051-.1s.1-.078.1-.13.051-.13.1-.13a.111.111,0,0,0,.1-.1,2.724,2.724,0,0,1,.333-.6c.384-.6,1.922-3.372,2.127-3.839a36.1,36.1,0,0,0,2.819-9.312,31.807,31.807,0,0,0,.179-4.669m-64.069,31.646c-.487.285-.82.415-.9.363-.077-.026-.436-.337-.82-.623l-.692-.571-.718.778c-1.563,1.712-1.615,1.79-2.076,1.816-.718.078-.871-.052-1.743-1.375-.461-.674-.82-1.245-.82-1.245s-.333-.052-.718-.078l-.718-.078-.333.7-.333.7-.589-.182a12.384,12.384,0,0,1-1.358-.545l-.769-.389V389.9l6.817.026,6.817.026.026.7c.026.83.051.8-1.076,1.453m12.814-4.669c-.384,1.479-.692,2.672-.692,2.724a4.335,4.335,0,0,1-.82.026h-.82l-1.1,2.724c-.615,1.479-1.179,2.853-1.256,3.061l-.154.363-.538-.882-.538-.882v-7.185l-.205.052c-.436.1-3.537.519-4.895.648a69.018,69.018,0,0,1-16.837-.363,17,17,0,0,0-1.691-.208c-.026.026,0,1.686.051,3.735l.077,3.683-.436.674c-.231.363-.461.674-.461.7-.077.078-.333-.337-.923-1.53a17.666,17.666,0,0,1-1.435-3.943l-.179-.752-.794.052-.794.078-.205-.96c-.1-.519-.231-1.323-.282-1.764l-.077-.83-.666-.6c-.384-.337-.769-.674-.846-.726a.572.572,0,0,1-.179-.441v-.311l3.2.026,3.2.026.1.337.1.337,1.1.052c.615.026,2.563.078,4.305.13l3.2.078.82-1.3.846-1.3h1.076l-.026-2.7-.026-2.7-1.41-.623c-4.536-2.023-7.2-4.332-8.2-7.133-.205-.571-.205-.778-.256-3.372-.026-2.568-.026-2.8.154-3.372a3.748,3.748,0,0,1,2.64-2.646c.436-.13,1.589-.13,7.637-.13l7.124.026.794.389a4.466,4.466,0,0,1,1.922,1.53,4.324,4.324,0,0,1,.794,3.061,23.108,23.108,0,0,1-.384,4.98,10.808,10.808,0,0,1-1.486,2.983,13.654,13.654,0,0,1-5.741,4.072l-.615.233.026,2.724.026,2.724.564.052.564.052.769,1.167.743,1.167h3.434c1.9,0,3.562.026,3.716.052.256.052.308.026.564-.415l.308-.467h2.947a12.252,12.252,0,0,1,2.947.1,18.055,18.055,0,0,0-.794,2.7" transform="translate(-30.683 -257.759)" fill="#fff"></path><path id="Path_770" data-name="Path 770" d="M183.917,100.057c-.051-1.167-.154-2.8-.231-3.606a76.756,76.756,0,0,0-9.713-31.594,9.037,9.037,0,0,1-.564-1.089,1.536,1.536,0,0,1-.1-.208c.794-2.412,4.049-12.5,6.638-24.046,3.511-15.667,5.741-33.981-1.076-39.48,0,0-11.789-.882-27.575,14.785a106.873,106.873,0,0,0-11.686,14.033l-1.1-.363a79.146,79.146,0,0,0-19.579-3.839c-2-.156-9.457-.156-11.891,0a68.432,68.432,0,0,0-19.4,3.865c-.256.1-.487.182-.718.259A105.211,105.211,0,0,0,74.846,14.847C58.419-.9,46.194.009,46.194.009c-7.227,5.681-4.767,24.824-1.025,41.01,2.46,10.713,5.484,20.129,6.612,23.527a5.879,5.879,0,0,1-.282.571,94.941,94.941,0,0,0-9.969,36.6c6.689-.986,25.115-2.1,38.928,12.944,0,0,9.123-24.383,33.726-24.383s29.856,24.383,29.856,24.383a54.149,54.149,0,0,1,40-12.529c-.026-.519-.077-1.3-.128-2.075M56.625,54.767S47.04,30.514,49.5,16.662a13.455,13.455,0,0,1,2.383-5.94s10.866,1.089,28.4,20.8a50.009,50.009,0,0,0-7.791,5.11.089.089,0,0,1-.051.026A62.114,62.114,0,0,0,56.625,54.767M97.3,90.8a2.77,2.77,0,0,1-1.794.778,28.636,28.636,0,0,1-5.049-.13,52.573,52.573,0,0,1-15.4-4.487,19.387,19.387,0,0,1-5.3-3.606l-.718-.752-.077-.986a27.435,27.435,0,0,1,.1-5.369,7.1,7.1,0,0,1,.794-2.283c.205-.259.205-.259,1.128-.259a10.972,10.972,0,0,1,3.614.674c3.152.986,7.842,3.372,13.557,6.848,4.715,2.853,6.484,4.254,7.842,6.174.923,1.193,1.538,2.879,1.307,3.4m60.379-8.586a8.689,8.689,0,0,1-2.486,2.568c-3.537,2.62-9.867,5.058-16.3,6.225-3.665.674-7.329.778-8.431.233-.718-.363-.82-.648-.564-1.582.538-1.945,2.281-4.072,5-6.07,1.384-1.012,7-4.462,9.61-5.914,4.305-2.386,7.791-3.813,10.149-4.15a5.151,5.151,0,0,1,1.922,0c.461.182.974,1.556,1.179,3.216a42.846,42.846,0,0,1-.077,5.473M153.42,36.636l-.051-.026a47.794,47.794,0,0,0-7.535-5.11c16.94-19.714,27.422-20.8,27.422-20.8a14.17,14.17,0,0,1,2.307,5.94c2.383,13.852-6.868,38.131-6.868,38.131A61.594,61.594,0,0,0,153.42,36.636" transform="translate(-30.887 0)" fill="#ffa409"></path><path id="Path_771" data-name="Path 771" d="M478.284,47.177c-2-.259-11.456-.311-22.168,20l-.051-.026a47.794,47.794,0,0,0-7.535-5.11c16.94-19.714,27.422-20.8,27.422-20.8a13.857,13.857,0,0,1,2.332,5.94" transform="translate(-333.582 -30.54)" fill="#ff9300"></path><path id="Path_772" data-name="Path 772" d="M493.43,102.121a61.351,61.351,0,0,0-15.3-18.132c10.712-20.31,20.143-20.259,22.168-20,2.383,13.878-6.868,38.131-6.868,38.131" transform="translate(-355.597 -47.353)" fill="#ff8300"></path><path id="Path_773" data-name="Path 773" d="M565.014,64.215l-.384-.078Z" transform="translate(-419.929 -47.5)" fill="#ff8300"></path><path id="Path_774" data-name="Path 774" d="M103.334,62.04a50.011,50.011,0,0,0-7.791,5.11.089.089,0,0,1-.051.026c-11.1-20.336-20.861-20.259-22.962-20a13.455,13.455,0,0,1,2.383-5.94c.026,0,10.892,1.089,28.421,20.8" transform="translate(-53.942 -30.54)" fill="#ff9300"></path><path id="Path_775" data-name="Path 775" d="M94.42,83.989a61.925,61.925,0,0,0-15.838,18.132S69,77.867,71.458,63.99c2.076-.259,11.866-.311,22.962,20" transform="translate(-52.845 -47.353)" fill="#ff8300"></path><path id="Path_776" data-name="Path 776" d="M71.44,64.137c-.128.026-.282.052-.41.078Z" transform="translate(-52.827 -47.5)" fill="#ff8300"></path><path id="Path_777" data-name="Path 777" d="M415.548,225.887s-8.2.519-7.176-5.966,7.432-7.263,9.226-7,8.97,2.853,7.688,8.3-3.075,4.41-4.1,4.669a40.142,40.142,0,0,1-5.638,0" transform="translate(-303.651 -157.657)" fill="#fff"></path><path id="Path_778" data-name="Path 778" d="M179.548,225.887s-8.2.519-7.176-5.966,7.432-7.263,9.226-7,8.97,2.853,7.688,8.3-3.075,4.41-4.1,4.669a40.141,40.141,0,0,1-5.638,0" transform="translate(-128.132 -157.657)" fill="#fff"></path></g></g><g id="Ellipse_12" data-name="Ellipse 12" transform="translate(13 13)" fill="none" stroke="#ad0803" stroke-width="2.5"><circle cx="107" cy="107" r="107" stroke="none"></circle><circle cx="107" cy="107" r="105.75" fill="none"></circle></g></svg>