<svg xmlns="http://www.w3.org/2000/svg" xmlns:xlink="http://www.w3.org/1999/xlink" id="Doge" width="240" height="240" viewBox="0 0 240 240"><defs><clipPath id="clip-path"><rect id="Rectangle_32" data-name="Rectangle 32" width="220" height="220" fill="none"></rect></clipPath><clipPath id="clip-path-3"><rect id="Rectangle_30" data-name="Rectangle 30" width="122.298" height="123.769" fill="none"></rect></clipPath></defs><circle id="Ellipse_8" data-name="Ellipse 8" cx="120" cy="120" r="120" fill="#eef2f7"></circle><g id="Group_42" data-name="Group 42" transform="translate(10 10.234)"><g id="Group_41" data-name="Group 41" transform="translate(0 -0.234)" clip-path="url(#clip-path)"><g id="Group_40" data-name="Group 40"><g id="Group_39" data-name="Group 39" clip-path="url(#clip-path)"><path id="Path_98" data-name="Path 98" d="M109.961,0A109.961,109.961,0,1,1,0,109.961,109.961,109.961,0,0,1,109.961,0" transform="translate(0 0.077)" fill="#988430"></path><path id="Path_99" data-name="Path 99" d="M136.469,30.03A106.439,106.439,0,1,1,30.03,136.469,106.439,106.439,0,0,1,136.469,30.03" transform="translate(-26.508 -26.43)" fill="#7a6a2a"></path><path id="Path_100" data-name="Path 100" d="M153.346,49.15a104.2,104.2,0,1,1-104.2,104.2,104.2,104.2,0,0,1,104.2-104.2" transform="translate(-43.385 -43.308)" fill="#ba9f33"></path><path id="Path_101" data-name="Path 101" d="M164.568,732.947c-.623-.569-1.281-1.139-1.886-1.708s-1.227-1.139-1.85-1.708l-1.851-1.759c-.3-.3-.623-.569-.925-.873-.3-.266-.658-.569-.961-.836-2.456-2.331-4.926-4.661-7.348-6.993,2.509,2.3,4.965,4.574,7.474,6.9l.871.873c.3.3.623.569.925.872l1.85,1.708c.623.569,1.228,1.139,1.851,1.759s1.228,1.192,1.851,1.759Zm-32.6-.352s8.932.924,13.292,1.547c4.038.57,16.672,2.509,16.672,2.509Zm0,0c2.509.213,5.018.48,7.527.747,1.281.124,2.509.266,3.737.391l1.885.215c.623.088,1.228.177,1.851.266l7.474,1.192,3.736.623c1.228.213,2.456.446,3.737.659-1.228-.124-2.509-.3-3.737-.481l-3.736-.534-7.474-1.1c-.623-.089-1.228-.215-1.851-.3l-1.886-.217c-1.228-.124-2.509-.3-3.737-.446-2.509-.3-5.018-.623-7.527-1.013Zm29.074,6.383s-9.537,2.421-12.758,3.346c-3.167.872-12.758,3.79-12.758,3.79l25.515-7.135Z" transform="translate(-116.491 -634.651)" fill="#cfb66c"></path><path id="Path_102" data-name="Path 102" d="M188.373,888.8c-2.117.623-4.223,1.228-6.37,1.8l-6.37,1.708c-2.117.623-4.223,1.228-6.334,1.851l-3.167.872c-1.05.3-2.117.569-3.2.873,1.049-.352,2.117-.712,3.167-1.015l3.167-1.013c2.117-.659,4.223-1.282,6.334-1.94,2.152-.534,4.271-1.1,6.423-1.62,2.046-.516,4.2-1.031,6.353-1.512Zm-24.18,13.008c1.049-.392,13.148-6.031,15.96-7.348,1.408-.659,5.5-2.111,5.5-2.111Z" transform="translate(-143.82 -784.474)" fill="#cfb66c"></path><path id="Path_103" data-name="Path 103" d="M173.691,929.269c.924-.352,1.8-.782,2.686-1.192l2.633-1.228L184.3,924.3c1.759-.836,3.469-1.759,5.284-2.545.925-.391,1.851-.711,2.775-1.013l1.408-.445c.48-.124.925-.267,1.407-.392-1.759.836-3.611,1.548-5.373,2.366-1.759.873-3.559,1.585-5.374,2.367l-5.373,2.366c-1.8.731-3.563,1.513-5.359,2.26Zm1.173,4.926s10.96-6.423,14.732-8.487c1.975-1.1,8.363-4.271,8.363-4.271Z" transform="translate(-153.318 -811.935)" fill="#cfb66c"></path><path id="Path_104" data-name="Path 104" d="M183.71,945.443c1.85-1.139,3.736-2.3,5.622-3.47l2.815-1.709c.961-.569,1.886-1.1,2.865-1.671.961-.57,1.886-1.139,2.864-1.673a10.248,10.248,0,0,1,1.459-.747l1.494-.747c1.975-.961,3.95-1.94,6.032-2.776-1.886,1.193-3.826,2.207-5.765,3.256-.961.534-1.94,1.015-2.9,1.548s-1.886,1.1-2.865,1.62c-.961.569-1.886,1.1-2.864,1.619l-2.9,1.583-5.854,3.167Zm23.006-11.353s-6.815,5.231-9.021,6.9-8.7,6.37-8.7,6.37Z" transform="translate(-162.162 -823.18)" fill="#cfb66c"></path><path id="Path_105" data-name="Path 105" d="M687.047,759.75l-3.487-6.6,2.028-8.256,14.466-5.587L693.9,726.673l3.043-12.758,5.712-11.424,17.651-2.775,12.97-12.366,28.007,2.117,5.5,29.946-10.587,37.7-6.031,19.52-24.448.925L714.36,769.7l-13.292-5.553Z" transform="translate(-603.384 -606.652)" fill="#e2cc85"></path><path id="Path_106" data-name="Path 106" d="M473.494,1110.236a20.653,20.653,0,0,1-9.149,1.192c-1.669-2.241-13.358-3.291-13.358-3.291a6.534,6.534,0,0,0-4.04.623c-2.6,1.056-5.053.925-7.348,1.494s-4.574-2.42-6.334-3.042a24.72,24.72,0,0,1-4.092-2.241l-4.926-.481-9.892-4.181-15.716-15.657-4.271,6.686-1.317,8.274,4.751,9.8,12.793,11.654,24.946,6.334,14.786-4.356,18.523-7.829,4.645-4.981Z" transform="translate(-346.948 -957.352)" fill="#f1d789"></path><path id="Path_107" data-name="Path 107" d="M306.4,704.6l3.167-9.59,3.773-6.193,12.151-1.015-3.648,10.641-10.159,18.078,4.217,16.138-7.473,3.736-2.3-3.522-1.85-8.078-.124-9.075Z" transform="translate(-268.484 -607.049)" fill="#f4ecb4"></path><path id="Path_108" data-name="Path 108" d="M324.436,900.147l-2.331-3.256a5.344,5.344,0,0,1-.266-2.9c.352-1.37.3-1.459.124-1.975s-1.673-2.3-1.583-3.826c.088-1.548-.124-2.064,1.013-3.291a4.128,4.128,0,0,0,.836-3.256l1.548.961.352-.534a1.584,1.584,0,0,1,.569,1.139c.124-.961-.392-5.41.782-6.423s3.256,4.75,3.256,4.75l-1.281-8.363-3.292-8.575-5.854-7.829-.352-8.63v-.747a29.042,29.042,0,0,0-3.434,7.389c-.534,2.241.747,4.964.481,8.185-.215,3.2-.481,2.953.3,4.222s2.687,3.879,1.94,5.765c-.658,1.62-2.9.481-2.9.481a4.867,4.867,0,0,1-1.05,1.8,3.984,3.984,0,0,0-.871-1.759c-.036.3-.124.712-.124.712s-.392-1.228-.784-2.776c-.533-2.063-1.1-4.786-1.619-6.245-.214.836-.747,3.38-.747,3.38l.3,3.915,1.459,5.373,1.408,3.519,1.37,4.306,1.19,2.893.961,2.206.836,4.965,4.038,4.269,2.153.962,1.565-.8Z" transform="translate(-272.889 -747.921)" fill="#f3e19d"></path><path id="Path_109" data-name="Path 109" d="M303.936,721.862a33.828,33.828,0,0,0-3.736,9.892,65.42,65.42,0,0,0-1.056,16.975,70.3,70.3,0,0,0,2.367,13.986,77.938,77.938,0,0,0,5.053,11.869l.124-.267a18.747,18.747,0,0,1-1.459-3.648c-.481-1.886-.659-4.127-1.1-5.142a24.544,24.544,0,0,1-1.37-3.132c-.3-1.192-.352-3.078-1.281-4.483a9.088,9.088,0,0,1-1.015-3.559c-.178-2.243.089-4.752-.124-6.815-.392-3.434-.658-5.765-.3-7.563s2.207-6.9,3.346-10.96c.747-2.6.3-4.787,1.671-7.047a19.9,19.9,0,0,0,2.509-5.587c.352-1.246-3.629,5.48-3.629,5.48Z" transform="translate(-263.902 -632.143)" fill="#f2e8b0"></path><path id="Path_110" data-name="Path 110" d="M384.689,747.42a5.817,5.817,0,0,0-2.206,1.228,32.088,32.088,0,0,0-1.975,2.633c-.961,1.263-1.015,2.3-1.8,3.879-.782,1.548-2.509,3.879-2.722,4.715s-.569,4.75-1.013,6.6a8.885,8.885,0,0,0,.445,4.129l1.013-.215a3.2,3.2,0,0,0,1.015,2.207c1.013.871,1.192-2.955,1.192-2.955l3.79-12.793,5.711-3.879.623-3.132-4.075-2.42Z" transform="translate(-330.9 -659.676)" fill="#f5eec0"></path><path id="Path_111" data-name="Path 111" d="M405.355,785.343a9.567,9.567,0,0,0-4,1.139c-.534.391-.747.711-1.316,1.192a8.7,8.7,0,0,0-2.633,2.815,18.667,18.667,0,0,0-1.62,6.12c-.178,1.37-.178,2.633-.3,3.737a15.562,15.562,0,0,0-.3,3.519c.178,1.708,1.94,2.6,2.111,4.537l3.648-1.85,3.434-13.541,7.3-4.574-4.129-4.626-2.187,1.525Z" transform="translate(-348.791 -691.798)" fill="#e6db9d"></path><path id="Path_112" data-name="Path 112" d="M318.171,1250.274c.015-.134.03-.267.046-.4.533-4.574.623-8.042,1.013-10.213.569-3.078.961-4.223.871-5.374a24.169,24.169,0,0,1-.088-4.626c.266-1.886,2.117-4.128,2.064-5.676a4.808,4.808,0,0,0-1.193-2.775c-.534-.747-.961-1.37-.961-1.37s3.648-2.509,3.613-12.616a.971.971,0,0,1,.214.089l1.8,5.106,1.228,1.494,4.715,8.79,6.068,5.891,8.967,6.031,5.623,6.119.569,16.317-7.348,9.537-1.2,2.179a104.515,104.515,0,0,1-26-18.5Z" transform="translate(-280.851 -1065.545)" fill="#e5cb7a"></path><path id="Path_113" data-name="Path 113" d="M509.56,1350.774a5.026,5.026,0,0,1,1.8-3.345,2,2,0,0,1,.392,1.192,10.609,10.609,0,0,1,7.206-4.839c4.787-.871,5.943-4.359,5.943-4.359l10.159-9.234,11.619-10.693,14.128-4.965,6.6-1.62a3.649,3.649,0,0,1-.124,1.548,32.133,32.133,0,0,0,6.778-1.708c1.139-.445,2.207-.623,2.776-.035.836.782.961,2.633,1.013,3.736,1.37-.3,2.953-1.619,4.223-1.494,2.029.213,3.826,2.6,5.89,2.6,2.722,0,3.949-1.673,5.854-2.99,1.139-.782,2.775-1.759,3.7-2.42,2.206-1.62,25.551-8.755,25.551-8.755l8.185.534,1.317,8.79-.7,22.977c-.087.083-.174.17-.262.253l-37.214,19.436-51.585,7.908a103.463,103.463,0,0,1-32.978-11.343l-.264-1.173Z" transform="translate(-449.793 -1150.436)" fill="#d8c173"></path><path id="Path_114" data-name="Path 114" d="M344.85,1574.574c.733-1.533,1.392-2.815,1.508-3.274.091.924.259,2.952.6,5.108q-1.064-.9-2.105-1.836Z" transform="translate(-304.402 -1386.922)" fill="#f1d789"></path><path id="Path_115" data-name="Path 115" d="M666.058,1465.552l6.672-1.855.569.178s.3.178.3.782c.836-.48,1.548-.392,2.064-.711.266.569.532,2.455,1.708,2.686,1.227.267,2.544-.534,3.879-1.547a25.891,25.891,0,0,1,3.949-2.9,21.231,21.231,0,0,1,1.1,2.366c1.494-1.192,4.092-6.031,7.793-5.943a14.043,14.043,0,0,1,5.14-6.209c3.434-2.331,5.587-2.509,8.274-2.3a14.148,14.148,0,0,1,3.879-3.469,3.573,3.573,0,0,0,3.2.214c1.548-.711,3.291-3.469,5.587-3.825a5.4,5.4,0,0,1,3.559.747s6.686-6.638,11.3-8.844c-.178-.534-.534-2.544,4.875-6.993.3.267.089,1.015.3,1.056a12.562,12.562,0,0,0,3.078-1.851,25.031,25.031,0,0,1,6.031-3.611c2.815-.836,5.8.872,5.8.872a2.679,2.679,0,0,1,.836-.392,11.034,11.034,0,0,0,1.619-.352c-.035.925.481,2.509,0,3.879a8.65,8.65,0,0,0,1.759.747,7.954,7.954,0,0,1-2.063,3.132c.924.445,1.049.961,2.366,1.408a26.091,26.091,0,0,0-1.8,2.815c-.392.836-1.8,4.306-2.421,5.622-.658,1.317-1.547,3.737-1.975,4.222a33.806,33.806,0,0,1-3.167,3.557c1.055-.392,5.374-1.708,7.206-2.206-.545.8-3.31,4.9-5.968,8.846a104.406,104.406,0,0,1-85.471,9.895Z" transform="translate(-587.928 -1256.276)" fill="#e0cd81"></path><path id="Path_116" data-name="Path 116" d="M471.83,712.727a6.437,6.437,0,0,0-1.85.214c-.3.214,1.548.659,2.117.873a4.862,4.862,0,0,1,2.117,1.975c.3.747,11.12,5.106,11.12,5.106l7.651-.392,2.638-3.644-5.018-4.395,3.519-10.373-4.661.747-11.21,6.686-5.623,2.153Z" transform="translate(-414.826 -619.663)" fill="#dfc57c"></path><path id="Path_117" data-name="Path 117" d="M629.073,795.941a1.2,1.2,0,0,0,1.056.569c1.583,0,3.041.392,3.647,1.192,1.015,1.282,3.826,5.374,3.826,5.374l6.726,2.42.434-7.92-7.348-5.106-8.363,3.078v.392h.023Z" transform="translate(-555.267 -699.442)" fill="#e5cc7c"></path><path id="Path_118" data-name="Path 118" d="M587.529,832.744a7.314,7.314,0,0,0,2.775-.481c1.548-.57,4.092-1.8,5.2-1.316,1.547.658,1.227,2.722,2.9,4.574,1.013,1.139,2.864,1.1,3.914,2.332s4.661.658,4.661.658l1.37,7.389-5.5,7.047-1.8,8.754h-7.434l-6.791-2.694-3.345-8.093,1.673-8.185Z" transform="translate(-515.042 -733.31)" fill="#d2c281"></path><path id="Path_119" data-name="Path 119" d="M739.135,769.688a2.015,2.015,0,0,0,.569.089,1.473,1.473,0,0,0-.481,1.583c.178,1.015.747,2.3.268,3.078a3.846,3.846,0,0,1,.836,1.459c.3.873.392,1.673,2.366,1.8a4.158,4.158,0,0,0-.782.623,13,13,0,0,1,2.064,2.294,16.984,16.984,0,0,0,2.6-.617l.392.267.836-.352s-.782-.3-.213-2.206c.534-1.673,1.015-1.583,1.056-1.708a17.485,17.485,0,0,0,.392-2.6,31.193,31.193,0,0,0,.48-3.736l-.569-6.21-3.2-1.94-2.6-2.514-2.456,4.626-1.618,1.613-.124,4Z" transform="translate(-652.268 -669.898)" fill="#e2c270"></path><path id="Path_120" data-name="Path 120" d="M806.28,547.664a21.748,21.748,0,0,1,.784,2.864,2.759,2.759,0,0,0,.124-.747s.445,2.456.532,3.471c.178-.036.352-.089.392.088a14.771,14.771,0,0,1,.352,3.256,8.872,8.872,0,0,1,2.989-2.989,5.227,5.227,0,0,1,2.421-.962c1.37-.035,2.366.873,4,.873,3.949,0,7.527-2.9,10.16-3.79,1.939-.659,3.611-1.139,4.786-2.207a12.507,12.507,0,0,0,2.509-3.132c1.228-2.111,2.509-3.949,3.791-4.18a7.943,7.943,0,0,1-1.759.124s.392-.392,1.056-.925a4.1,4.1,0,0,1,2.6-1.192c2.029,0,3.043.3,4.181.3a5.688,5.688,0,0,0,1.8-.3,7.162,7.162,0,0,0,3.879.836c2.687.035,4.484.266,5.89.392s6.12-.392,7.473-.352a6.55,6.55,0,0,1,2.545.623l-4.36-12.668L846.76,513.36l-9.324,6.6L823.094,534.3l-13.878,5.142-2.9,3.256v4.964Z" transform="translate(-711.71 -453.07)" fill="#ccb360"></path><path id="Path_121" data-name="Path 121" d="M1028.507,568.8s.392-.391,1.049-.924a4.09,4.09,0,0,1,2.6-1.193c2.028,0,3.043.3,4.181.3a5.664,5.664,0,0,0,1.8-.3,7.174,7.174,0,0,0,3.879.835c2.687.035,4.484.266,5.89.391s6.12-.391,7.473-.352a6.515,6.515,0,0,1,2.544.623l-1.975-5.712-2.294-4.359-6.548-7.171-7.918-4.661c-.035-.035-2.722-.747-2.722-.747l-7.117,4.306-6.458,16.708-.124,3.519,4.18,1.975c1.05-1.759,2.207-3.167,3.292-3.345-.979.107-1.726.107-1.726.107Z" transform="translate(-902.798 -481.466)" fill="#d5b457"></path><path id="Path_122" data-name="Path 122" d="M880.92,735.484c-.623.035-1.138-.089-1.281-.534-.534-1.494-.961-1.708-1.408-1.708s-1.05.961-1.407,1.049-.782-1.1-.782-1.1l-.392-.178a23.844,23.844,0,0,0-3.914,3.256c-1.619,1.762-4.271,4.751-5.462,5.284s-5.285.712-6.686,1.015a8.664,8.664,0,0,0-3.167,1.548c-.214.231.624.48.748.711.124.214-1.371.124-1.5.352a5.748,5.748,0,0,0,.57,1.708,2.9,2.9,0,0,1,1.227-.3c1.37-.035,2.367.873,4,.873,3.95,0,7.527-2.9,10.16-3.791,1.94-.658,3.613-1.139,4.787-2.206a12.581,12.581,0,0,0,2.509-3.132,22.268,22.268,0,0,1,1.994-2.847Z" transform="translate(-755.3 -646.956)" fill="#d2b257"></path><path id="Path_123" data-name="Path 123" d="M403.867,1270.7s-.352-1.317-3.613-4.715c-.925-.961-1.494-1.759-2.117-2.331a28.516,28.516,0,0,0-3.559-2.687c-2.42-1.8-5.053-1.8-7.081-4s-4.391-6.422-6.034-10.73c-1.619-4.306-2.064-5.676-2.064-5.8s.446-.961,1.015-.836.569,1.227.712,1.494a8.816,8.816,0,0,0,.961,1.227,11.692,11.692,0,0,1,2.633,3.826,17.282,17.282,0,0,0-.623-3.078s3.132,1.975,5.8,4.038c2.687,2.064,3.79,2.776,4.574,4.092a63.273,63.273,0,0,0,3.519,5.8c.886,1.015,13.019,4.839,13.019,4.839l5.772,4.3,2.865,6.281-2.243,3.519-4.306.925-6.993-3.132-2.239-3.037Z" transform="translate(-334.899 -1094.112)" fill="#d2b159"></path><path id="Path_124" data-name="Path 124" d="M455.55,1281.648a16.307,16.307,0,0,0,5.018,4.537,48.13,48.13,0,0,0,12.794,4.752,35.819,35.819,0,0,0,7.525,1.139c6.281.088,10.6-1.708,15.961-2.3a76.7,76.7,0,0,0,10.16-1.408,52.255,52.255,0,0,0,11.388-4.223c2.775-1.281,5.32-2.241,7.384-3.469,2.9-1.708,5.018-3.611,7.474-4.18a6.341,6.341,0,0,1-3.043,3.879c1.281-.036,3.043-.124,3.043-.124a57.069,57.069,0,0,0-4.715,3.291c-1.851,1.407-4.306,3.79-6.815,5.373-1.62,1.015-3.381,1.759-4.538,2.367a20.365,20.365,0,0,0-5.8,4.223,2.516,2.516,0,0,1,.712,0,13.867,13.867,0,0,0-4,1.192,5.413,5.413,0,0,0-2.029.178c-.836.266-1.94.873-3.078,1.192a3.875,3.875,0,0,1-2.152.267l.266.534s-2.111-.036-2.815.035c.124.035.089.089.089.089a1.086,1.086,0,0,0-.352.124,3.662,3.662,0,0,1-1.1.48c-.214.035-.392.035-.659.089.089.214.784,1.407,1.1,2.111-.266.178-4.271,3.2-4.271,3.2a3.052,3.052,0,0,1,.3.623c.124.39.178.961.3,1.227.3.534.48.623.48.623s-.48.089-1.317.3a23.142,23.142,0,0,1-2.815.658,11.211,11.211,0,0,1-1.139.089,3.108,3.108,0,0,1-.481,3.612c-1.442,1.725-1.886,1.976-2.331,3.079a4.752,4.752,0,0,0-.712-.446,2.986,2.986,0,0,1-1.37-.961,11.39,11.39,0,0,1-.534,1.673,20.809,20.809,0,0,0-1.227,3.256c-.481-.534-1.37-1.584-2.6-1.37s-2.206,1.886-2.42,2.367c0-.3-.213-.534-.266-.178a13.522,13.522,0,0,1-4.484,7.793c-.035-.836-.035-2.687-.124-3.292-.352.352-.782.872-3.345,1.975-2.509,1.1-2.111,2.206-2.111,2.206a5.517,5.517,0,0,1,1.139-3.613c1.37-1.85,2.206-2.722,2.206-2.864a.793.793,0,0,0-.178-.392c-.178-.178-.534-.392-.534-.534.214-.088,2.331-1.1,2.206-3.2a5.679,5.679,0,0,0-1.494-3.558c-.088-.089.837-.747.712-.961-.089-.124-1.227-.962-1.37-1.407a4.088,4.088,0,0,1,.178-.782,2.221,2.221,0,0,0,.178-.925,7.4,7.4,0,0,0-.712-1.8,9.628,9.628,0,0,0,1.013,0,8.822,8.822,0,0,1-.836-1.672,21.653,21.653,0,0,0-.534-2.206c.3.035,1.05.088,1.05,0,.036-.267-.658-.712-.352-1.056a1.789,1.789,0,0,1,1.013.712,4.069,4.069,0,0,0-1.317-2.117,3.231,3.231,0,0,1,2.6.177,3.491,3.491,0,0,1,1.408,1.494s.623.481,1.585,1.193a17.264,17.264,0,0,0,4.75,2.989,4.928,4.928,0,0,0,2.6.089,3.989,3.989,0,0,0,1.1-.444,2.039,2.039,0,0,1,.392-.178,8.52,8.52,0,0,0-.658-1.1c.3,0,.658.036.658.036s.214-.481-.747-1.407c.213-.214.481-.352.481-.712a2.1,2.1,0,0,1-.961-.658c.177-.124.445-.534.747-.658-.267-.213-.925-1.1-1.228-1.192a5.583,5.583,0,0,0,.836-.392,10.237,10.237,0,0,1-1.975-.712,11.77,11.77,0,0,0-1.619-1.139c-.446-.178-1.228-.266-1.548-.623a4.863,4.863,0,0,0,1.139,0c.266,0,.392.035.48.035-.035-.124-.035-.392.659-.48a3.245,3.245,0,0,0,.961-.3,2.458,2.458,0,0,1-1.407-.747,5.478,5.478,0,0,0-1.8-1.37c-.445-.089-1.281.3-1.8.266a1.621,1.621,0,0,1-1.015-.445s-2.366.214-7.615-2.989a26.844,26.844,0,0,1-6.513-5.231,7.8,7.8,0,0,1-1.227-.57c-1.708-.889-4.075-2.74-4-5.161Z" transform="translate(-402.118 -1126.699)" fill="#c2a44d"></path><path id="Path_125" data-name="Path 125" d="M1009.1,392.607a2.309,2.309,0,0,1,1.056.712c.836.961,1.37,2.775-.534,4.715a3.04,3.04,0,0,0,1.708.266c-.658.784-2.152,2.456-2.241,3.915a1.492,1.492,0,0,0,.658,1.548,5.919,5.919,0,0,0-1.192,3.519,14.258,14.258,0,0,1,1.759-1.673,46.7,46.7,0,0,1,4.36-2.989,2.507,2.507,0,0,0,.124.924s2.294-1.886,4.222-1.049c.871.392.48,1.619.48,1.619a2.035,2.035,0,0,1,2.029.392,37.915,37.915,0,0,1,2.625,3.83,28,28,0,0,1,1.671,2.3,29.023,29.023,0,0,1,2.421,5.106c.035-.925.266-2.366,2.9-1.459a16.156,16.156,0,0,1,8.131,6.686c2.509,3.82,3.131,8.133,4.394,9.775a13.93,13.93,0,0,1,2.687,5.32c.089,1.1-.392,4.661,2.242,14.287.747-2.989,1.886-9.626,1.886-9.626l.623-5.854.712-18.113L1032.9,401.04l-14.786-10.73-9.626.925.6,1.37Z" transform="translate(-890.202 -344.452)" fill="#caa13e"></path><path id="Path_126" data-name="Path 126" d="M1129.577,279.636s-.267-1.759-4.715-4.75c-4.449-2.953-7.918-2.953-11.121-5.462-2.456-1.975-5.018-6.513-6.686-8.008-1.62-1.477-1.886-5.747-1.886-5.747l5.462-4.574,8.124-11.742,6.868-7.562,3.291,4.574,4.574,5.373,2.544,10.783.925,15.783-7.39,11.334Z" transform="translate(-975.542 -204.526)" fill="#b59544"></path><path id="Path_127" data-name="Path 127" d="M1314.792,548.016a20.053,20.053,0,0,0-.873-7.081,130.429,130.429,0,0,0-4.926-12.55c-.481-2.687-.124-2.9.392-3.2s2.456-1.408,3.519-5.284a5.014,5.014,0,0,1,4.36-4l2.028-1.494,3.079,7.7,2.686,6.958.836,5.32.623,4.537-1.459,9.591-7.205,6.512-3.06-7.006Z" transform="translate(-1155.258 -453.988)" fill="#c89d3a"></path><path id="Path_128" data-name="Path 128" d="M502.89,1701.763v-.2a1.515,1.515,0,0,0,.391-.352c.124-.178.215-.392.3-.445a3.35,3.35,0,0,1,1.459-.268,11.223,11.223,0,0,0,2.243.534c1.281-.035,2.775-1.015,5.142-.569,3.559.658,4.395,3.078,6.459,4.448a4.091,4.091,0,0,0,3.078.534h.48c.089,0,.747-.747,1.1-.711.712.035.782.623,1.227.658,1.05.124,3.079-.534,4.094-.266a1.955,1.955,0,0,1,1.281,1.28,1.976,1.976,0,0,1-.481,1.975c-1.1,1.013-2.152,1.975-2.366,2.815a9.977,9.977,0,0,1,.781.662,103.586,103.586,0,0,1-25.193-10.087Z" transform="translate(-443.905 -1500.836)" fill="#ceb052"></path><path id="Path_129" data-name="Path 129" d="M1310.68,769.759a61.489,61.489,0,0,0,3.737-5.534c.961-1.89-3.043-25.817-3.043-25.817l8.043-26.351-.215-8.576s.392-7.918,1.317-11.353c1.1,1.975,4.538,4.36,5.285,5.623.352-2.421,1.547-7.527,1.37-12.971.658,1.013,2.242,11.21,2.242,11.21l1.583,6.867,2.064,7.3,2.3,7.7,1.37,5.32.782,1.281.659,2.241.623,2.421,1.8,5.676,1.056,4.661.836,8.452a12.871,12.871,0,0,1,.392,1.975,8.254,8.254,0,0,1-.124,1.62,19.4,19.4,0,0,1,.178,3.434c-.178,1.407-.178,2.509-1.282,3.519s-1.8,7.046-1.8,7.046l-1.975-1.316a5.361,5.361,0,0,0-.534-3.434,3.471,3.471,0,0,0-3.737-1.708c-1.013.214-3.041.533-3.7,1.1a21.582,21.582,0,0,1-3.558,3.132c-1.759,1.056-4.626,1.139-6.156,1.494a16.43,16.43,0,0,0-5.054,2.633,28.218,28.218,0,0,1-4.448,2.346Z" transform="translate(-1156.948 -604.383)" fill="#cca847"></path><path id="Path_130" data-name="Path 130" d="M1310.68,1335.411s.117.076.344.2a104.507,104.507,0,0,0,33.311-24.69c-.1-3.6-.234-7.292-.38-8.66-.3-2.9-.088-5.854-.177-7.562s-1.05-8.666-1.494-10.462a4.553,4.553,0,0,0-1.548-2.687,21.441,21.441,0,0,0-.873,4.223c0,.841-.178,2.865-.178,3.382-.124-.036-.177-.352-.177-.481-.178.445-.392,1.228-.481,1.317s.124-.747,0-.925-.352-.089-.3-.534a5.1,5.1,0,0,1,.124-.782,8.157,8.157,0,0,0-.924,2.775c-.392,1.975-.392,2.029-.534,2.206-.124.215-.836.926-.873,1.193-.035.48.659.961.712,1.227.035.446-.623,2.509-.836,3.519s-.124,2.989-.352,4c-.178.925-.352,1.459-.961,1.85.445.089.872.214.872.214a6.576,6.576,0,0,1-.961,4.876c-.569.782-.711,1.139-1.316,1.851a8.178,8.178,0,0,0-2.207,3.79,6.369,6.369,0,0,1-.124-.873,42.04,42.04,0,0,0-2.633,3.382c-1.013,1.583-2.42,1.494-2.815,1.886a1.873,1.873,0,0,0-.352,1.673c-.352.088-1.013.214-1.459,1.583a3.332,3.332,0,0,1-1.583,1.886,8.425,8.425,0,0,1-2.367.747,2.868,2.868,0,0,1,.836.266,14.113,14.113,0,0,1-2.864,2.029,5.988,5.988,0,0,0-2.367,2.864,2.051,2.051,0,0,1-1.708,1.317c.352.214.873.711,1.139.871a3.96,3.96,0,0,0-2.241,1.1c-1.246,1.032-1.673,1.335-2.243,1.424Z" transform="translate(-1156.948 -1131.157)" fill="#c39d3c"></path><path id="Path_131" data-name="Path 131" d="M1099.556,1781.4a10.06,10.06,0,0,1,2.2-1.165c2.775-1.1,5.711-1.316,6.868-1.671a25.087,25.087,0,0,1,3.345-1.1c-.036.312-.067.605-.1.882a103.679,103.679,0,0,1-12.316,3.058Z" transform="translate(-970.582 -1568.901)" fill="#d2ba6b"></path><path id="Path_132" data-name="Path 132" d="M1230.689,845.664a21.868,21.868,0,0,1-1.583,5.018c-1.015,1.94-2.111,4.626-2.111,4.626a8.474,8.474,0,0,1,.213-1.8,50.554,50.554,0,0,0-5.278,3.345,17.88,17.88,0,0,0-2.6,2.687,53.748,53.748,0,0,0,1.851-5.676,114.37,114.37,0,0,0-10.373,9.11l-9.7,7.847a33.553,33.553,0,0,1-3.452,1.616c-1.671.711-3.647,1.316-5.106,1.886a8.093,8.093,0,0,1,1.886-2.865c.926-.872,3.7-3.879,4.128-5.278a4.8,4.8,0,0,0-.035-3.559c-.481.124-1.583.178-2.331.392a4.555,4.555,0,0,0-1.548,1.013,36.432,36.432,0,0,1,1.8-6.334c-.925.035-2.509.3-2.509.3a22.572,22.572,0,0,1,5.982-6.28,19.455,19.455,0,0,0-3.38,1.049c-2.206.925-4.626,2.3-6.423,3.043,1.013-1.407,8.131-11.565,12.366-21.032,4.223-9.448,5.8-11.868,6.725-16.938.48-2.509.352-6.216.48-9.537.124-3.292.534-6.246.267-8.221,1.1,1.37,5.231,5.231,5.373,13.862.124,8.629-3.949,20.284-8.274,26.564,1.056.3,3.791.659,6.6-4.222s2.776-6.245,3.791-8.274a7.352,7.352,0,0,1,.088,1.37,37.274,37.274,0,0,0,6.032-11.21c.392,2.687,1.548,5.054-.267,9.983-1.619,4.448-3.736,5.534-3.736,5.534a8.412,8.412,0,0,0,2.6-1.1c.267.658.215,1.408.659,1.673s1.05.712,1.139,1.139a13.026,13.026,0,0,0,1.459-2.3,48.609,48.609,0,0,0,.352,10.694,3.618,3.618,0,0,0,3.737-2.687,11,11,0,0,0-.214,5.943,6.99,6.99,0,0,0,1.388-1.388Z" transform="translate(-1050.528 -706.16)" fill="#c0993a"></path><path id="Path_133" data-name="Path 133" d="M889.67,350.944a10.488,10.488,0,0,1-3.7.569c-2.028,0-1.459-.782-4.626-.782-4.875,0-21.9,2.815-24.893,2.775-1.94-.035,6.547.836,6.547.836l21.691.3,4.359-.352,1.62-3.3Z" transform="translate(-755.741 -309.515)" fill="#a88f33"></path><path id="Path_134" data-name="Path 134" d="M609.022,684.568a24.771,24.771,0,0,0-3.95,3.737,27.564,27.564,0,0,1-3.132,4,2.734,2.734,0,0,0,.925-.124s0,.352-.214.445a1.244,1.244,0,0,1,1.013.352,1.809,1.809,0,0,0-.623,2.545,2.737,2.737,0,0,0,1.94,1.049s-.3.873.961.784c2.722-.124,5.765-1.317,7.17-1.015,1.408.352,2.207.481,3.2,2.207,1.056,1.708,1.975,1.975,1.975,1.975a10.1,10.1,0,0,0,.481-3.95,11.749,11.749,0,0,0,.836-4l-.925-6.815-4.038-5.107-5.231,2.9-.392,1.013Z" transform="translate(-531.337 -600.738)" fill="#e3c571"></path><path id="Path_135" data-name="Path 135" d="M704.64,502.254s.392.925,2.029,1.013a.92.92,0,0,0-.124.747c.035.3.088.747.088.747a1.655,1.655,0,0,0,.481-.352c.089.392-.089,1.013,0,1.459a3.24,3.24,0,0,0,.266.782,1.545,1.545,0,0,1,.089-.177,6.992,6.992,0,0,0,1.228,1.759.727.727,0,0,1,.088-.352,1.235,1.235,0,0,0,.213.623.648.648,0,0,1-.177-.124,20.312,20.312,0,0,0,.569,4.271,2,2,0,0,0,.213-.3c0-.088-.035.784-.124,1.408a6.148,6.148,0,0,0-.035,1.494,4.667,4.667,0,0,1,1.049-.623,3.8,3.8,0,0,0,1.94-2.332,15.584,15.584,0,0,0,.712-2.544,3.552,3.552,0,0,1,.352,1.056c.036.445.873.214.873.214l.178-1.94,1.056-4.395.961-2.722,4.626-7.205,8.358-6.437,7.3,1.673L743,481.63l-10.6-6.37-10.036,1.05-9.108,12.615-7.294,11.442-1.317,1.886Z" transform="translate(-621.991 -419.438)" fill="#d8b65b"></path><path id="Path_136" data-name="Path 136" d="M832.706,419.8a11.59,11.59,0,0,0-2.42,1.056c-1.8.931-3.043,1.227-3.737,2.6a6.728,6.728,0,0,0-.747,2.456,17,17,0,0,1,1.94-.712c.747-.177,1.583-.124,1.494.178a2.062,2.062,0,0,1-.352.569s1.408-.035,1.37.659a3.668,3.668,0,0,1-.532,1.8c-.267.352-1.37.873-1.494,1.282-.3.836.124.871-.036,1.547-.124.659-.711,1.94-2.633,4.181a22.448,22.448,0,0,0-2.815,3.826,24.4,24.4,0,0,1-1.459-3.345c-.352.177-2.241,1.227-2.241,1.227l-4.377-15.248.088-1.015a2.721,2.721,0,0,0,.481-1.37c-.658-.213-.747-.392-1.62-1.227a10.882,10.882,0,0,0-3.041-2.545,1.934,1.934,0,0,0-1.548-1.139c-1.067-.215-1.708-.391-1.708-.391a1.862,1.862,0,0,0,.836-.659,11.016,11.016,0,0,1-2.633.267,11.028,11.028,0,0,0-2.42.035c-.8.124-1.759.481-2.117-.747-.392-.3-1.228-.035-1.94,1.013s-.961,1.886-2.331,2.3a4.772,4.772,0,0,1-.623,1.708,19.544,19.544,0,0,1-1.851,2.3c-1.317,1.548-1.1,4.092-3.2,6.032-2.117,1.939.352-5.374.352-5.374l3.38-8.093,9.626-9.413,14.947-1.013,1.459,7.741,7.3,2.509,4.608,7.028Z" transform="translate(-697.496 -355.239)" fill="#d3ae4d"></path><path id="Path_137" data-name="Path 137" d="M1028.2,421.719l-6.281-9.056-4.395-3.382s-3.132-5.764-3.345-5.942a41.431,41.431,0,0,0-5.018-.569l.352.872a2.309,2.309,0,0,1,1.056.712c.836.961,1.37,2.775-.534,4.715a3.041,3.041,0,0,0,1.708.266c-.658.784-2.152,2.456-2.241,3.915a1.489,1.489,0,0,0,.658,1.547,5.924,5.924,0,0,0-1.192,3.519,14.265,14.265,0,0,1,1.759-1.673,45.66,45.66,0,0,1,4.36-2.99,2.514,2.514,0,0,0,.124.925s2.294-1.886,4.223-1.05c.871.392.48,1.62.48,1.62a2.034,2.034,0,0,1,2.029.392,37.672,37.672,0,0,1,2.633,3.826,28.136,28.136,0,0,1,1.671,2.294,29,29,0,0,1,2.421,5.107c.035-.712.178-1.708,1.407-1.708l-1.869-3.345Z" transform="translate(-890.626 -355.451)" fill="#caa13e"></path><path id="Path_138" data-name="Path 138" d="M368.663,638.4a6.133,6.133,0,0,1,0-3.256c.445-2.152,1.139-3.167,1.37-6.334a22.583,22.583,0,0,1,2.3-7.117l5.711-2.6,4.04,1.1,1.192,5.41-5.107,2.815a3.92,3.92,0,0,1-1.708,2.152c-1.442.961-3.434,1.708-3.914,2.687a7.837,7.837,0,0,0-.623,1.886,2.674,2.674,0,0,0-2.331.658,3.415,3.415,0,0,0-.925,2.6Z" transform="translate(-325.247 -546.407)" fill="#f4efc8"></path><path id="Path_139" data-name="Path 139" d="M352.48,524.311a2.6,2.6,0,0,0-.836,1.056,21.434,21.434,0,0,1-1.228-6.993c-.035-3.043-.217-3.8.487-4.845s3.464-2.153,3.072-4.042c-.392-1.8-2.029-2.544-4.04-2.028-1.408.352-2.455,3.345-3.914,4.839-1.1,1.139-2.42.961-2.775,1.583-.481.836-.036,1.673-.178,2.206a10.647,10.647,0,0,1-1.282,2.3c-1.619,2.331-4.359,5.623-4.715,8.576a14.672,14.672,0,0,1,.481-3.559l-.267-.444,1.759-5.765,1.139-4.75,2.545-7.955,4.483-8.131,4.36-4.876,4.537.3.534,6.815,2.6,12.794,5.462,6.725-8.755,5.892-3.469.3Z" transform="translate(-297.534 -433.756)" fill="#ebcc73"></path><path id="Path_140" data-name="Path 140" d="M464.879,712.719a2.215,2.215,0,0,1-1.015.036c-.267-.142-.533-.3-.445-.481s.569-.48.569-.623a.5.5,0,0,0-.445-.534.484.484,0,0,0-.534.214,2.013,2.013,0,0,0-.711-.352,4.95,4.95,0,0,1,.569-.036,5.546,5.546,0,0,0-1.548-.444c.445-.266,1.317-1.05,1.886-1.05s.925-.088.836-.391a1.814,1.814,0,0,0-1.013-.925c.177-.214.3-.534-.124-1.407a1.69,1.69,0,0,1-.124-1.671,11.292,11.292,0,0,1,.782-1.05,2.863,2.863,0,0,1,.747-.925,9.347,9.347,0,0,1,1.317-.569c.623-.214,1.139-.481,1.494-.214a.488.488,0,0,1,.214.623,3.211,3.211,0,0,1,2.331.124,17.633,17.633,0,0,0,3.791.872l.963,1.94-6.37,5.462-2.633,1.317-.534.088Z" transform="translate(-407.211 -619.746)" fill="#e5c66b"></path><path id="Path_141" data-name="Path 141" d="M500.9,618.251a24.579,24.579,0,0,0-2.42,1.8c.266.036.711.215.532.481a28.67,28.67,0,0,0-2.206,2.064A13.607,13.607,0,0,0,495.1,625.1a9.023,9.023,0,0,1-2.989,2.063c1.459,0,4.395-1.8,5.5-1.8a1.084,1.084,0,0,0,.925,1.192,6.912,6.912,0,0,0,4.839-1.1c2.42-1.459,1.62-2.545,2.633-3.256,1.94-1.282,2.722-2.421,3.79-3.132a6.922,6.922,0,0,1,1.62-.873s.035-.534.352-.48a.479.479,0,0,1,.392.3,10.917,10.917,0,0,1,4.222-1.673.246.246,0,0,1-.124-.124s.177-.089.213-.178c0,0,.124-.178.214-.089s.214.747.392,1.015c.392-.178,1.139-1.851,1.139-1.851l1.8-5.142v-4.7l-1.408.267-10.556,4.483-6.407,6.638-.747,1.583Z" transform="translate(-434.389 -534.208)" fill="#e6bd62"></path><path id="Path_142" data-name="Path 142" d="M718.654,490.45a5.969,5.969,0,0,0,1.624-.659,7.345,7.345,0,0,1-1.139,2.545,21.491,21.491,0,0,0-1.708,2.953c-.747,1.459-.836,3.559-1.548,4.483a3.254,3.254,0,0,1,1.013-.3,4.7,4.7,0,0,0-1.013,1.281,6.082,6.082,0,0,1-2.152,2.865c-1.316.837-2.99,1.37-4.787,3.345-1.8,1.939-3.648,4.395-4.574,5.278a13.175,13.175,0,0,0,1.317-3.611c.178-1.1-.036-2.421.266-3.879a12.674,12.674,0,0,1,1.759-5.054c1.457-2.545,3.95-11.388,3.95-11.388l5.373-1.708,1.62,3.844Z" transform="translate(-621.753 -429.448)" fill="#b6933f"></path><path id="Path_143" data-name="Path 143" d="M774.377,408.809a14.984,14.984,0,0,0-2.063,4.395c-.445,2.064-.036,1.886-.3,2.9a3.783,3.783,0,0,0,0,1.886,6.7,6.7,0,0,1,2.239-2.207,18.361,18.361,0,0,0,3.519-2.366c.747-.836,1.37-2.206,2.989-3.256-.658-.089-1.583-.392-1.759-.352a39.825,39.825,0,0,1,4.626-3.256c1.975-1.408,1.851-1.975,5.054-3.38a21.865,21.865,0,0,1-2.421,0c.352-.747,1.583-1.1,2.815-2.331s-.782-3.043-.782-3.043l-9.383,5.676-4.537,5.338Z" transform="translate(-681.355 -351.064)" fill="#c49937"></path><path id="Path_144" data-name="Path 144" d="M576,188.143l.214-1.708,2.687-4.306,2.812-7.562V164.229l-.214-5.978.445-3.915.338-1.244.357-.481,2.294,1.192,3.168,4.306.3,8.31-3.079,13.113-8.79,9.591Z" transform="translate(-508.44 -134.633)" fill="#dfc068"></path><path id="Path_145" data-name="Path 145" d="M370.887,148.178s-1.408.036-1.708,5.89-.446,8.932-.659,11.832a63.579,63.579,0,0,1-.961,6.37c-.25,1.709-.392,4.038-1.192,5.462A12.561,12.561,0,0,1,363.5,182a17.66,17.66,0,0,1-5.373,2.99c-.784.177-4.752.569-6.37,1.459a9.683,9.683,0,0,0-2.633,1.673,33.6,33.6,0,0,0-7.082,9.59c-3.167,6.246-6.334,23.878-6.334,23.878l.712-1.192a11.3,11.3,0,0,1,1.673-4.36c1.548-2.775,1.1-5.889,3.256-11.21a61.118,61.118,0,0,1,3.167-6.9c2.029-3.648,4.484-6.779,6.958-8.487a21.993,21.993,0,0,1,8.487-3.38l4.787-3.167s.836-1.619,1.94-3.47c1.547-2.6,3.519-5.5,3.949-9.714.659-6.246-.925-10.338-.836-14.039s.124-6.423.873-7.082.214-.409.214-.409Z" transform="translate(-296.334 -130.682)" fill="#a88f33"></path><path id="Path_146" data-name="Path 146" d="M631.966,174.391a67.956,67.956,0,0,0,3.078-9.8c.178-.925.534-1.85.623-2.6.445-4.36.569-6.157,0-8.541-.445-1.759-2.152-3.345-3.043-4.574-.871-1.282-1.281-1.759-1.1-2.029a1.971,1.971,0,0,1,1.547-.658,5.3,5.3,0,0,1,3.791,1.759c1.37,1.583,2.455,6.958,2.455,6.958L640.456,162l2.9,8.932L631.968,174.4Z" transform="translate(-557.413 -128.96)" fill="#c99e3d"></path><path id="Path_147" data-name="Path 147" d="M678.48,175.053a1.806,1.806,0,0,1-1.1,0,1.587,1.587,0,0,1-.712,1.494c-.747-.3-7.741.3-7.741.3s-3.256-.57-4.271-4.876c-.711-2.865.534-6.815.124-9.413-.623-3.826-1.494-4.574-1.583-5.765s-.178-1.494-.178-2.241a4.124,4.124,0,0,0-1.013-.213c-.089-.352.088-.659-.3-1.282a7.079,7.079,0,0,1,3.38,1.886,6.363,6.363,0,0,1,1.62,2.064,16.54,16.54,0,0,1,3.345,3.95c.925,1.839,2.722,7.7,3.132,8.664a6.383,6.383,0,0,0,1.056,1.673c1.032,1.282,2.544,3.4,4.252,3.753Z" transform="translate(-584.088 -135.03)" fill="#b58634"></path><path id="Path_148" data-name="Path 148" d="M706.47,187.5a49.284,49.284,0,0,1,2.9,5.41c1.05,2.366,1.673,4.306,2.99,5.889-.712-2.063-1.975-6.12-2.722-7.562a17.336,17.336,0,0,0-3.167-3.736Z" transform="translate(-623.607 -165.43)" fill="#a88f33"></path><path id="Path_149" data-name="Path 149" d="M466.076,436.891a26,26,0,0,0-5.142,2.206c-1.1.569-2.152,1.049-3.167,1.494a55.27,55.27,0,0,1-7.7,2.9c.178.213.266.3.266.3a2.241,2.241,0,0,0,.481,1.37c-.266.267-3.826,2.687-2.775,10.783.711-.266,1.547-.623,1.671-.623.215.036.267.623.534.623A3.571,3.571,0,0,0,452.3,454.4c-.035.481-.569,5.32,2.3,8.576.534-.623,1.886-2.687,1.886-2.687l.035-.658a17.861,17.861,0,0,1,.873-4.395,11.684,11.684,0,0,1,2.206-3.648l7.613-10.872-1.139-3.825Z" transform="translate(-395.312 -385.569)" fill="#e6c367"></path><path id="Path_150" data-name="Path 150" d="M533.341,381.082a4.21,4.21,0,0,1-1.139.569,4.4,4.4,0,0,1,.747-3.47c1.228-1.8,3.914-4.129,4.661-5.982.481-1.193.267-4.181,4.538-8.008s5.942-5.142,5.942-5.142l6.9-3.47,8.487,3.345-4.217,16.526-3.274,7.741-13.019-2.455-9.632.344Z" transform="translate(-469.694 -313.796)" fill="#dcba5a"></path><path id="Path_151" data-name="Path 151" d="M585,448.423l1.62-2.028v-1.442a9.2,9.2,0,0,0,3.736-2.456c1.939-1.975,4.626-5.765,6.993-5.534,2.367.267,2.6,5.142,2.687,6.513a37.423,37.423,0,0,0,.871,6.157c.534,1.673-5.765,8.006-5.765,8.006l-4.278,3.256Z" transform="translate(-516.384 -385.625)" fill="#e9ce77"></path><path id="Path_152" data-name="Path 152" d="M627.73,546s1.317-2.064.352-2.509a15.209,15.209,0,0,1,1.619-2.633,13.293,13.293,0,0,1,3.167-4.128c2.42-2.278,3.915-3.791,4.307-5.32a14.011,14.011,0,0,0,.392-3.043,5.772,5.772,0,0,0,.836.569,4.972,4.972,0,0,1,1.975,4.787,7.858,7.858,0,0,1-1.407,4.36,20.922,20.922,0,0,1-1.885,1.673c-.837.569-1.139,1.227-2.545,1.281a1.684,1.684,0,0,1,.481-.267,3.271,3.271,0,0,0-2.243.534c-.784.711-2.449,2.9-3.285,3.56-.836.534-1.759,1.139-1.759,1.139Z" transform="translate(-554.102 -466.319)" fill="#cdae50"></path><path id="Path_153" data-name="Path 153" d="M732.961,347.19a21.426,21.426,0,0,0-6.547-1.281c-3.737-.124-9.2.089-14.555.124-5.765.035-11-1.975-18.255-2.331-1.192-.712-4.223-3.826-13.683,2.775.569-.035,6.869-1.459,9.056,1.282,2.206,2.722,1.583,7.348,1.282,8.451-.57,2.456-2.421,6.032-3.167,8.541s-.57,3.827-1.1,5.587-1.708,2.633-1.015,4.661c.925-.569,1.408-.569,2.953-4.038s1.228-5.943,3.791-8.879a57.84,57.84,0,0,1,8.274-8.008c1.588-1.015,14.2-7.562,27.4-1.316,3.184-.338,5.569-5.57,5.569-5.57Z" transform="translate(-600.171 -302.115)" fill="#d2a83e"></path><path id="Path_154" data-name="Path 154" d="M602.718,351.488a1.624,1.624,0,0,0-.088-.392,2.857,2.857,0,0,0-.481-.712,22.833,22.833,0,0,0-4.715-.392c-2.776.3-5.285,3.737-6.459,5.5s-2.633,4.483-4.217,5.889a.586.586,0,0,0-.089-.392s.089.124-.088.3-.178.266-.089.352l.267.266a21.81,21.81,0,0,0,5.889-4.223c3.559-3.256,6.281-4.926,7.7-5.5a10.842,10.842,0,0,1,2.366-.7Z" transform="translate(-517.65 -308.834)" fill="#c29637"></path><path id="Path_155" data-name="Path 155" d="M1098.425,248.94s-.57.711-1.282,1.494c-1.583,1.673-3.648,3.557-5.41,5.5-1.671,1.851-3.557,3.292-5.676,5.712s-4.574,5.106-5.2,5.889a5.8,5.8,0,0,0-1.013,2.722c-.3-.213-.658-.445-.658-.445a4.477,4.477,0,0,0,.534.784c.445.623,1.138,1.408,1.494,1.886a5.745,5.745,0,0,1,.924,2.028c.214.035,1.583.3,3.292-2.509s3.949-5.889,3.949-5.889l3.559-5.285,2.243-4.483,2.815-5.018.428-2.385Z" transform="translate(-952.609 -219.664)" fill="#ac8132"></path><path id="Path_156" data-name="Path 156" d="M1230.595,218.3a27.123,27.123,0,0,0-2.99,2.815c-.836,1.056-2.815,3.826-2.815,3.826l.712-.089,3.613-3.2,1.408-2.509.072-.836Z" transform="translate(-1081.132 -192.618)" fill="#a88f33"></path><path id="Path_157" data-name="Path 157" d="M1268.59,1178.1a3.715,3.715,0,0,1,.783-2.331,16.927,16.927,0,0,0,5.018-6.958,45.7,45.7,0,0,0,2.294-5.889s-3.7,3.167-5.982,3.914c.534-1.1.836-1.886,1.1-2.456-.3-.266-1.583-.569-1.708-.711.711-.712,1.1-2.456,2.544-3.613,1.851-1.407,5.231-3.826,7.858-5.982s7.793-7.17,8.452-8.629a3.217,3.217,0,0,1,.48.924s-2.6,3.382-3.949,5.534a5.273,5.273,0,0,0-1.1,2.9l2.456-1.056s.711,2.633-2.509,6.638c1.407-.534,1.975-.214,2.775-.659a12.478,12.478,0,0,0-4.84,5.107c-1.672,3.132-3.95,6.779-7.793,9.056a64.559,64.559,0,0,0-5.89,4.2Z" transform="translate(-1119.786 -1011.021)" fill="#a67a2e"></path><path id="Path_158" data-name="Path 158" d="M1134.877,306.772a19.637,19.637,0,0,0-1.673,5.408c-.035.57-.178,1.015-.178,1.673-.035,2.117.124,4.484-.352,5.587a2.945,2.945,0,0,0-.446-.924c-.266.747-.747,3.078-1.139,3.949a18.565,18.565,0,0,1-.533-4.875c.036-2.331.088-2.776.088-3.256a14.259,14.259,0,0,1-.747,2.241c-.266-.48-.569-1.1-.925-1.619a10.1,10.1,0,0,1-.711,1.139c-.036-.214-.124-.784-.178-1.583a22.554,22.554,0,0,1-.035-2.367,10.72,10.72,0,0,1,2.42-4.092,34.209,34.209,0,0,0,4.395-7.259c.569-1.228,2.989-6.334,2.989-6.334h1.851l-2.687,6.12s-1.618,3.345-2.455,4.574-2.6,4.751-3.381,6.121c.569-.747,1.05-1.139,1.62-1.851a29.289,29.289,0,0,0,2.081-2.651Z" transform="translate(-995.717 -259.845)" fill="#8c6228"></path><path id="Path_159" data-name="Path 159" d="M1210.727,216.32a7.657,7.657,0,0,1-1.407,2.545c-1.1,1.317-3.471,3.078-4.626,4.483a12.123,12.123,0,0,0-2.207,9.537,15.993,15.993,0,0,1,2.776-5.018,38.506,38.506,0,0,0,4.575-6.547,11.01,11.01,0,0,0,1.048-3.469l.352-.445-.214-1.015-.3-.072Z" transform="translate(-1061.229 -190.87)" fill="#cba94c"></path><path id="Path_160" data-name="Path 160" d="M1414.894,588.507a19.415,19.415,0,0,1-.925-3.7c-.214-1.762.352-2.111-.3-4.127-.392-1.228-1.1-1.056-1.281-1.228a10.475,10.475,0,0,1-.267-3.043,11.39,11.39,0,0,0-.214-2.9c-.266-.214-.445-.392-.836-1.708a18.884,18.884,0,0,0-.872-2.366c-.214-.391-.838-.747-.838-1.139,0-.784.712-1.192.712-1.408-.035-.444-.569-.088-.712-.213-.177-.213.446-1.494.215-1.673-.089-.088-.712.659-.873.446-.178-.215-.392-2.332-.712-3.737-.3-1.37-.623-2.366-.658-2.775-.035-.392-2.456-7.3-3.042-8.968a42.417,42.417,0,0,1-1.192-4.306,22.164,22.164,0,0,0-.392-2.367c-.089.178-.035,1.05-.178,1.015-.124-.036-.569-3.078-.711-3.559a24.764,24.764,0,0,1-1.056-3.291c-.178-1.193-.569-4.307-.836-6.424s-.392-2.989-.392-3.519a21.918,21.918,0,0,0-.214-3.879,36.145,36.145,0,0,0-1.673-6.547c-1.192-2.99-4.36-10.641-4.926-12.544,0-.481.623-.213.623-.213s1.547,3.879,2.686,6.867a46.042,46.042,0,0,0,2.421,5.89,22.106,22.106,0,0,1,2.633,8.006c.747,4.8,1.013,9.234,1.459,12.188a31.66,31.66,0,0,0,.836,4.395c.48,1.62,1.227,3.292,2.206,5.854a38.726,38.726,0,0,1,1.8,5.5c.392,1.975.392,3.469.623,4.449.215.836.534,2.508,1.282,4.926s1.85,5.534,2.6,7.473a41.362,41.362,0,0,1,2.332,8.844,85.166,85.166,0,0,1,.676,9.786Z" transform="translate(-1229.365 -445.035)" fill="#a88f33"></path><path id="Path_161" data-name="Path 161" d="M1252.8,213.176l-.089.213a.376.376,0,0,1,.214.446,10.622,10.622,0,0,1-.089,1.459c-.088.623-.266,1.1-.3,1.494a7.491,7.491,0,0,1-1.056,4.181c-.352.658-.569,1.227-.747,1.619a4.794,4.794,0,0,1-.925,1.548c.623-.352,2.865-1.759,4-1.548a8.345,8.345,0,0,0-2.722,2.456,6.121,6.121,0,0,0,2.111,0c1.975-.3,4.181-1.015,6.12-.873,2.118.124,1.282-2.544,1.282-2.544l-2.444-5.373L1253.534,213l-.73.177Z" transform="translate(-1103.217 -187.939)" fill="#be9c44"></path><path id="Path_162" data-name="Path 162" d="M1287.536,232s-2.064-2.064-2.9-9.149a164.669,164.669,0,0,1-.658-17.594l-1.673-4.092s-.352-2.722-1.228-3.736-2.6-2.722-3.38-3.559-1.673-1.975-2.206-2.153c.266-.445,1.459-2.953,6.031-2.989s5.982,2.509,6.459,3.434,2.633,4.926,3.433,12.55c.747,7.615.783,8.185.659,10.818a61.216,61.216,0,0,1-1.408,8.451c-.765,3.061-1.6,6.478-3.131,8.025Z" transform="translate(-1125.885 -166.513)" fill="#a17c34"></path><path id="Path_163" data-name="Path 163" d="M1317.286,590.5a3.494,3.494,0,0,0,1.975-.446,5.557,5.557,0,0,0,4.875-2.063,4.157,4.157,0,0,1-.392,3.256,7.471,7.471,0,0,1,1.193-.747c.035.658.658,2.686-1.975,7.615a3.108,3.108,0,0,1,2.294-.836c.036.925.534,4.038-.782,5.712a2.319,2.319,0,0,1-2.3.782,4.465,4.465,0,0,0,0-.747c-.035-.481-.213-.961-.088-1.281a6.379,6.379,0,0,1-1.851-1.282c-1.548-1.459-3.559-3.949-3.7-5.8a2.288,2.288,0,0,1,1.673-2.509,1.977,1.977,0,0,1-.392-.481A2.7,2.7,0,0,0,1317.286,590.5Z" transform="translate(-1162.109 -518.946)" fill="#8c6228"></path><path id="Path_164" data-name="Path 164" d="M1201.719,309.111s-.089-.124-.569.445c.089-.569.178-1.1.214-1.62a5.578,5.578,0,0,1,.873-1.316c-.268.532-.446,1.013-.446,1.013a7.167,7.167,0,0,1,1.62-1.975c.658-.534,1.494-.782,1.85-1.281a3.287,3.287,0,0,0,.392-.712,11.063,11.063,0,0,0,2.207-2.243c.177-.214.445-.445.623-.658.3-.124,1.013-.445,1.85-.873.872-.48,1.851-1.138,2.456-1.408,1.192-.534,2.456-.48,3.043-1.317.445-.124.924-1.459.836-2.6a10.777,10.777,0,0,1,5.2,6.957c.836,3.256-.659,8.274-1.282,10.695s-.711,4.217-1.583,5.319c-1.1,1.46-4.661,3.519-5.534,4.538-.747.836-2.988,2.953-2.9,4.483.089,1.139,1.494,1.759,1.8,1.975s.3.481.872.352.782-.392,1.015-.392c.266.035.266.089.391.089a1.281,1.281,0,0,0,.267-.036s-.089,1.62-3.879,2.111c-.267.036-.534.124-.873.178a2.17,2.17,0,0,0,1.193-.871c-.534-.089-2.064-.178-2.456-.3a4.731,4.731,0,0,1,.871-1.05c.3-.266-.035-.352-.3-.214a14.264,14.264,0,0,0-1.317,1.013,12.819,12.819,0,0,1-1.548,1.408,3.469,3.469,0,0,1,.659-3.043c-.215.035-.624.658-1.015.534a5.673,5.673,0,0,1,.124-1.94,8.881,8.881,0,0,1,1.37-2.206l5.587-9.983,1.192-7.562-12.793,2.485Z" transform="translate(-1060.265 -259.942)" fill="#92723a"></path><path id="Path_165" data-name="Path 165" d="M1168.881,411.04s-.3.213.3.623a6.785,6.785,0,0,1-.57.871c-.3.352-.623.57-.747.873a4.857,4.857,0,0,0-.48,1.317,6.485,6.485,0,0,1-.836,3.078,13.121,13.121,0,0,0-.784,1.494,11.062,11.062,0,0,0-.925,1.759,18.441,18.441,0,0,0-.3,2.331s.392-.481.534-.658a5,5,0,0,1-.784,1.281c.214-.178.836-.623,1.886-1.548a46.818,46.818,0,0,1,6.513-4.926,9.523,9.523,0,0,1-2.117.392c.445-.445,4.448-5.142,6.547-5.587a.837.837,0,0,0,.178-.57l-1.8-.177-3.648.782-.532-2.815-2.439,1.477Z" transform="translate(-1027.728 -361.445)" fill="#b18e3e"></path><path id="Path_166" data-name="Path 166" d="M1204.253,404.713a4.942,4.942,0,0,0-.925,1.673,5.612,5.612,0,0,1-.873-1.193c-.658-1.1-1.671-2.509-4.038-1.708a7.444,7.444,0,0,1,0-1.673,9.218,9.218,0,0,0,2.775-2.455,11.359,11.359,0,0,0,2.154-3.47c.352-.267.961-.712,1.759-1.228,1.139-.782,2.509-1.851,2.722-3.043a7.274,7.274,0,0,1-3.381.659c.659-.3,1.672-.623,1.548-1.94.267-.178.481-.3.481-.3a1.759,1.759,0,0,0-.623-.089c-.036-.124-.089-.3-.392-.213s-.352.089-.392.213a1.894,1.894,0,0,0-.836.215,12.858,12.858,0,0,1-1.459,1.049c.124-.213.3-.533.3-.533a6.179,6.179,0,0,0-1.494.352,31.08,31.08,0,0,0-3.79,1.8c.124-.213.178-.352.266-.392s.3-.088.3-.124a1.289,1.289,0,0,1-.035-.48,16.333,16.333,0,0,1,1.408-2.42,4.715,4.715,0,0,0,.747-2.029l2.722-1.37,7.651-1.759,4.965.3-.623,3.434-2.932,6-2.509,5.462-2.865,3.346-2.633,1.921Z" transform="translate(-1057.299 -339.103)" fill="#543e26"></path><path id="Path_167" data-name="Path 167" d="M1220.634,363.873a44.5,44.5,0,0,1-3.826,4.271c.534-1.139,3.826-7.918,5.018-9.8-.266-.213-.623-.213.214-3.519-.711,1.671-.961,2.544-1.547,2.989a1.1,1.1,0,0,1-1.056.3.743.743,0,0,0,.088-.445s-2.509-.3-4.223-.3a25.206,25.206,0,0,0-6.993,1.673,28.533,28.533,0,0,0-2.864,1.013c-.534.445-.836.925-1.1,1.05-.214.124-1.227.445-1.459.782-.214.352-.569.747-.569.836s-.089.215.178.124c.088-.035.747-.392,1.494-.836,1.013-.569,2.241-1.227,3.132-1.619a14.5,14.5,0,0,1,4.483-1.05,27.932,27.932,0,0,1,4.038-.712,33.869,33.869,0,0,1,3.791.089c-.213.178-.392.392-.3,1.139a5.567,5.567,0,0,1-.352.961c-.533,1.459-1.547,3.879-2.111,5.107-.782,1.671-1.672,3.078-2.111,3.949a28.727,28.727,0,0,1-2.366,4.395c-.958,1.228-1.459,1.975-1.759,2.243s-2.456,1.85-2.3,2.42a11.881,11.881,0,0,0,4.661-3.078c1.8-2.022,2.153-3.256,3.559-4.36a11.891,11.891,0,0,0,3.167-4.483,19.65,19.65,0,0,1,1.12-3.132Z" transform="translate(-1061.279 -313.125)" fill="#806031"></path><path id="Path_168" data-name="Path 168" d="M779.994,665.061a5.589,5.589,0,0,1-1.282,2.42c-.871.784-2.42,1.459-2.6,2.776-.214,1.316,1.548,1.975,1.548,1.975a6.845,6.845,0,0,0-.962,2.775,18.372,18.372,0,0,0,.089,2.633,1.173,1.173,0,0,0-.352.352,2.9,2.9,0,0,0,.961,1.85c.873.711,1.619,1.139,2.063.961a4.2,4.2,0,0,1,.178.446s.659-1.673,1.1-3.132c.445-1.494.836-1.282,1.013-3.292s2.111-5.462,2.111-5.462l1.32-2.95-2.152-1.673-3.043.32Z" transform="translate(-685.067 -586.694)" fill="#b6903c"></path><path id="Path_169" data-name="Path 169" d="M810.366,692.2a12.936,12.936,0,0,0-1.226,1.459,4.275,4.275,0,0,1-1.85,1.8c-.836.3-1.37.3-1.317,1.139s.836,1.192,1.281,1.619a2.082,2.082,0,0,1,.659,2.029,2.035,2.035,0,0,0,1.192-1.228c.445-.961,3.554-6.815,3.554-6.815h-2.293Z" transform="translate(-711.436 -610.933)" fill="#685026"></path><path id="Path_170" data-name="Path 170" d="M819.81,543.6a1.758,1.758,0,0,0,0-1.227c-.267-.534-1.886-.712-2.687-1.317a3.184,3.184,0,0,0-2.687-.782c.124-.3.623-.962.213-1.1a4.833,4.833,0,0,0-2.241.836c-.392.3-1.282.658-1.459.873s-.481.623-.659.445c-.178-.124-.266-.445-.569-.267a7.235,7.235,0,0,0-2.028,2.064,10.559,10.559,0,0,1-2.687,4c-1.815,1.761-2.6,2.9-2.064,3.559s.784.178.873.747a4.8,4.8,0,0,1-.089,1.673c-.213.925-.569,1.8-.089,1.975,1.228.392,2.421-.352,2.687-.124.534.48-.3,2.206.961,2.544a3.927,3.927,0,0,0,2.545-.3l4.661-2.509,4.484-2.366,2.294-4.538-1.23-3.79-.235-.392Z" transform="translate(-708.617 -475.842)" fill="#d4b968"></path><path id="Path_171" data-name="Path 171" d="M908.236,565.238a1.869,1.869,0,0,1,.178-2.243c.962-1.051,2.331-1.494,2.864-2.152a.821.821,0,0,0-.392-.266,3.542,3.542,0,0,1,1.548-1.46,1.481,1.481,0,0,0-1.013-.48c-.873,0-1.408.534-2.207.534-.782,0-.872-.392-.872-.392s1.317-.124,1.192-.712c-.124-.623-.352-.623-.352-.623a13.357,13.357,0,0,0,2.989-1.619,3.254,3.254,0,0,0,.481-1.494c.3,0,2.063-.925,2.775-.534s.213,1.459.213,1.459a17.544,17.544,0,0,0,3.253-3.208c.961.089,1.407-.658,2.111-.658.873,0,2.243,1.192,2.509,3.736a15.98,15.98,0,0,1,.178,4.876,22.5,22.5,0,0,0,.352,6.12c.3,1.228,1.013,1.1,1.013,1.1a1.993,1.993,0,0,1-.623.961,2.974,2.974,0,0,0-.481,2.064,8.774,8.774,0,0,0,.267.961,4.448,4.448,0,0,0-.712,1.1,1.25,1.25,0,0,1-1.139.747,5.513,5.513,0,0,0-.782,0c-.569.036-.747.124-1.1,0s-.623-.267-.48-1.408c.124-1.139-4.395-3.79-4.395-3.79l-7.389-2.633Z" transform="translate(-801.441 -486.639)" fill="#cca849"></path><path id="Path_172" data-name="Path 172" d="M838.1,712.834s1.619,2.154,8.274,2.154a16.743,16.743,0,0,0,4.926-.481,13.444,13.444,0,0,0,6.068-4.395c2.42-2.864,1.886-4.038,1.886-4.038l-1.408-.213-4.574.623-13.535,5.765-1.642.586Z" transform="translate(-739.789 -622.991)" fill="#585136"></path><path id="Path_173" data-name="Path 173" d="M837.075,681.617s-5.765,1.282-5.765-2.366c0-3.559,3.559-7.3,4.449-7.954a16.714,16.714,0,0,1,3.132-1.408h5.32l1.013,2.687-.445,5.8-7.7,3.238Z" transform="translate(-733.804 -591.24)" fill="#252211"></path><path id="Path_174" data-name="Path 174" d="M863.513,676.433s-1.1-1.015-3.611.352a9.034,9.034,0,0,0-4.662,6.816c-.124,2.294,1.886,4,5.018,4.092a15.954,15.954,0,0,0,4.449-.352c-.178-.213-1.1-1.37-1.1-1.37l-.088-9.537Z" transform="translate(-754.922 -596.696)" fill="#c3b378"></path><path id="Path_175" data-name="Path 175" d="M870.458,683.6s-.266-.213-1.056.213a17.279,17.279,0,0,0-2.366,1.94,9.615,9.615,0,0,0-1.056.871c-1.1,1.317-2.029,3.471-1.494,4.538s2.3,2.3,6.779,1.459l-.821-9.021Z" transform="translate(-762.951 -603.293)" fill="#e6d89c"></path><path id="Path_176" data-name="Path 176" d="M872.926,664.129a5.666,5.666,0,0,0-.712,2.865,4.719,4.719,0,0,0,4.752,4.875c2.864.178,4.786-4.128,6.867-5.8a4.993,4.993,0,0,1,2.544-1.317,23.615,23.615,0,0,0-5.942-4.038c-4.271-2.3-9.057-2.6-11.655.925,1.228-.089,5.2-1.1,5.2-1.1l1.94.623-2.99,2.972Z" transform="translate(-766.879 -581.616)" fill="#252211"></path><path id="Path_177" data-name="Path 177" d="M944.608,697.383c-.124-.266-.214-.623.3-.711s.747-.036.925.352.352.712.088.873a1.232,1.232,0,0,1-1.317-.516Zm-.836-2.509s-.178.124-.089-.124c.035-.3.267-.836.836-.711s.446.747.352.925a.924.924,0,0,1-.925.352.3.3,0,0,1-.178-.445Z" transform="translate(-832.974 -612.54)" fill="#6f674d"></path><path id="Path_178" data-name="Path 178" d="M534,667.747a5.5,5.5,0,0,0,3.043,1.015c1.619-.036,3.7-1.708,4.661-2.776.569-.623,1.056-1.281,1.583-1.8a9.441,9.441,0,0,0,.961-.961c.3-.352.623-1.013.784-1.228a16.323,16.323,0,0,1-1.548,1.193,18.331,18.331,0,0,1-2.3,1.192c-.48.178-5.462,2.815-5.462,2.815Z" transform="translate(-471.366 -584.275)" fill="#ac924c"></path><path id="Path_179" data-name="Path 179" d="M552.34,587.656a7.167,7.167,0,0,1,2.3-.873,42.828,42.828,0,0,1,4.395-.623l2.42,1.056.961,3.648-1.759,3.791-2.241,1.407-2.545-4.092-3.519-4.307Z" transform="translate(-487.555 -517.331)" fill="#9f8e57"></path><path id="Path_180" data-name="Path 180" d="M519.037,541.528l-.837.625a5.442,5.442,0,0,0,.392-1.583,14.661,14.661,0,0,1,2.456-5.765,18.305,18.305,0,0,1,1.317-1.583.891.891,0,0,0-.712.177,8.519,8.519,0,0,1,2.456-2.505c1.139-.7,1.583-.925,2.775-.352s1.494.871,2.367.836a2.672,2.672,0,0,0,1.619-.961s.178.569-.48,1.886a26.536,26.536,0,0,1-3.256,4l-5.409,3.7-2.687,1.525Z" transform="translate(-457.419 -467.947)" fill="#eac970"></path><path id="Path_181" data-name="Path 181" d="M559.425,539.018s3.915.534,5.107-.569c.035.124.178.124.178.213a.311.311,0,0,1-.089.177,2.865,2.865,0,0,1,.392-.035,2.313,2.313,0,0,0,.481.089,2.782,2.782,0,0,0,.392-.036.665.665,0,0,1-.267.446c.178,0,.352.035.352.177s.035.57-.178.659a.806.806,0,0,1-.534-.036,2.195,2.195,0,0,0,.267.962,2.008,2.008,0,0,0,2.111,1.192s.532,1.281-1.709,4.127c-.3.392-.623.925-1.013,1.37a5.206,5.206,0,0,0-.352,1.05s3.791-1.459,4.876-4.787a25.133,25.133,0,0,0,1.1-9.714,5,5,0,0,0-.392-1.94,1.681,1.681,0,0,0-2.633-.3,32.147,32.147,0,0,1-4.36,4.537c-2.064,1.494-2.152,1.759-3.737,2.421Z" transform="translate(-493.805 -469.137)" fill="#d7bc6b"></path><path id="Path_182" data-name="Path 182" d="M510.018,634.332a3.291,3.291,0,0,0-1.139,2.111,6.9,6.9,0,0,0,.782,4.448c.43.658,1.407,2.456,3.434,2.545a3.765,3.765,0,0,0,1.459-.3,9.232,9.232,0,0,0,1.975-1.228c.873-.658,1.583-1.227,1.494-1.281-.214-.089-5.373-4.36-5.373-4.36l-1.94-2.165-.694.235Z" transform="translate(-449.094 -559.648)" fill="#585136"></path><path id="Path_183" data-name="Path 183" d="M546.135,658.026a4.515,4.515,0,0,0,1.672-.48c.623-.392-3.648-4.626-3.648-4.626l.3,4.574Z" transform="translate(-480.334 -576.26)" fill="#453a25"></path><path id="Path_184" data-name="Path 184" d="M518.151,615.386a6.163,6.163,0,0,0-.534,1.282,22.447,22.447,0,0,0,.392,4.483,3.248,3.248,0,0,0,2.865,2.331,4.056,4.056,0,0,0,2.206-.711c0-.178-1.317-.352-1.673-1.015a5.986,5.986,0,0,1-.352-2.111c-.035-.569-.035-1.192.178-1.408a4.575,4.575,0,0,0,.569-2.064L523.511,613h-2.246l-2.687,1.673Z" transform="translate(-456.889 -541.023)" fill="#84754b"></path><path id="Path_185" data-name="Path 185" d="M516.69,601.359s1.759-2.331,3.345-2.865a3.43,3.43,0,0,1,2.3-.214l-.925,2.367-1.317,1.459.089.747a4.56,4.56,0,0,0,1.1,3.345,3.447,3.447,0,0,0,2.865,1.317,3.731,3.731,0,0,0,3.043-2.456c.747-1.85,1.37-4.223-.124-6.6A5.377,5.377,0,0,0,522.525,596c-.5,0-4.413.2-5.835,5.356Z" transform="translate(-456.086 -526.017)" fill="#252211"></path><path id="Path_186" data-name="Path 186" d="M899.743,678.771c-.658-.3-.035-2.152.623-2.722a4.638,4.638,0,0,1,2.955-1.317c.532-.035,1.049.3.961.659a5.284,5.284,0,0,1-1.886,2.242c-1.156.908-1.9,1.477-2.652,1.139" transform="translate(-793.963 -595.511)" fill="#f7f7e7"></path><path id="Path_187" data-name="Path 187" d="M589.879,623.163a1.27,1.27,0,0,1,1.228.873c.124.569-.3,1.708-1.228,1.708-.747,0-1.139-.925-1.139-1.192a1.362,1.362,0,0,1,.178-.623,1.017,1.017,0,0,1,.961-.766" transform="translate(-519.685 -549.992)" fill="#f8f6de"></path><path id="Path_188" data-name="Path 188" d="M522.523,626.67a4.132,4.132,0,0,0-1.8,1.759,4.668,4.668,0,0,0-.352,2.815,6.889,6.889,0,0,0,.836,1.939,1.34,1.34,0,0,0,1.015.623,1.8,1.8,0,0,0,.924-1.316,9.381,9.381,0,0,1,.623-3.613c.516-1.1-1.246-2.206-1.246-2.206Z" transform="translate(-459.269 -553.089)" fill="#d4c38b"></path><path id="Path_189" data-name="Path 189" d="M537.088,615.457c-.213.124-.569.3-.481.534.089.213.836.352,1.1.873a1.864,1.864,0,0,1,.214,1.37,2.165,2.165,0,0,0,.623-.446c.392-.445.871-1.049,1.281-1.049.267,0,.534.124.784.124.392,0,.782-.124.836-.534.088-.534-.747-1.015-1.228-.925a1.167,1.167,0,0,0-.178-1.228c-.392-.357-1.619.267-1.886.446s-1.067.836-1.067.836Z" transform="translate(-473.655 -541.965)" fill="#e2d59d"></path><path id="Path_190" data-name="Path 190" d="M694.287,938.778,696.92,938l.747.534s.533,1.139,1.37,1.281c-.267.569-.962,1.056-.925,1.459a1.233,1.233,0,0,0,.392.712s-2.367,3.914,2.3,7.859c-1.1.445-2.509,1.056-3.256,1.407a5.765,5.765,0,0,1,2.152.784c.481.432.481.569.925.836s.711.623.623.782c-.3-.178-1.317-.711-1.494-.214s-4.395.3-4.395.3l-7.117,1.37a1.286,1.286,0,0,0-.481-1.37c-.871-.782-1.939.035-3.078-.836-1.494-1.139-1.548-2.456-2.028-2.953a9.407,9.407,0,0,1,3.79-1.056,1.569,1.569,0,0,1-.213-1.192c.213-.623,1.1-1.015.836-1.759.392-.089.569-.089,1.548-1.317.925-1.228,1.494-1.494,2.206-1.583a3.248,3.248,0,0,0,2.456-1.228c.924-.871.623-1.619.623-1.619s.6-.2.392-1.424Z" transform="translate(-602.581 -827.903)" fill="#cbac5a"></path><path id="Path_191" data-name="Path 191" d="M715.135,941.34c.035-.178.178-.267,1.139-.178s7.046-.569,8.7-.658a54.491,54.491,0,0,1,10.427.569c2.865.605,5.765,1.317,7.17,1.673,1.408.392,1.851.533,1.8.711a.515.515,0,0,1-.534.3c-.177-.035-4.839-1.459-6.28-1.759a56.825,56.825,0,0,0-9.149-1.056,47.932,47.932,0,0,0-5.711.213,45.823,45.823,0,0,1-6.779.481c-1.056-.124-.837-.124-.784-.3Z" transform="translate(-631.204 -830.07)" fill="#d6bc6f"></path><path id="Path_192" data-name="Path 192" d="M493.821,1064.631s3.648,1.975,4.965,4.395a1.907,1.907,0,0,1-.569,2.687s2.064,0,1.8,1.139c-.124.711-3.559,2.632-5.854,3.647-2.331,1.015-2.241.962-3.38,1.139-1.1.178-4.129-.352-4.751.534a1.737,1.737,0,0,0-.178,1.94,10.057,10.057,0,0,0,1.62.3s-.3.836-3.291.926-3.737.3-3.915.623c-.178.3.569.124,1.94.352s3.291.352,3.291.352a6.067,6.067,0,0,1-2.241.961c-1.851.48-4.752.926-5.623,1.459a5.189,5.189,0,0,0,1.408.782,8.9,8.9,0,0,0-1.975.712c.266.178.623.392.623.392a12.3,12.3,0,0,1-2.367,2.243c-.871.446-5.889,2.775-7.616,2.331-4.306-1.139-4.839-5.854-5.889-6.209-1.583-.534-2.331.533-3.737-.215a8.784,8.784,0,0,1,1.62-1.013c-.712-.352-4.395-2.687-4.395-2.687a27.319,27.319,0,0,0-1.281-2.455c-.712-1.228-1.759-2.865-2.545-4.307-1.708-3.167-1.8-4.626-3.345-6.423.267-.352,1.192-.3,1.192-.3l12.973,4.271,23,.666,5.982-8.54,2.544.3Z" transform="translate(-395.568 -939.415)" fill="#dfc677"></path><path id="Path_193" data-name="Path 193" d="M547.18,1126.928a2.019,2.019,0,0,0,.48.392,6.975,6.975,0,0,1,1.548,1.192c.178-.266.623-.747,1.407,0s1.759.215,2.366.392c.623.215.658.3.658.3a4.457,4.457,0,0,1,1.139-.623c.481-.178,1.05-.3,1.673-.48a9.367,9.367,0,0,1,1.62-.3c.392.266,1.8,1.76,7.437-.445,5.32-2.064,6.547-2.3,7.438-1.976.089-.214.178-.623,1.548-.569a10.6,10.6,0,0,0-1.139-2.509l-6.281-2.152h-3.435l-10.3,1.886-5.709,3.257-.445,1.642Z" transform="translate(-483 -988.688)" fill="#c4a859"></path><path id="Path_194" data-name="Path 194" d="M517.9,1084.5a3.331,3.331,0,0,0,1.548,1.975,8.911,8.911,0,0,1,1.85,1.619s.267-.352.481-.711c.214-.392.392-.836.747-.961.712-.3,2.331.266,2.687.177.3-.088.214-.711.534-.711.747-.036,1.227.48,1.494.48s.924-.035,1.013-.177.124-1.62,1.139-2.332a3.043,3.043,0,0,1,2.815-.266c0,.266.035.926.747.961a3.627,3.627,0,0,1,1.408.124c.625.214,1.37-.035,1.708,1.014.3-.088,1.015-.177.836-1.192a5.169,5.169,0,0,0,1.407-1.494c.178-.266.48-.569.712-.961a2.9,2.9,0,0,1,2.366.747c-.3.213-.481.352-.569.569a6.41,6.41,0,0,1,.711.836c.267.352.446.783.784.873a29.454,29.454,0,0,0,3.345,0,6.73,6.73,0,0,1,2.9.871c.178-.088.178-.124.623-.035s.782.124.3-.445c.266.124.569.392.836.124a1.744,1.744,0,0,1,1.227-.747c.747-.089,1.015.035,1.317-.747.392-.961-.961-.961-.961-.961s.623-.57,1.317-1.317a6,6,0,0,0,2.028-3.042,2.146,2.146,0,0,0-1.85-2.6l-10.872,3.345-13.292-.659-11.334,5.641Z" transform="translate(-457.154 -949.867)" fill="#927d49"></path><path id="Path_195" data-name="Path 195" d="M415.038,852.467a3.815,3.815,0,0,0-.569,1.494c-.217,1.05-.124.925-.3,1.673s-2.368,8.185-1.547,10.693,2.243,3.434,3.132,5.462a7.892,7.892,0,0,1,.445,1.1c.3,1.316.036,2.331.392,3.648a4.034,4.034,0,0,0,.925,1.494c1.056,1.1,2.776,2.152,3.519,2.9,1.049,1.1,2.544,3.346,4.448,3.559a6.415,6.415,0,0,0,3.648-1.013c1.056-.659,1.708-1.583,2.815-2.111a10.492,10.492,0,0,1,2.366-.712,10.714,10.714,0,0,1,3.791-.178,36.528,36.528,0,0,0,5.982,1.193,16.278,16.278,0,0,0,3.879-.534c2.544-.747,5.622-2.029,7.651-2.6,1.192-.352,2.152-.445,3.132-.658a6.752,6.752,0,0,0,3.879-1.94c-.534-.623-1.192-1.583-4.751-1.548-4.038.089-8.7,2.331-11,2.687s-3.291.658-5.854-.267c-2.512-.935-2.6-1.553-2.6-1.553s-2.638-1.845-3.742-6.548a11.719,11.719,0,0,1,2.865-11.388,1.882,1.882,0,0,0,.569-1.583s1.886-2.544,1.37-4.926c-.569-2.367-4.217-1.886-4.217-1.886l-20.231,3.539Z" transform="translate(-364.06 -749.243)" fill="#6e6342"></path><path id="Path_196" data-name="Path 196" d="M458.935,946.91a1.845,1.845,0,0,0-.213.961c.035.48.178,1.1,1.619,2.509a3.071,3.071,0,0,1,.961,2.6,4.5,4.5,0,0,0,2.3-.66c1.317-.623,1.759.481,1.759.481a3.72,3.72,0,0,1,1.228-.392,2.686,2.686,0,0,0,1.1-.352,15.859,15.859,0,0,0,2.9,2.331c1.228.659,1.94,1.1,2.545.659a1.684,1.684,0,0,0,.533-1.548,4.616,4.616,0,0,0-.533-.925c-.392-.569-1.015-1.228-1.056-1.759-.089-1.227.925-2.687.711-3.043s-1.013-.445-2.989.267c-2.046.676-10.872-1.121-10.872-1.121Z" transform="translate(-404.915 -835.768)" fill="#39331f"></path><path id="Path_197" data-name="Path 197" d="M494.779,972.4s-1.013-.961-.658-5.623a5.792,5.792,0,0,1,1.281.124s.552,3.613-.623,5.5" transform="translate(-436.098 -853.303)" fill="#292311"></path><path id="Path_198" data-name="Path 198" d="M432.891,814.21a2.786,2.786,0,0,0,.392-.352,8.835,8.835,0,0,0-.659,7.437c1.317,4.128,4.626,7.205,8.7,7.348s6.216-1.851,8.666-4.839c.961-1.192,2.064-2.687,3.043-3.7,1.459-1.585,2.6-2.029,2.6-3.559,0-3.132-3.2-4.538-7.918-5.943s-8.968-1.232-11.174-.27a6.111,6.111,0,0,0-3.648,3.879Z" transform="translate(-381.433 -714.545)" fill="#252211"></path><path id="Path_199" data-name="Path 199" d="M567.784,1015.043l.352-.178s.088-1.407.658-1.37a1.1,1.1,0,0,1,.782,1.1.66.66,0,0,1-.747.658,1.749,1.749,0,0,1-1.049-.214Z" transform="translate(-501.184 -894.542)" fill="#3f3824"></path><path id="Path_200" data-name="Path 200" d="M554.31,975.6s.352-.124.782.3a6.38,6.38,0,0,1,2.367.124,1.8,1.8,0,0,1,.623.569,6.183,6.183,0,0,1-2.776,0c-1-.338-1-1-1-1" transform="translate(-489.294 -861.081)" fill="#2d2815"></path><path id="Path_201" data-name="Path 201" d="M598.936,969.155a4.4,4.4,0,0,0-1.975-.962c-.178-.035-.215.089-.352.089-.089-.035-.124-.3-.124-.3l-.577.3s-.089.124.213.352c.266.213.712.392.836.747a3.071,3.071,0,0,0,.178.534,1.9,1.9,0,0,0,.961-.178c.3-.178.873-.469.836-.586Z" transform="translate(-526.002 -854.366)" fill="#82764f"></path><path id="Path_202" data-name="Path 202" d="M545.21,999.125a1.5,1.5,0,0,1,1.37-1.281,1.374,1.374,0,0,1,1.459,1.1l-.712.712c0-.018-.534-.765-2.111-.534Z" transform="translate(-481.261 -880.723)" fill="#2d2816"></path><path id="Path_203" data-name="Path 203" d="M593.723,957.623a3.718,3.718,0,0,1-2.117.925.839.839,0,0,1,0-1.1c.392-.569.836-.747,1.281-.57a1.041,1.041,0,0,1,.836.747" transform="translate(-522.034 -844.507)" fill="#574f35"></path><path id="Path_204" data-name="Path 204" d="M631.832,954.709c.036-.178-.088-.213,0-.3s.57-.266.659-.178c.035.036,0,.178,0,.352a.843.843,0,0,1-.089.48.72.72,0,0,1-.658.215c-.178-.053-.214-.3-.214-.352.088-.035.3-.124.3-.213m3.038-1.921c0-.089.3-.267.481-.267.266,0,.266.214.3.267.088.035.088-.036.177.124s.215.445.124.623a.649.649,0,0,1-.532.266,4.734,4.734,0,0,1-.552-1.013" transform="translate(-557.457 -840.72)" fill="#82764f"></path><path id="Path_205" data-name="Path 205" d="M607.86,974.661a2.483,2.483,0,0,1,.925.534c-.178.124-.446.266-.446.266a1.333,1.333,0,0,0-.48-.8Z" transform="translate(-536.563 -860.263)" fill="#6e6342"></path><path id="Path_206" data-name="Path 206" d="M600.324,901.351c-.089-.088.266-.3.48-.266s.3.178.534.214.267-.089.352-.178.392-.035.445,0a.992.992,0,0,1,.089.124.492.492,0,0,1,.177-.352.562.562,0,0,1,.481-.089,2.639,2.639,0,0,1,.178.658c-.035.089-.569.215-.659.124a6.335,6.335,0,0,0,.534.747c.053.088-.392.3-.569.267a7.257,7.257,0,0,1-2.046-1.246Zm2.331-2.953a.414.414,0,0,0-.178-.214c-.124-.035-.534,0-.534.214a6.6,6.6,0,0,0,.747,2.029c.446.623.747,1.138,1.05,1.281a.413.413,0,0,0,.534-.178,10.771,10.771,0,0,0,.089-2.3,21.1,21.1,0,0,0-.178-3.132.474.474,0,0,0-.569.089,16.635,16.635,0,0,0-.962,2.206Z" transform="translate(-529.898 -790.868)" fill="#585136"></path><path id="Path_207" data-name="Path 207" d="M593.539,992.141a1.441,1.441,0,0,0-1.228-.124c-.569.267-.534,1.317-.534,1.317a.844.844,0,0,0,.784-.089,2.391,2.391,0,0,0,.978-1.1Z" transform="translate(-522.366 -875.501)" fill="#574f35"></path><path id="Path_208" data-name="Path 208" d="M614.162,947.176c-.035-.352-.352-.352-.352-.534a.4.4,0,0,1,.391-.3c.178,0,.352.214.57.352s.534.352.569.623-.352,1.013-.782,1.013-.3-.8-.392-1.156Zm3.434-.481s-.712.214-.659,0,.215-.266.446-.266a.7.7,0,0,1,.445-.215.386.386,0,0,1,.266.089s.481-.214.623-.089.036.124.124.267a1.252,1.252,0,0,1,.215.534c0,.142-.534.445-.962.392-.5-.107-.409-.623-.5-.712m4.145-.8s.213.124.036.267a2.9,2.9,0,0,1-1.282.392c-.534,0-1.013.088-1.013-.089s.445-.534.711-.623a.568.568,0,0,1,.446-.213c.214,0,1.049-.089,1.281-.124.213-.036.392.088.266.266C622.133,945.894,621.741,945.894,621.741,945.894Zm1.228-5.494s-.267.569-.569.569c-.3-.035-.3-.124-.3-.214,0-.124.3-.445.266-.534-.088,0-.3,0-.266-.214,0-.178.3-.392.569-.352a1.172,1.172,0,0,1,.712-.266c.3,0,.569.088.569.266s-.352.569-.481.659c-.142.142-.32.235-.5.088Zm-4.057,10.515s-.352.036-.352.214c0,.089.088.089.213.036a.969.969,0,0,0,.213-.036c.035.036.035.213.3.213a1.689,1.689,0,0,0,.623-.213c.214-.088.392-.178.392-.352a.529.529,0,0,0-.534-.446.709.709,0,0,0-.392.089s-.089-.178-.392,0-.267.178-.178.267c.159.142.107.235.107.235Zm-2.01,1.851c0-.089.445-.267.569-.214a2.269,2.269,0,0,1,.48.782c0,.089-.445.3-.623.3a.824.824,0,0,1-.48-.352c0-.035.213-.088.213-.124.053-.088-.159-.3-.159-.392Zm-1.408-2.6c.089-.035.089-.124.214-.214a.307.307,0,0,1,.267-.035.433.433,0,0,1,.3-.215c.214-.035.392,0,.352.089,0,.267.178.445.178.658s-.124.481-.569.659a3.145,3.145,0,0,1-1.139.089.586.586,0,0,1-.089-.57,1.478,1.478,0,0,1,.481-.462Z" transform="translate(-541.815 -829.13)" fill="#82764f"></path><path id="Path_209" data-name="Path 209" d="M630.453,1032.31s-.3.178-.3.267a.791.791,0,0,0-.035.266c0,.053.392-.035.445-.089.018-.035-.107-.352-.107-.445" transform="translate(-556.207 -911.151)" fill="#6e6342"></path><path id="Path_210" data-name="Path 210" d="M604.529,1024.48a3.745,3.745,0,0,1,.711.089c.178.089.3.267.124.481s-.352.534-.747.48c-.445-.035-.872-.266-.872-.444a.853.853,0,0,1,.214-.623c.178-.142.266-.053.569.018Z" transform="translate(-532.93 -904.157)" fill="#585136"></path><path id="Path_211" data-name="Path 211" d="M589.84,1026.7a5.02,5.02,0,0,0-.712.659c-.178.214-1.05,1.316-1.316,1.547a3.35,3.35,0,0,1,.3-.444,1.82,1.82,0,0,0-.747.961c-.214.659,1.193,1.015,2.117,1.282s1.282.352,1.282.352a9.933,9.933,0,0,1-.873-1.619c-.352-.836-.534-.926-.3-1.317.178-.392.446-.658.446-.961-.107-.281-.2-.46-.2-.46" transform="translate(-518.454 -906.199)" fill="#574f35"></path><path id="Path_212" data-name="Path 212" d="M435.662,1031.957a1.083,1.083,0,0,0,.392,0,18.124,18.124,0,0,1,5.943-.873,31.8,31.8,0,0,1,6.423,1.056c3.648.961,8.185,2.864,11.12,3.95.782.3,1.548.836,2.111,1.049a13.438,13.438,0,0,0,3.648,1.1,14.266,14.266,0,0,0,4.787-.658c2.028-.446,5.5-.659,8.54-1.1a17.47,17.47,0,0,0,2.9-.658s-2.42,2.42-8.221,3.291a25.716,25.716,0,0,1-7.081.089,21.613,21.613,0,0,1-4-.712c-1.05-.3-3.2-1.1-5.854-1.76-1.851-.481-3.915-.836-6.281-1.281-5.836-1.068-12.17-2.3-14.427-3.487Z" transform="translate(-384.561 -910.05)" fill="#252211"></path><path id="Path_213" data-name="Path 213" d="M246.067,944.94c-1.408,1.192-2.9,2.331-4.359,3.433l-4.395,3.377c-1.494,1.1-2.953,2.242-4.449,3.345s-2.989,2.152-4.574,3.167c1.408-1.192,2.9-2.3,4.395-3.38s3.044-2.149,4.485-3.249l4.395-3.382c1.512-1.1,2.971-2.241,4.5-3.309ZM238.292,957.4s1.583-1.317,3.559-3.167c2.455-2.294,5.462-5.231,6.423-5.764L238.29,957.4Z" transform="translate(-201.513 -834.029)" fill="#cfb66c"></path><path id="Path_214" data-name="Path 214" d="M313.56,983.628c.784-.782,1.62-1.547,2.456-2.3l1.281-1.1c.392-.352.837-.747,1.228-1.139.782-.782,1.548-1.62,2.331-2.42a14.939,14.939,0,0,1,1.228-1.139,3.322,3.322,0,0,1,.711-.481,2.081,2.081,0,0,1,.747-.392c-.177.267-.391.392-.569.623-.214.178-.392.392-.569.569-.392.392-.836.747-1.228,1.1-.836.712-1.708,1.407-2.544,2.152s-1.619,1.548-2.456,2.3c-.907.766-1.743,1.513-2.616,2.229Zm10.641-7.117s-5.8,5.677-6.993,6.6Z" transform="translate(-276.782 -860.263)" fill="#cfb66c"></path><path id="Path_215" data-name="Path 215" d="M351.653,990.44a18.956,18.956,0,0,1-1.675,1.708l-1.759,1.673c-.569.569-1.1,1.139-1.708,1.708-.623.534-1.192,1.056-1.851,1.548l1.708-1.673c.57-.569,1.193-1.048,1.8-1.619l1.708-1.673c.586-.586,1.157-1.156,1.779-1.673m.266,3.078a36.989,36.989,0,0,1-1.886,4.36c-1.494,2.99-3.736,6.726-4.715,8.63Z" transform="translate(-304.234 -874.192)" fill="#cfb66c"></path><path id="Path_216" data-name="Path 216" d="M357,1016.69a5,5,0,0,1-.392,1.8,17.676,17.676,0,0,1-.711,1.673c-.267.534-.57,1.1-.873,1.62s-.658,1.049-.925,1.583l-1.8,3.167c-.623,1.056-1.228,2.117-1.886,3.132a29.024,29.024,0,0,1,1.62-3.256c.623-1.056,1.192-2.111,1.759-3.2a18.074,18.074,0,0,0,.747-1.671c.266-.57.533-1.1.747-1.62.266-.569.48-1.1.747-1.619a10.476,10.476,0,0,1,.961-1.6Z" transform="translate(-309.319 -897.363)" fill="#cfb66c"></path><path id="Path_217" data-name="Path 217" d="M448.55,1141.08a8.807,8.807,0,0,0-1.583,5.284c.48-1.547,1.085-3.914,1.583-5.284m1.673,2.336s-.623,6.334-1.139,9.448a38.154,38.154,0,0,0,1.139-9.448m11.654,9.822s-2.633,7.741-2.687,9.892c.57-2.212,1.673-6.731,2.687-9.9Z" transform="translate(-394.53 -1007.163)" fill="#dec270"></path><path id="Path_218" data-name="Path 218" d="M626.67,1137s4.271,7.046,7.474,13.059A29.626,29.626,0,0,0,626.67,1137" transform="translate(-553.167 -1003.562)" fill="#cbaf59"></path><path id="Path_219" data-name="Path 219" d="M724.52,1225.43a129.6,129.6,0,0,1,6.334,12.793,19.553,19.553,0,0,0-6.334-12.793" transform="translate(-639.54 -1081.62)" fill="#e3c677"></path><path id="Path_220" data-name="Path 220" d="M888.786,1022.406c.711-.445,2.117-2.865,3.345-3.469,1.227-.623,2.152-.747,3.256-1.975,1.1-1.282,1.408-2.064,3.825-3.078,3.382-1.46,1.056-3.346,1.056-3.346a10.909,10.909,0,0,1,1.192-1.013c.873-.658,1.886-1.459,1.8-2.865-.124-2.366-.569-5.8-2.509-7.793,1.886-.392,5.5-.658,7.741-1.227a11.062,11.062,0,0,0,3.79-1.585,4.32,4.32,0,0,1,.925-5.106c2.42-2.562,4.395-4.092,5.854-6.958-1.673-.214-4.223-1.1-10.73,1.37a8.165,8.165,0,0,1,1.015.569s-4,1.1-5.462,2.332c-2.545,2.152-2.865,3.914-5.623,5.231s-5.534.961-7.828,2.028-2.633,1.975-3.471,2.367c.178.214-.035.569.3.872-.214.3-1.459,2.331-2.722,2.331.124.481,1.192.836,1.192.836a5.738,5.738,0,0,1-2.775.712,20.2,20.2,0,0,0,4.626,3.879c-.213.445-1.1,1.1-.747,1.94.392.836,1.407,1.975,5.462,2.9a35.846,35.846,0,0,1-7.741.124c-3.256-.392-3.79-.623-5.8-.124.214.214.782.214,1.281.782-.534.035-3.879-.392-5.018,1.1a9.7,9.7,0,0,0-1.619,5.8,1.515,1.515,0,0,0-.925,1.94c.3,1.1,1.886,1.459,2.9,2.152,1.013.747,1.1,1.013,2.064.836,1.013-.214,2.508-1.227,3.38-1.227a2.273,2.273,0,0,1,1.494.658s2.367-1.139,2.6-.925c.214.214.035,1.583.266,1.8.235.161,2.9-1.423,3.613-1.868Z" transform="translate(-770.07 -868.207)" fill="#ecd592"></path><g id="Group_38" data-name="Group 38" transform="translate(53.396 48.955)" opacity="0.8"><g id="Group_37" data-name="Group 37"><g id="Group_36" data-name="Group 36" clip-path="url(#clip-path-3)"><path id="Path_221" data-name="Path 221" d="M572.285,450.758c-11.12-28.718-38.611-34.038-38.611-34.038H455.241l.3,29.251h15.62V511.29H455.24v29.2H531.5c18.38,0,33.113-18.47,33.113-18.47,23.593-33.486,7.669-71.261,7.669-71.261ZM531.911,502.34s-5.982,8.63-12.49,8.63H506.4l-.308-64.927H522.8s7.741,1.619,13.15,16.938c0,0,7.17,21.934-4.04,39.359" transform="translate(-455.24 -416.72)" fill="#fff"></path></g></g></g></g></g></g></g></svg>