<svg xmlns="http://www.w3.org/2000/svg" width="108" height="33" viewBox="0 0 108 33" fill="none"><path d="M54.5087 17.7006C52.6271 17.7006 51.0935 19.1318 51.0935 21.103C51.0935 23.0622 52.6271 24.5054 54.5087 24.5054C56.3911 24.5054 57.9247 23.0622 57.9247 21.103C57.9239 19.1318 56.3903 17.7006 54.5087 17.7006ZM54.5087 23.1662C53.4775 23.1662 52.5887 22.3158 52.5887 21.1038C52.5887 19.879 53.4783 19.0414 54.5087 19.0414C55.5399 19.0414 56.4287 19.879 56.4287 21.1038C56.4287 22.315 55.5399 23.1662 54.5087 23.1662ZM47.0575 17.7006C45.1759 17.7006 43.6423 19.1318 43.6423 21.103C43.6423 23.0622 45.1759 24.5054 47.0575 24.5054C48.9399 24.5054 50.4735 23.0622 50.4735 21.103C50.4735 19.1318 48.9399 17.7006 47.0575 17.7006ZM47.0575 23.1662C46.0263 23.1662 45.1375 22.3158 45.1375 21.1038C45.1375 19.879 46.0271 19.0414 47.0575 19.0414C48.0887 19.0414 48.9775 19.879 48.9775 21.1038C48.9783 22.315 48.0887 23.1662 47.0575 23.1662ZM38.1951 18.7454V20.1886H41.6495C41.5463 21.0006 41.2759 21.5934 40.8631 22.0054C40.3607 22.5078 39.5743 23.0622 38.1951 23.0622C36.0687 23.0622 34.4063 21.3478 34.4063 19.2214C34.4063 17.095 36.0687 15.3806 38.1951 15.3806C39.3423 15.3806 40.1799 15.8318 40.7983 16.4118L41.8167 15.3934C40.9527 14.5686 39.8063 13.9374 38.1951 13.9374C35.2823 13.9374 32.8335 16.3086 32.8335 19.2214C32.8335 22.1342 35.2823 24.5054 38.1951 24.5054C39.7671 24.5054 40.9535 23.9894 41.8807 23.023C42.8343 22.0694 43.1311 20.7286 43.1311 19.6462C43.1311 19.3118 43.1055 19.0022 43.0535 18.7446H38.1951V18.7454ZM74.4415 19.8662C74.1583 19.1062 73.2943 17.7006 71.5287 17.7006C69.7759 17.7006 68.3191 19.0798 68.3191 21.103C68.3191 23.0102 69.7631 24.5054 71.6959 24.5054C73.2551 24.5054 74.1575 23.5518 74.5319 22.9974L73.3719 22.2238C72.9855 22.791 72.4567 23.1646 71.6959 23.1646C70.9359 23.1646 70.3943 22.8166 70.0463 22.1334L74.5959 20.2518L74.4415 19.8662ZM69.8015 21.0006C69.7631 19.6854 70.8199 19.0158 71.5807 19.0158C72.1735 19.0158 72.6759 19.3126 72.8439 19.7374L69.8015 21.0006ZM66.1031 24.2998H67.5975V14.299H66.1031V24.2998ZM63.6535 18.4614H63.6023C63.2671 18.0614 62.6223 17.7006 61.8111 17.7006C60.1095 17.7006 58.5503 19.1958 58.5503 21.1166C58.5503 23.0238 60.1095 24.5062 61.8111 24.5062C62.6231 24.5062 63.2671 24.1454 63.6023 23.7334H63.6535V24.223C63.6535 25.5246 62.9575 26.2206 61.8367 26.2206C60.9215 26.2206 60.3543 25.5638 60.1223 25.0094L58.8207 25.551C59.1943 26.4526 60.1863 27.5614 61.8367 27.5614C63.5895 27.5614 65.0719 26.5302 65.0719 24.0166V17.9078H63.6543V18.4614H63.6535ZM61.9399 23.1662C60.9087 23.1662 60.0455 22.3022 60.0455 21.1166C60.0455 19.9174 60.9087 19.0414 61.9399 19.0414C62.9575 19.0414 63.7567 19.9174 63.7567 21.1166C63.7567 22.3022 62.9575 23.1662 61.9399 23.1662ZM81.4447 14.299H77.8679V24.2998H79.3599V20.511H81.4439C83.0983 20.511 84.7255 19.3134 84.7255 17.4054C84.7255 15.4974 83.0991 14.299 81.4447 14.299ZM81.4831 19.119H79.3599V15.691H81.4831C82.5991 15.691 83.2327 16.615 83.2327 17.4054C83.2327 18.1798 82.5991 19.119 81.4831 19.119ZM90.7087 17.683C89.6279 17.683 88.5087 18.159 88.0455 19.2142L89.3703 19.767C89.6535 19.2142 90.1815 19.0334 90.7343 19.0334C91.5063 19.0334 92.2911 19.4966 92.3039 20.3198V20.423C92.0335 20.2686 91.4543 20.0374 90.7471 20.0374C89.3191 20.0374 87.8647 20.8222 87.8647 22.2886C87.8647 23.627 89.0359 24.4886 90.3479 24.4886C91.3511 24.4886 91.9047 24.0382 92.2519 23.5102H92.3031V24.2822H93.7447V20.4478C93.7455 18.6734 92.4191 17.683 90.7087 17.683ZM90.5279 23.1638C90.0399 23.1638 89.3575 22.919 89.3575 22.3142C89.3575 21.5422 90.2071 21.2462 90.9407 21.2462C91.5959 21.2462 91.9055 21.3878 92.3039 21.5806C92.1879 22.5078 91.3903 23.1638 90.5279 23.1638ZM98.9943 17.9014L97.2831 22.2374H97.2319L95.4559 17.9014H93.8479L96.5111 23.9614L94.9927 27.3326H96.5495L100.654 17.9014H98.9943ZM85.5495 24.2998H87.0415V14.299H85.5495V24.2998Z" fill="#ADB3B7"></path><path d="M37.9343 8.4941C37.9343 9.1645 37.7359 9.6981 37.3383 10.0965C36.8871 10.5701 36.2983 10.8069 35.5751 10.8069C34.8823 10.8069 34.2927 10.5669 33.8087 10.0869C33.3239 9.60609 33.0815 9.0109 33.0815 8.3005C33.0815 7.5893 33.3239 6.9941 33.8087 6.5141C34.2927 6.0333 34.8823 5.7933 35.5751 5.7933C35.9191 5.7933 36.2479 5.8605 36.5599 5.9941C36.8727 6.1285 37.1231 6.3069 37.3103 6.5301L36.8887 6.9525C36.5711 6.5725 36.1335 6.3829 35.5743 6.3829C35.0687 6.3829 34.6319 6.5605 34.2631 6.9157C33.8943 7.2709 33.7103 7.7325 33.7103 8.2997C33.7103 8.8669 33.8943 9.3285 34.2631 9.6837C34.6319 10.0389 35.0687 10.2165 35.5743 10.2165C36.1103 10.2165 36.5575 10.0381 36.9151 9.6805C37.1471 9.4477 37.2815 9.1237 37.3175 8.7085H35.5743V8.1317H37.8999C37.9239 8.2573 37.9343 8.3781 37.9343 8.4941Z" fill="#ADB3B7"></path><path d="M41.6224 6.48934H39.4368V8.01094H41.408V8.58774H39.4368V10.1093H41.6224V10.6997H38.82V5.89974H41.6224V6.48934Z" fill="#ADB3B7"></path><path d="M44.2231 10.6997H43.6063V6.48934H42.2655V5.89974H45.5639V6.48934H44.2231V10.6997Z" fill="#ADB3B7"></path><path d="M47.9503 10.6997V5.89974H48.5671V10.6997H47.9503Z" fill="#ADB3B7"></path><path d="M51.3024 10.6997H50.6856V6.48934H49.3448V5.89974H52.6432V6.48934H51.3024V10.6997Z" fill="#ADB3B7"></path><path d="M58.887 10.0797C58.415 10.5645 57.8286 10.8069 57.127 10.8069C56.4254 10.8069 55.839 10.5645 55.3678 10.0797C54.8958 9.59493 54.6606 9.00133 54.6606 8.29973C54.6606 7.59813 54.8958 7.00453 55.3678 6.51973C55.839 6.03493 56.4254 5.79173 57.127 5.79173C57.8246 5.79173 58.4102 6.03573 58.8838 6.52293C59.3574 7.01013 59.5942 7.60213 59.5942 8.29973C59.5942 9.00133 59.3582 9.59493 58.887 10.0797ZM55.823 9.67733C56.1782 10.0373 56.6126 10.2165 57.127 10.2165C57.6414 10.2165 58.0766 10.0365 58.431 9.67733C58.7862 9.31733 58.9646 8.85813 58.9646 8.29973C58.9646 7.74133 58.7862 7.28213 58.431 6.92213C58.0766 6.56213 57.6414 6.38293 57.127 6.38293C56.6126 6.38293 56.1782 6.56293 55.823 6.92213C55.4686 7.28213 55.2902 7.74133 55.2902 8.29973C55.2902 8.85813 55.4686 9.31733 55.823 9.67733Z" fill="#ADB3B7"></path><path d="M60.4599 10.6997V5.89974H61.2103L63.5431 9.63334H63.5695L63.5431 8.70854V5.89974H64.1599V10.6997H63.5159L61.0751 6.78454H61.0487L61.0751 7.70934V10.6997H60.4599Z" fill="#ADB3B7"></path><path d="M37.9343 8.4941C37.9343 9.1645 37.7359 9.6981 37.3383 10.0965C36.8871 10.5701 36.2983 10.8069 35.5751 10.8069C34.8823 10.8069 34.2927 10.5669 33.8087 10.0869C33.3239 9.60609 33.0815 9.0109 33.0815 8.3005C33.0815 7.5893 33.3239 6.9941 33.8087 6.5141C34.2927 6.0333 34.8823 5.7933 35.5751 5.7933C35.9191 5.7933 36.2479 5.8605 36.5599 5.9941C36.8727 6.1285 37.1231 6.3069 37.3103 6.5301L36.8887 6.9525C36.5711 6.5725 36.1335 6.3829 35.5743 6.3829C35.0687 6.3829 34.6319 6.5605 34.2631 6.9157C33.8943 7.2709 33.7103 7.7325 33.7103 8.2997C33.7103 8.8669 33.8943 9.3285 34.2631 9.6837C34.6319 10.0389 35.0687 10.2165 35.5743 10.2165C36.1103 10.2165 36.5575 10.0381 36.9151 9.6805C37.1471 9.4477 37.2815 9.1237 37.3175 8.7085H35.5743V8.1317H37.8999C37.9239 8.2573 37.9343 8.3781 37.9343 8.4941Z" stroke="#ADB3B7" stroke-width="0.16" stroke-miterlimit="10"></path><path d="M41.6224 6.48934H39.4368V8.01094H41.408V8.58774H39.4368V10.1093H41.6224V10.6997H38.82V5.89974H41.6224V6.48934Z" stroke="#ADB3B7" stroke-width="0.16" stroke-miterlimit="10"></path><path d="M44.2231 10.6997H43.6063V6.48934H42.2655V5.89974H45.5639V6.48934H44.2231V10.6997Z" stroke="#ADB3B7" stroke-width="0.16" stroke-miterlimit="10"></path><path d="M47.9503 10.6997V5.89974H48.5671V10.6997H47.9503Z" stroke="#ADB3B7" stroke-width="0.16" stroke-miterlimit="10"></path><path d="M51.3024 10.6997H50.6856V6.48934H49.3448V5.89974H52.6432V6.48934H51.3024V10.6997Z" stroke="#ADB3B7" stroke-width="0.16" stroke-miterlimit="10"></path><path d="M58.887 10.0797C58.415 10.5645 57.8286 10.8069 57.127 10.8069C56.4254 10.8069 55.839 10.5645 55.3678 10.0797C54.8958 9.59493 54.6606 9.00133 54.6606 8.29973C54.6606 7.59813 54.8958 7.00453 55.3678 6.51973C55.839 6.03493 56.4254 5.79173 57.127 5.79173C57.8246 5.79173 58.4102 6.03573 58.8838 6.52293C59.3574 7.01013 59.5942 7.60213 59.5942 8.29973C59.5942 9.00133 59.3582 9.59493 58.887 10.0797ZM55.823 9.67733C56.1782 10.0373 56.6126 10.2165 57.127 10.2165C57.6414 10.2165 58.0766 10.0365 58.431 9.67733C58.7862 9.31733 58.9646 8.85813 58.9646 8.29973C58.9646 7.74133 58.7862 7.28213 58.431 6.92213C58.0766 6.56213 57.6414 6.38293 57.127 6.38293C56.6126 6.38293 56.1782 6.56293 55.823 6.92213C55.4686 7.28213 55.2902 7.74133 55.2902 8.29973C55.2902 8.85813 55.4686 9.31733 55.823 9.67733Z" stroke="#ADB3B7" stroke-width="0.16" stroke-miterlimit="10"></path><path d="M60.4599 10.6997V5.89974H61.2103L63.5431 9.63334H63.5695L63.5431 8.70854V5.89974H64.1599V10.6997H63.5159L61.0751 6.78454H61.0487L61.0751 7.70934V10.6997H60.4599Z" stroke="#ADB3B7" stroke-width="0.16" stroke-miterlimit="10"></path><path fill-rule="evenodd" clip-rule="evenodd" d="M8.14667 6.56023C8.05219 6.77423 8 7.03642 8 7.3414V25.0342C8 25.3399 8.05225 25.6021 8.14684 25.816L17.7739 16.1875L8.14667 6.56023ZM8.70281 26.3914C9.05966 26.5441 9.52518 26.4957 10.0328 26.2078L21.3584 19.772L18.3396 16.7532L8.70281 26.3914ZM22.0804 19.3626L25.6336 17.3438C26.7512 16.7078 26.7512 15.6686 25.6336 15.0334L22.0788 13.0135L18.9053 16.1875L22.0804 19.3626ZM21.3574 12.6035L10.0328 6.16861C9.52515 5.88014 9.05962 5.83201 8.70276 5.98495L18.3396 15.6218L21.3574 12.6035Z" fill="#ADB3B7"></path><rect x="0.4" y="0.699744" width="107.2" height="31.2" rx="3.6" stroke="#ADB3B7" stroke-width="0.8"></rect></svg>