<svg xmlns="http://www.w3.org/2000/svg" width="210" height="80" viewBox="0 0 210 80" fill="none"><path d="M53.2021 75.5417V71.0897C53.2021 70.6672 53.1637 70.2613 53.0869 69.8718C53.0156 69.4822 52.8867 69.1339 52.7001 68.8267C52.5191 68.5139 52.2722 68.2671 51.9595 68.086C51.6523 67.905 51.2628 67.8145 50.791 67.8145C50.4234 67.8145 50.0888 67.8776 49.787 68.0037C49.4908 68.1244 49.2357 68.311 49.0217 68.5633C48.8077 68.8157 48.6404 69.1339 48.5197 69.5179C48.4045 69.8964 48.3469 70.3436 48.3469 70.8593L47.3841 70.563C47.3841 69.7017 47.5377 68.9638 47.8449 68.3494C48.1576 67.7294 48.5938 67.2549 49.1534 66.9257C49.7184 66.5911 50.3823 66.4237 51.1448 66.4237C51.7209 66.4237 52.2119 66.5143 52.6178 66.6953C53.0238 66.8763 53.3612 67.1177 53.63 67.4195C53.8989 67.7157 54.1101 68.0504 54.2637 68.4234C54.4173 68.791 54.5243 69.1668 54.5846 69.5508C54.6505 69.9294 54.6834 70.2887 54.6834 70.6288V75.5417H53.2021ZM46.8657 75.5417V66.6542H48.1823V69.0324H48.3469V75.5417H46.8657Z" fill="white"></path><path d="M40.1424 75.7885C39.4786 75.7885 38.9218 75.6678 38.4719 75.4265C38.0275 75.1796 37.6901 74.8559 37.4597 74.4554C37.2348 74.0549 37.1223 73.616 37.1223 73.1387C37.1223 72.6724 37.2101 72.2692 37.3856 71.9291C37.5667 71.5834 37.8191 71.2982 38.1427 71.0732C38.4664 70.8428 38.8532 70.6618 39.303 70.5301C39.7255 70.4149 40.1973 70.3161 40.7185 70.2339C41.2451 70.1461 41.7773 70.0665 42.3149 69.9952C42.8526 69.9239 43.3545 69.8553 43.8209 69.7895L43.2942 70.094C43.3106 69.304 43.1516 68.7197 42.8169 68.3411C42.4877 67.9626 41.9172 67.7733 41.1052 67.7733C40.5676 67.7733 40.0958 67.8968 39.6898 68.1436C39.2893 68.385 39.0068 68.78 38.8422 69.3286L37.4515 68.909C37.6654 68.1299 38.0796 67.5182 38.6941 67.0738C39.3085 66.6295 40.1177 66.4073 41.1217 66.4073C41.9281 66.4073 42.6194 66.5527 43.1954 66.8434C43.777 67.1287 44.1939 67.5621 44.4463 68.1436C44.5725 68.4179 44.652 68.7169 44.6849 69.0406C44.7178 69.3588 44.7343 69.6935 44.7343 70.0446V75.5417H43.4341V73.4103L43.7386 73.6078C43.4039 74.3265 42.9348 74.8696 42.3314 75.2372C41.7334 75.6048 41.0037 75.7885 40.1424 75.7885ZM40.3646 74.5624C40.8913 74.5624 41.3466 74.4691 41.7306 74.2826C42.1202 74.0906 42.4329 73.841 42.6688 73.5337C42.9047 73.221 43.0583 72.8809 43.1296 72.5133C43.2119 72.239 43.2558 71.9345 43.2613 71.5999C43.2722 71.2598 43.2777 70.9992 43.2777 70.8181L43.7879 71.0403C43.3106 71.1061 42.8416 71.1692 42.3808 71.2296C41.9199 71.2899 41.4838 71.3558 41.0723 71.4271C40.6609 71.4929 40.2905 71.5725 39.9614 71.6657C39.72 71.7425 39.4923 71.8413 39.2784 71.962C39.0699 72.0827 38.8998 72.239 38.7681 72.431C38.642 72.6176 38.5789 72.8507 38.5789 73.1305C38.5789 73.3719 38.6392 73.6023 38.7599 73.8218C38.8861 74.0412 39.0781 74.2195 39.336 74.3567C39.5993 74.4938 39.9422 74.5624 40.3646 74.5624Z" fill="white"></path><path d="M176.699 79.4917L178.419 74.8175L178.443 76.2L174.559 66.6542H176.098L179.143 74.332H178.616L181.472 66.6542H182.961L178.122 79.4917H176.699Z" fill="white"></path><path d="M172.165 75.5417V71.0897C172.165 70.6672 172.127 70.2613 172.05 69.8718C171.978 69.4822 171.85 69.1339 171.663 68.8267C171.482 68.5139 171.235 68.2671 170.922 68.086C170.615 67.905 170.226 67.8145 169.754 67.8145C169.386 67.8145 169.052 67.8776 168.75 68.0037C168.454 68.1244 168.199 68.311 167.985 68.5633C167.771 68.8157 167.603 69.1339 167.483 69.5179C167.367 69.8964 167.31 70.3436 167.31 70.8593L166.347 70.563C166.347 69.7017 166.501 68.9638 166.808 68.3494C167.121 67.7294 167.557 67.2549 168.116 66.9257C168.681 66.5911 169.345 66.4237 170.108 66.4237C170.684 66.4237 171.175 66.5143 171.581 66.6953C171.987 66.8763 172.324 67.1177 172.593 67.4195C172.862 67.7157 173.073 68.0504 173.227 68.4234C173.38 68.791 173.487 69.1668 173.548 69.5508C173.613 69.9294 173.646 70.2887 173.646 70.6288V75.5417H172.165ZM165.829 75.5417V66.6542H167.145V69.0324H167.31V75.5417H165.829Z" fill="white"></path><path d="M159.105 75.7885C158.442 75.7885 157.885 75.6678 157.435 75.4265C156.99 75.1796 156.653 74.8559 156.423 74.4554C156.198 74.0549 156.085 73.616 156.085 73.1387C156.085 72.6724 156.173 72.2692 156.349 71.9291C156.53 71.5834 156.782 71.2982 157.106 71.0732C157.429 70.8428 157.816 70.6618 158.266 70.5301C158.688 70.4149 159.16 70.3161 159.681 70.2339C160.208 70.1461 160.74 70.0665 161.278 69.9952C161.815 69.9239 162.317 69.8553 162.784 69.7895L162.257 70.094C162.274 69.304 162.114 68.7197 161.78 68.3411C161.451 67.9626 160.88 67.7733 160.068 67.7733C159.531 67.7733 159.059 67.8968 158.653 68.1436C158.252 68.385 157.97 68.78 157.805 69.3286L156.414 68.909C156.628 68.1299 157.043 67.5182 157.657 67.0738C158.271 66.6295 159.081 66.4073 160.085 66.4073C160.891 66.4073 161.582 66.5527 162.158 66.8434C162.74 67.1287 163.157 67.5621 163.409 68.1436C163.535 68.4179 163.615 68.7169 163.648 69.0406C163.681 69.3588 163.697 69.6935 163.697 70.0446V75.5417H162.397V73.4103L162.701 73.6078C162.367 74.3265 161.898 74.8696 161.294 75.2372C160.696 75.6048 159.967 75.7885 159.105 75.7885ZM159.328 74.5624C159.854 74.5624 160.31 74.4691 160.694 74.2826C161.083 74.0906 161.396 73.841 161.632 73.5337C161.868 73.221 162.021 72.8809 162.093 72.5133C162.175 72.239 162.219 71.9345 162.224 71.5999C162.235 71.2598 162.241 70.9992 162.241 70.8181L162.751 71.0403C162.274 71.1061 161.805 71.1692 161.344 71.2296C160.883 71.2899 160.447 71.3558 160.035 71.4271C159.624 71.4929 159.253 71.5725 158.924 71.6657C158.683 71.7425 158.455 71.8413 158.241 71.962C158.033 72.0827 157.863 72.239 157.731 72.431C157.605 72.6176 157.542 72.8507 157.542 73.1305C157.542 73.3719 157.602 73.6023 157.723 73.8218C157.849 74.0412 158.041 74.2195 158.299 74.3567C158.562 74.4938 158.905 74.5624 159.328 74.5624Z" fill="white"></path><path d="M150.792 75.7885C149.958 75.7885 149.256 75.5828 148.685 75.1714C148.115 74.7544 147.681 74.1921 147.385 73.4844C147.094 72.7712 146.949 71.9729 146.949 71.0897C146.949 70.1954 147.094 69.3945 147.385 68.6868C147.681 67.9791 148.115 67.4222 148.685 67.0162C149.261 66.6103 149.966 66.4073 150.8 66.4073C151.623 66.4073 152.331 66.613 152.923 67.0245C153.521 67.4304 153.98 67.9873 154.298 68.695C154.616 69.4027 154.775 70.2009 154.775 71.0897C154.775 71.9784 154.616 72.7767 154.298 73.4844C153.98 74.1921 153.521 74.7544 152.923 75.1714C152.331 75.5828 151.62 75.7885 150.792 75.7885ZM146.702 79.4917V66.6542H148.011V73.1964H148.175V79.4917H146.702ZM150.611 74.4472C151.198 74.4472 151.684 74.2991 152.068 74.0028C152.452 73.7066 152.74 73.3061 152.932 72.8014C153.124 72.2911 153.22 71.7206 153.22 71.0897C153.22 70.4643 153.124 69.8992 152.932 69.3945C152.745 68.8898 152.454 68.4893 152.059 68.193C151.67 67.8968 151.173 67.7486 150.57 67.7486C149.994 67.7486 149.517 67.8913 149.138 68.1766C148.759 68.4564 148.477 68.8486 148.29 69.3533C148.104 69.8526 148.011 70.4314 148.011 71.0897C148.011 71.737 148.101 72.3158 148.282 72.826C148.469 73.3308 148.754 73.7285 149.138 74.0193C149.522 74.3045 150.013 74.4472 150.611 74.4472Z" fill="white"></path><path d="M143.094 75.5417L143.102 69.8553C143.102 69.1915 142.924 68.673 142.567 68.3C142.216 67.9214 141.758 67.7322 141.193 67.7322C140.864 67.7322 140.551 67.809 140.255 67.9626C139.959 68.1107 139.717 68.3466 139.531 68.6703C139.344 68.9885 139.251 69.3972 139.251 69.8964L138.477 69.5837C138.466 68.9528 138.595 68.4015 138.864 67.9297C139.138 67.4524 139.512 67.0821 139.983 66.8187C140.455 66.5554 140.987 66.4237 141.58 66.4237C142.507 66.4237 143.237 66.7063 143.769 67.2713C144.301 67.8309 144.567 68.5853 144.567 69.5344L144.559 75.5417H143.094ZM132.462 75.5417V66.6542H133.77V69.0324H133.935V75.5417H132.462ZM137.786 75.5417L137.794 69.9129C137.794 69.2326 137.619 68.7005 137.268 68.3164C136.917 67.9269 136.45 67.7322 135.869 67.7322C135.293 67.7322 134.826 67.9297 134.47 68.3247C134.113 68.7197 133.935 69.2436 133.935 69.8964L133.161 69.4356C133.161 68.8596 133.298 68.3439 133.573 67.8885C133.847 67.4332 134.22 67.0766 134.692 66.8187C135.164 66.5554 135.699 66.4237 136.297 66.4237C136.895 66.4237 137.416 66.5499 137.86 66.8023C138.305 67.0546 138.647 67.4167 138.889 67.8885C139.13 68.3548 139.251 68.9117 139.251 69.559L139.243 75.5417H137.786Z" fill="white"></path><path d="M126.371 75.7885C125.488 75.7885 124.725 75.5883 124.083 75.1878C123.447 74.7873 122.956 74.2332 122.61 73.5255C122.265 72.8178 122.092 72.0059 122.092 71.0897C122.092 70.157 122.267 69.3396 122.618 68.6374C122.969 67.9352 123.466 67.3893 124.108 66.9998C124.75 66.6048 125.504 66.4073 126.371 66.4073C127.26 66.4073 128.025 66.6075 128.667 67.008C129.309 67.403 129.8 67.9544 130.14 68.6621C130.485 69.3643 130.658 70.1735 130.658 71.0897C130.658 72.0168 130.485 72.8343 130.14 73.542C129.794 74.2442 129.3 74.7956 128.659 75.196C128.017 75.591 127.254 75.7885 126.371 75.7885ZM126.371 74.3978C127.293 74.3978 127.978 74.0906 128.428 73.4761C128.878 72.8617 129.103 72.0662 129.103 71.0897C129.103 70.0857 128.875 69.2875 128.42 68.695C127.965 68.097 127.282 67.798 126.371 67.798C125.751 67.798 125.241 67.9379 124.84 68.2177C124.44 68.4975 124.141 68.8843 123.943 69.378C123.746 69.8718 123.647 70.4423 123.647 71.0897C123.647 72.0882 123.877 72.8891 124.338 73.4926C124.799 74.0961 125.477 74.3978 126.371 74.3978Z" fill="white"></path><path d="M117.345 75.7885C116.445 75.7885 115.68 75.5883 115.049 75.1878C114.424 74.7818 113.946 74.225 113.617 73.5173C113.288 72.8096 113.118 72.0031 113.107 71.0979C113.118 70.1708 113.291 69.3561 113.626 68.6539C113.966 67.9461 114.451 67.3948 115.082 66.9998C115.713 66.6048 116.473 66.4073 117.362 66.4073C118.3 66.4073 119.106 66.6377 119.781 67.0985C120.461 67.5594 120.917 68.1903 121.147 68.9912L119.699 69.4274C119.512 68.9117 119.208 68.5112 118.785 68.2259C118.368 67.9407 117.888 67.798 117.345 67.798C116.736 67.798 116.234 67.9407 115.839 68.2259C115.444 68.5057 115.151 68.8952 114.959 69.3945C114.767 69.8882 114.668 70.456 114.662 71.0979C114.673 72.0854 114.901 72.8836 115.345 73.4926C115.795 74.0961 116.462 74.3978 117.345 74.3978C117.927 74.3978 118.409 74.2661 118.793 74.0028C119.177 73.734 119.468 73.3472 119.666 72.8425L121.147 73.2293C120.84 74.0577 120.36 74.6913 119.707 75.1302C119.054 75.5691 118.267 75.7885 117.345 75.7885Z" fill="white"></path><path d="M108.169 65.9659C107.878 64.9 105.616 62.4548 103.967 60.4798C103.935 60.4484 103.838 60.2917 103.644 60.2917C103.482 60.2917 103.353 60.4484 103.418 60.5738C103.482 60.6992 105.066 63.8968 104.775 64.9314C104.484 65.9972 103.03 65.7778 102.804 65.7778C102.674 65.7778 102.771 65.8718 102.901 65.9972C103.709 66.6869 104.226 67.6588 104.226 68.9127V69.8532C104.226 69.8845 104.226 69.8845 104.258 69.8845C106.101 69.7278 108.913 68.6306 108.169 65.9659Z" fill="#6DFF8A"></path><path d="M101.026 72.1417C101.026 73.0508 99.7654 73.5524 98.9573 73.5524C98.0846 73.5524 96.8563 73.0508 96.8563 72.1417V68.9441C96.8563 68.0349 98.0846 67.6274 98.9573 67.6274C99.7654 67.6274 101.026 68.0663 101.026 68.9441V72.1417ZM98.9573 65.621C97.0179 65.6524 94.7553 66.7183 94.7553 68.9127V72.2671C94.7553 74.4929 97.0179 75.5587 98.9573 75.5587C100.864 75.5274 103.127 74.4929 103.127 72.2671V68.9441C103.127 66.7496 100.864 65.6524 98.9573 65.621Z" fill="#6DFF8A"></path><path d="M86.416 72.1417C86.416 73.0508 85.1554 73.5524 84.3474 73.5524C83.4746 73.5524 82.2464 73.0508 82.2464 72.1417V68.9441C82.2464 68.0349 83.4746 67.6274 84.3474 67.6274C85.1554 67.6274 86.416 68.0663 86.416 68.9441V72.1417ZM84.315 65.621C82.3757 65.6524 80.1131 66.7183 80.1131 68.9127V72.2671C80.1131 74.4929 82.3757 75.5587 84.315 75.5587C86.2221 75.5274 88.4847 74.4929 88.4847 72.2671V68.9441C88.4847 66.7496 86.2221 65.6524 84.315 65.621Z" fill="#6DFF8A"></path><path d="M63.2405 65.9972C63.3698 65.8718 63.4668 65.7778 63.3375 65.7778C63.1112 65.7778 61.6567 65.9972 61.3658 64.9314C61.0749 63.8655 62.6587 60.6992 62.7234 60.5738C62.7557 60.4484 62.6587 60.2917 62.4648 60.2917C62.3032 60.2917 62.1739 60.4798 62.1416 60.4798C60.5254 62.4548 58.2305 64.9 57.9396 65.9659C57.1962 68.6306 60.0729 69.7278 61.883 69.9159C61.9153 69.9159 61.9153 69.8845 61.9153 69.8845V68.9441C61.9476 67.6588 62.4325 66.6869 63.2405 65.9972Z" fill="#6DFF8A"></path><path d="M79.9838 66.3734C78.4323 65.9659 77.301 65.8091 75.6202 65.8091C73.9717 65.8091 72.8081 65.9659 71.2566 66.3734C71.192 66.4048 71.1596 66.4675 71.192 66.4988C71.7091 66.9377 71.9354 67.502 72.0324 68.129C72.8728 67.9409 73.6485 67.8155 74.5535 67.7528V75.496C74.5535 75.5274 74.5859 75.5274 74.6182 75.5274H76.6222C76.6545 75.5274 76.6869 75.5274 76.6869 75.496V67.7528C77.5596 67.8155 78.2707 67.9095 79.1111 68.129C79.2404 67.502 79.4989 66.9064 80.0484 66.4988C80.0484 66.4361 80.0161 66.3734 79.9838 66.3734Z" fill="#6DFF8A"></path><path d="M94.82 65.7151C94.6583 65.6838 94.2381 65.6211 93.8503 65.6524C91.9432 65.7151 89.7776 66.8123 89.7776 68.9441V69.1322V72.2984V75.5588C89.7776 75.5901 89.8099 75.5901 89.8422 75.5901H91.8463C91.8786 75.5901 91.9109 75.5901 91.9109 75.5588V75.3707V68.9441C91.9109 68.223 92.8159 67.8155 93.5594 67.6588C93.7856 66.9691 94.2058 66.4361 94.8523 65.9345C94.9492 65.8405 94.9169 65.7151 94.82 65.7151Z" fill="#6DFF8A"></path><path d="M69.0263 69.5083C69.0263 69.5397 69.0263 69.5397 68.994 69.571C68.994 69.6024 68.9617 69.6024 68.9294 69.6024H65.1153V68.9441C65.1153 68.0349 66.2466 67.596 67.1193 67.596C67.9597 67.596 69.0263 68.0349 69.0263 68.9441V69.5083ZM67.1193 65.5583C65.1476 65.5897 62.982 66.6869 62.982 68.9127V72.2984C62.982 74.5556 65.1476 75.6214 67.1193 75.6528C68.5415 75.6528 70.1253 75.0885 70.9011 73.8659C70.9334 73.8345 70.9011 73.7718 70.8687 73.7405C70.19 73.3643 69.8021 73.1449 69.1233 72.8C69.091 72.8 69.091 72.8 69.0587 72.8314C68.7031 73.427 67.7657 73.7405 67.1193 73.7405C66.2466 73.7405 65.1153 73.2076 65.1153 72.2984V71.2953H70.5778C70.8687 71.2953 71.095 71.0758 71.095 70.7937V68.9441C71.095 66.6869 69.0587 65.5897 67.1193 65.5583Z" fill="#6DFF8A"></path><path fill-rule="evenodd" clip-rule="evenodd" d="M56.0392 19.0834C53.4453 22.3661 50.9774 25.494 50.9774 25.494H42.535C42.535 25.494 50.3589 15.7234 51.5358 14.0821C53.6494 11.1384 51.4337 6.36902 45.8736 6.36902H24.1493L29.1871 0H47.783H47.8118C50.2309 0 55.2546 -0.00032568 58.7653 5.89925C61.9536 11.2573 58.2548 16.2824 56.0392 19.0834ZM45.9396 31.875H29.1151L41.7244 15.9376C42.6011 14.8255 41.5143 12.75 40.0552 12.75H19.1115L14.0738 19.125H30.8203L18.2109 35.0624C17.1961 36.341 17.9707 38.25 19.8501 38.25H40.9018L45.9396 31.875ZM9.03 25.506C9.03 25.506 6.56211 28.6339 3.96817 31.9166C1.75258 34.7176 -1.94624 39.7427 1.24214 45.1007C4.75277 51.0003 9.77651 51 12.1957 51H12.2244H30.8203L35.8581 44.625H14.1338C8.57369 44.625 6.358 39.8616 8.47158 36.9179C9.64849 35.2766 17.4724 25.506 17.4724 25.506H9.03Z" fill="#FE990C"></path><path fill-rule="evenodd" clip-rule="evenodd" d="M74.4182 41.9906V37.7981L86.4515 23.3472H74.7334V17.9952H95.6294V22.1876L83.2135 36.6384H96.0346V41.9906H74.4182Z" fill="#FE990C"></path><path fill-rule="evenodd" clip-rule="evenodd" d="M111.36 42.3474C108.597 42.3474 106.165 41.8122 104.064 40.7417C101.992 39.6714 100.386 38.2143 99.245 36.3708C98.1042 34.4975 97.5344 32.3716 97.5344 29.9929C97.5344 27.5844 98.09 25.4583 99.2 23.6148C100.341 21.7417 101.888 20.2846 103.839 19.244C105.79 18.1735 107.997 17.6383 110.459 17.6383C112.83 17.6383 114.962 18.1438 116.853 19.1548C118.775 20.136 120.291 21.5632 121.402 23.4365C122.513 25.28 123.069 27.4952 123.069 30.0821C123.069 30.3497 123.053 30.6619 123.024 31.0187C122.993 31.3457 122.963 31.6579 122.934 31.9554H104.93C104.867 31.3309 104.835 30.7065 104.835 30.0821C104.835 29.4577 104.845 28.7292 104.866 27.8966H116.192C116.253 27.1433 116.113 26.4595 115.773 25.8449C115.262 24.9232 114.557 24.2096 113.656 23.7041C112.755 23.1689 111.705 22.9013 110.504 22.9013C109.302 22.9013 108.237 23.1689 107.306 23.7041C106.406 24.2096 105.7 24.938 105.189 25.8895C104.68 26.8113 104.71 32.7284 105.279 33.7394C105.88 34.7206 106.706 35.4788 107.756 36.014C108.838 36.5195 110.098 36.7722 111.54 36.7722C112.83 36.7722 113.957 36.579 114.917 36.1924C115.908 35.8059 116.808 35.2261 117.619 34.4529L121.357 38.467C120.246 39.7159 118.85 40.6822 117.169 41.3661C115.487 42.0203 113.551 42.3474 111.36 42.3474Z" fill="#FE990C"></path><path fill-rule="evenodd" clip-rule="evenodd" d="M140.67 17.6383C142.592 17.6383 144.303 18.0249 145.804 18.7979C147.335 19.5413 148.536 20.7009 149.407 22.2769C150.277 23.823 150.712 25.8152 150.712 28.2535V41.9906H143.687V29.3238C143.687 27.3911 143.251 25.9639 142.382 25.0421C141.541 24.1204 140.34 23.6594 138.778 23.6594C137.668 23.6594 136.663 23.8974 135.761 24.3731C134.89 24.8192 134.2 25.5178 133.69 26.4693C133.209 27.4208 132.969 28.6399 132.969 30.1266V41.9906H125.944V17.9952H132.654V20.754C133.224 20.1141 134.05 19.5066 135.131 18.9318C136.753 18.0694 138.598 17.6383 140.67 17.6383Z" fill="#FE990C"></path><path d="M166.849 51C164.567 51 162.36 50.7176 160.229 50.1526C158.127 49.6173 156.371 48.7997 154.96 47.6996L157.752 42.7042C158.772 43.5367 160.063 44.1909 161.625 44.6666C163.216 45.1721 164.777 45.4249 166.309 45.4249C168.8 45.4249 170.602 44.8748 171.713 43.7746C172.854 42.6745 173.424 41.0391 173.424 38.8685V35.2558L173.874 29.2346L173.784 23.1689V17.9952H180.449V37.9765C180.449 42.4366 179.278 45.7222 176.936 47.8333C174.595 49.9444 171.232 51 166.849 51ZM165.767 40.831C163.517 40.831 161.474 40.3552 159.643 39.4037C157.842 38.4225 156.386 37.0696 155.275 35.345C154.194 33.5907 153.654 31.5539 153.654 29.2346C153.654 26.8856 154.194 24.8488 155.275 23.1243C156.386 21.37 157.842 20.017 159.643 19.0655C161.474 18.114 163.517 17.6383 165.767 17.6383C167.81 17.6383 169.61 18.0545 171.172 18.8872C172.733 19.69 173.949 20.9537 174.82 22.6783C175.691 24.3731 176.126 26.5586 176.126 29.2346C176.126 31.881 175.691 34.0665 174.82 35.791C173.949 37.4859 172.733 38.7496 171.172 39.5821C169.61 40.4146 167.81 40.831 165.767 40.831ZM167.164 35.122C168.395 35.122 169.491 34.8841 170.451 34.4084C171.412 33.9029 172.163 33.2041 172.703 32.3121C173.243 31.4201 173.514 30.3943 173.514 29.2346C173.514 28.0452 173.243 27.0194 172.703 26.1571C172.163 25.2651 171.412 24.5812 170.451 24.1055C169.491 23.6001 168.395 23.3472 167.164 23.3472C165.933 23.3472 164.837 23.6001 163.877 24.1055C162.916 24.5812 162.151 25.2651 161.58 26.1571C161.04 27.0194 160.769 28.0452 160.769 29.2346C160.769 30.3943 161.04 31.4201 161.58 32.3121C162.151 33.2041 162.916 33.9029 163.877 34.4084C164.837 34.8841 165.933 35.122 167.164 35.122Z" fill="#FE990C"></path><path d="M196.715 42.3474C194.133 42.3474 191.836 41.8122 189.825 40.7417C187.843 39.6714 186.267 38.2143 185.096 36.3708C183.955 34.4975 183.385 32.3716 183.385 29.9929C183.385 27.5844 183.955 25.4583 185.096 23.6148C186.267 21.7417 187.843 20.2846 189.825 19.244C191.836 18.1735 194.133 17.6383 196.715 17.6383C199.266 17.6383 201.549 18.1735 203.56 19.244C205.572 20.2846 207.147 21.7268 208.288 23.5703C209.429 25.4138 210 27.5547 210 29.9929C210 32.3716 209.429 34.4975 208.288 36.3708C207.147 38.2143 205.572 39.6714 203.56 40.7417C201.549 41.8122 199.266 42.3474 196.715 42.3474ZM196.715 36.6384C197.886 36.6384 198.937 36.3708 199.867 35.8356C200.798 35.3004 201.534 34.5422 202.074 33.5609C202.614 32.55 202.884 31.3606 202.884 29.9929C202.884 28.5953 202.614 27.406 202.074 26.4247C201.534 25.4436 200.798 24.6853 199.867 24.1501C198.937 23.6148 197.886 23.3472 196.715 23.3472C195.544 23.3472 194.493 23.6148 193.562 24.1501C192.631 24.6853 191.881 25.4436 191.31 26.4247C190.77 27.406 190.5 28.5953 190.5 29.9929C190.5 31.3606 190.77 32.55 191.31 33.5609C191.881 34.5422 192.631 35.3004 193.562 35.8356C194.493 36.3708 195.544 36.6384 196.715 36.6384Z" fill="#FE990C"></path></svg>